<svg width="247" height="406" viewBox="0 0 247 406" fill="none" xmlns="http://www.w3.org/2000/svg">
<g clip-path="url(#clip0_118_688)">
<path d="M73.5059 12.3778C75.8498 14.8213 78.0573 17.3922 80.1182 20.0787C80.3331 20.4013 83.0748 24.5541 88.3432 32.5372C93.5606 41.1144 96.6382 46.88 97.5761 49.8339C98.4463 52.5983 99.0008 55.4522 99.2292 58.3412C99.3939 60.4472 99.4208 62.5617 99.3098 64.6712C99.2027 66.1729 99.0818 67.8663 98.9469 69.7514C98.806 71.6361 97.8384 74.3509 96.044 77.8958C94.7251 80.6756 93.0587 83.2768 91.0848 85.6369C89.1468 87.6377 86.9973 89.4222 84.6741 90.959C81.0814 93.6891 77.2332 96.0655 73.1833 98.0551C70.9913 99.124 68.7281 100.04 66.4097 100.797C66.2841 100.869 66.1632 100.936 66.0469 100.998C57.5791 105.547 47.7301 106.811 38.3882 104.546C35.3379 103.37 32.3854 101.955 29.5584 100.313C25.9139 98.2567 22.8058 95.3696 20.4867 91.8864C18.4844 92.0525 16.4698 91.9985 14.4792 91.7251C8.48522 91.3756 4.31896 88.3652 1.98044 82.6937C0.624294 79.1858 -0.0331319 75.4467 0.0451404 71.6867C0.0451888 70.3158 0.260225 67.7892 0.690242 64.1068C1.12031 60.4243 1.33534 57.9111 1.33534 56.5672C0.937952 53.0475 0.803183 49.5031 0.932157 45.9633C1.00366 44.6291 1.12461 43.0969 1.29502 41.367C1.51119 40.3393 2.07565 38.0277 2.98841 34.4322C3.88187 30.8616 5.17207 28.3752 6.85901 26.9732C9.03633 25.3089 11.4569 23.9898 14.0357 23.0623C14.0909 22.9154 14.1446 22.7676 14.197 22.6188C14.6295 21.3587 15.1831 20.1434 15.8501 18.9901C16.277 17.6954 16.8449 16.4515 17.5435 15.2808C18.8335 13.0775 20.3613 11.0224 22.0995 9.15235C24.2687 6.73302 28.4619 4.59612 34.6789 2.74167C40.8902 0.913268 45.621 0 48.8711 0C49.4087 0 49.6372 0.0268795 49.5565 0.0806378C52.2959 0.183798 55.0086 0.658522 57.6203 1.49179C59.4132 2.15326 61.0981 3.07722 62.6198 4.23347C63.8936 5.2488 65.2885 6.10202 66.7726 6.77354C68.4038 7.5355 70.6482 9.4036 73.5058 12.3778M61.0474 10.0797C60.4807 9.71124 59.5937 9.16021 58.3863 8.42661C57.1753 7.71652 54.2186 7.08486 49.5162 6.53163L45.8069 6.77354C42.5007 7.52616 40.0547 8.1175 38.4689 8.54757L37.098 8.99107C35.59 9.45905 34.1094 10.0109 32.663 10.6441C30.8253 11.4155 29.1237 12.4774 27.6231 13.789C27.4241 13.9659 27.2356 14.1544 27.0587 14.3535L26.5749 14.9179C25.1461 16.8174 23.7887 18.7661 22.5027 20.7641C22.393 20.9378 22.2854 21.1125 22.1801 21.2883C21.8473 21.8422 21.5382 22.4067 21.2528 22.9817C21.2363 22.9917 21.2225 23.0055 21.2125 23.022C20.5174 24.4101 19.9376 25.853 19.4788 27.3361C18.9949 28.922 18.5783 30.5213 18.2289 32.134V32.4162C18.1214 37.4426 18.1482 41.582 18.3095 44.8344C18.4708 47.6836 18.8337 51.3257 19.3981 55.7608C19.7207 58.2337 19.9491 59.7792 20.0835 60.3974C20.1642 60.9081 20.4061 62.0102 20.8093 63.7036C21.4547 66.9745 21.8457 70.2906 21.9785 73.622C22.2234 77.1026 22.8868 80.541 23.9541 83.8629C24.1172 84.2904 24.3057 84.7078 24.5186 85.1128C24.916 85.8728 25.3327 86.5985 25.7685 87.29C25.882 87.4245 25.9895 87.5589 26.091 87.6932V87.7738C30.428 94.3504 36.8118 98.127 45.2424 99.1034H49.9597C51.2284 98.9234 52.4917 98.7218 53.7497 98.4986C56.6573 98.8055 59.5883 98.1996 62.136 96.7649C62.8891 96.3588 63.6417 95.9422 64.3938 95.515C67.3774 93.7141 69.353 92.5987 70.3207 92.1686C71.3809 91.6787 72.4426 91.1679 73.5058 90.6365C74.8763 89.9568 76.2088 89.2031 77.4974 88.3786C81.316 86.4419 84.6401 83.6558 87.2142 80.2342C90.6307 75.8159 92.4626 70.3772 92.4153 64.7922C92.4153 63.087 92.3616 61.6221 92.254 60.3974C92.1841 59.6109 92.0628 58.8297 91.8912 58.059C91.5804 57.3259 91.3767 56.5519 91.2864 55.7608C91.2374 55.2317 91.1567 54.6672 91.0445 54.0674L87.2948 43.4233C87.2471 43.3465 87.2066 43.2656 87.1739 43.1813C87.0986 43.0511 87.0313 42.9165 86.9723 42.7782C86.9482 42.7422 86.9343 42.7004 86.932 42.6572C86.8659 42.5563 86.8118 42.448 86.7707 42.3347C86.7389 42.2979 86.7118 42.2572 86.6901 42.2137C86.6518 42.1516 86.6245 42.0834 86.6094 42.0121C86.5717 41.9802 86.5438 41.9382 86.5288 41.8911C86.4691 41.7867 86.4152 41.679 86.3675 41.5686C85.8426 40.527 85.2781 39.4384 84.6741 38.3028C80.2742 30.0408 75.3688 23.4957 69.9578 18.6676C69.9648 18.6862 69.9795 18.7009 69.9981 18.7079C65.5878 14.8662 63.1283 12.568 62.6198 11.8134C62.2002 11.1486 61.6681 10.562 61.0474 10.0797ZM11.8585 31.126C11.8674 31.0843 11.8809 31.0438 11.8988 31.0051C11.6747 31.1244 11.4592 31.2591 11.2537 31.4083C10.8506 31.7308 10.4474 32.0803 10.0442 32.4566C9.90963 32.6914 9.78848 32.9337 9.68132 33.1823C8.94932 36.167 8.39829 38.9625 8.02825 41.5686C8.00953 41.6209 7.99602 41.6749 7.98793 41.7299L7.34283 49.9952C7.35656 51.3286 7.35656 52.6322 7.34283 53.9061V53.9464C7.32014 57.645 7.19918 61.099 6.97996 64.3084C6.65741 68.9047 6.49613 71.3372 6.49613 71.606C6.59771 73.9673 6.90803 76.3149 7.42347 78.6215C8.00757 81.7642 9.41873 83.8339 11.6569 84.8306C13.9045 85.8349 15.4232 86.1843 16.2129 85.8789C16.9674 85.5915 17.3571 85.4437 17.3822 85.4354C17.1205 84.6428 16.892 83.823 16.6968 82.9759C16.545 81.4734 16.3163 79.9796 16.0114 78.5005C15.7146 76.9675 15.4992 75.4197 15.3663 73.8639C15.1243 68.3268 14.7883 65.061 14.3583 64.0664C13.9001 63.0286 13.6011 61.9276 13.4713 60.8006C13.0143 57.9246 12.6111 55.4248 12.2617 53.3013C11.7449 50.0585 11.4352 46.7861 11.3344 43.5039L11.3747 40.1978L11.415 36.3272C11.4093 36.1106 11.4093 35.8956 11.415 35.6821C11.4159 35.0593 11.5392 34.4429 11.7779 33.8677V32.0534C11.8048 31.7577 11.8317 31.4486 11.8586 31.126L11.8585 31.126Z" fill="black"/>
<path d="M7.34288 49.9952L7.98799 41.7299C7.99608 41.6749 8.00959 41.6209 8.02831 41.5686C8.92398 40.6952 10.1238 40.2037 11.3748 40.1977L11.3344 43.5039C11.4353 46.7861 11.745 50.0585 12.2618 53.3013C12.6112 55.4248 13.0144 57.9245 13.4713 60.8006C13.6012 61.9276 13.9002 63.0286 14.3583 64.0664C14.7884 65.061 15.1244 68.3268 15.3663 73.8639C15.4993 75.4197 15.7146 76.9675 16.0114 78.5005C16.3163 79.9796 16.5451 81.4734 16.6968 82.9759C16.8921 83.823 17.1206 84.6428 17.3822 85.4353C17.3571 85.4436 16.9674 85.5915 16.213 85.8788C15.4232 86.1843 13.9045 85.8349 11.657 84.8306C9.41879 83.8338 8.00763 81.7641 7.42353 78.6215C6.90809 76.3149 6.59777 73.9673 6.49619 71.606C6.49619 71.3372 6.65752 68.9047 6.98002 64.3083C7.19928 61.099 7.32023 57.645 7.34288 53.9464V53.9061C7.35662 52.6322 7.35662 51.3286 7.34288 49.9952ZM85.8434 69.9126C87.3755 68.1386 88.8404 66.2974 90.2382 64.389C91.0191 63.2842 91.6432 62.0766 92.0928 60.8006C92.1417 60.6722 92.1955 60.5378 92.2541 60.3974C92.3616 61.6221 92.4154 63.087 92.4154 64.7922C92.4626 70.3772 90.6308 75.8159 87.2143 80.2342C84.6401 83.6558 81.3161 86.4419 77.4974 88.3786C76.2089 89.2031 74.8764 89.9568 73.5059 90.6365C72.4427 91.1679 71.3809 91.6786 70.3207 92.1686C69.3531 92.5986 67.3775 93.7141 64.3939 95.515C63.6418 95.9422 62.8892 96.3588 62.136 96.7649C59.5884 98.1995 56.6574 98.8055 53.7497 98.4986C52.4917 98.7218 51.2284 98.9234 49.9598 99.1034H45.2425C36.8119 98.1269 30.4281 94.3504 26.0911 87.7738V87.6932C25.9895 87.5589 25.882 87.4245 25.7685 87.29C25.3327 86.5985 24.9161 85.8728 24.5187 85.1128C24.3058 84.7078 24.1173 84.2904 23.9542 83.8629C22.8868 80.541 22.2235 77.1026 21.9786 73.622C21.8457 70.2906 21.4548 66.9745 20.8093 63.7036C20.4062 62.0102 20.1643 60.9081 20.0836 60.3974C19.9492 59.7792 19.7207 58.2336 19.3982 55.7608C18.8337 51.3257 18.4709 47.6836 18.3096 44.8344C18.1483 41.582 18.1215 37.4426 18.2289 32.4162V32.134C18.5783 30.5213 18.995 28.9219 19.4788 27.3361C19.9376 25.853 20.5175 24.4101 21.2125 23.022C21.0378 23.7363 20.863 24.4486 20.6884 25.1589C20.5805 25.5936 20.5397 26.0423 20.5674 26.4894C20.4049 26.8718 20.3226 27.2835 20.3255 27.6989C20.3524 28.2634 20.3658 28.8144 20.3658 29.352C20.3658 29.567 20.3658 29.7686 20.3658 29.9568C20.259 30.1429 20.1904 30.3486 20.1642 30.5616C20.1188 30.7603 20.0918 30.9627 20.0836 31.1664C20.0298 31.4889 19.8954 32.4969 19.6804 34.1903C19.7554 37.5464 20.106 40.8906 20.7287 44.1893C21.665 49.8485 23.2478 55.3815 25.446 60.6797C31.7626 75.4901 41.681 82.8953 55.2012 82.8953C58.331 82.9442 61.4561 82.6331 64.5148 81.9679C68.4694 80.8955 72.3485 79.5621 76.1266 77.9764C78.2303 76.7732 80.2031 75.3544 82.0131 73.7429C83.3562 72.5342 84.6347 71.2557 85.8434 69.9127L85.8434 69.9126Z" fill="#1E1F26"/>
<path d="M11.8988 31.0052C11.8809 31.0439 11.8674 31.0844 11.8585 31.1262C11.8316 31.4487 11.8047 31.7578 11.7779 32.0535V33.8678C11.5392 34.443 11.4159 35.0595 11.415 35.6822C11.4092 35.8957 11.4092 36.1108 11.415 36.3273L11.3747 40.1979C10.1237 40.2038 8.9239 40.6953 8.02823 41.5687C8.39825 38.9626 8.94927 36.1672 9.6813 33.1824C9.78847 32.9338 9.90962 32.6915 10.0442 32.4567C10.4474 32.0804 10.8505 31.7309 11.2537 31.4084C11.4592 31.2592 11.6747 31.1245 11.8988 31.0052ZM58.3863 8.42672C59.5936 9.16034 60.4807 9.71136 61.0473 10.0798C61.6681 10.5621 62.2002 11.1487 62.6198 11.8135C63.1283 12.5681 65.5877 14.8663 69.9981 18.708C69.9795 18.701 69.9648 18.6863 69.9578 18.6677C75.3688 23.4958 80.2742 30.0409 84.6741 38.3029C85.2782 39.4386 85.8427 40.5272 86.3675 41.5687C86.4152 41.6791 86.4691 41.7868 86.5288 41.8913C86.5438 41.9383 86.5717 41.9803 86.6094 42.0122C86.6245 42.0835 86.6518 42.1517 86.69 42.2138C86.7118 42.2573 86.7389 42.298 86.7707 42.3348C86.8118 42.4481 86.8659 42.5564 86.932 42.6573C86.9343 42.7005 86.9482 42.7423 86.9723 42.7783C87.0313 42.9166 87.0986 43.0512 87.1739 43.1814C87.2066 43.2657 87.2471 43.3466 87.2948 43.4234L91.0445 54.0675C91.1567 54.6673 91.2373 55.2318 91.2864 55.7609C91.3767 56.552 91.5803 57.326 91.8912 58.0591C92.0628 58.8298 92.184 59.611 92.254 60.3975C92.1954 60.5379 92.1417 60.6723 92.0928 60.8007C91.6431 62.0767 91.019 63.2843 90.2381 64.3891C88.8404 66.2975 87.3755 68.1388 85.8434 69.9128C84.6347 71.2558 83.3561 72.5343 82.0131 73.743C80.203 75.3545 78.2302 76.7733 76.1265 77.9765C72.3484 79.5622 68.4693 80.8957 64.5148 81.9681C61.456 82.6332 58.331 82.9444 55.2011 82.8954C41.681 82.8954 31.7626 75.4902 25.4459 60.6798C23.2477 55.3816 21.665 49.8486 20.7286 44.1894C20.1059 40.8907 19.7553 37.5465 19.6803 34.1904C19.8954 32.497 20.0298 31.489 20.0835 31.1665C20.0917 30.9628 20.1187 30.7604 20.1642 30.5617C20.1904 30.3487 20.2589 30.143 20.3658 29.9569C20.3657 29.7688 20.3657 29.5672 20.3658 29.3521C20.3657 28.8145 20.3523 28.2635 20.3254 27.6991C20.3225 27.2836 20.4048 26.8719 20.5674 26.4895C20.5396 26.0424 20.5804 25.5937 20.6883 25.159C20.8629 24.4487 21.0376 23.7364 21.2124 23.0221C21.2224 23.0056 21.2363 22.9918 21.2528 22.9818C21.5381 22.4068 21.8472 21.8423 22.1801 21.2884C22.2855 21.1126 22.393 20.9379 22.5027 20.7642C23.7886 18.7663 25.146 16.8175 26.5748 14.918L27.0587 14.3536C27.2356 14.1545 27.4241 13.966 27.6231 13.7891C29.1237 12.4775 30.8253 11.4156 32.663 10.6442C34.1094 10.011 35.59 9.45915 37.098 8.99118L38.4689 8.54767C40.0547 8.11761 42.5007 7.52627 45.8069 6.77365L49.5162 6.53174C54.2186 7.08496 57.1753 7.71662 58.3863 8.42672ZM26.7361 16.2485L26.6555 16.4098L26.5748 16.5711V16.7324C26.6539 16.5372 26.7345 16.3356 26.8168 16.1276C26.8791 15.9599 26.9463 15.7852 27.0184 15.6034L26.978 15.6438C26.926 15.7465 26.8855 15.8547 26.8571 15.9663C26.8008 16.0527 26.7599 16.1482 26.7362 16.2485L26.7361 16.2485Z" fill="#3F474E"/>
<path d="M26.6556 16.4096L26.7362 16.2484C26.76 16.148 26.8009 16.0526 26.8572 15.9661C26.8856 15.8545 26.9261 15.7464 26.9781 15.6436L27.0184 15.6033C26.9464 15.785 26.8792 15.9597 26.8168 16.1274C26.7346 16.3354 26.654 16.537 26.5749 16.7322V16.5709L26.6556 16.4096Z" fill="#422E8B"/>
<path d="M56.451 97.4907C56.895 97.2976 57.3791 97.2146 57.8621 97.2487C58.0522 97.2596 58.2411 97.2866 58.4266 97.3294C59.6046 97.5453 60.5492 98.4269 60.8457 99.5872C60.8459 99.696 60.8594 99.8043 60.886 99.9098C60.9939 101.21 61.0343 102.516 61.007 103.821V104.425C59.9703 112.196 57.6256 119.734 54.0722 126.722C51.0348 132.561 46.9492 136.607 41.8153 138.858L41.1299 139.14C40.6235 139.334 40.1262 139.509 39.6381 139.664C36.9585 140.627 34.1391 141.145 31.2921 141.196C25.4056 141.196 21.1587 140 18.5514 137.608C16.2935 135.538 15.0033 134.087 14.6808 133.253C14.3045 132.286 14.1163 129.759 14.1163 125.673C14.1513 124.014 14.4367 122.369 14.963 120.795C15.3067 119.795 15.5762 118.77 15.7694 117.731C17.3005 113.656 18.1875 111.438 18.4304 111.078C18.4948 110.981 18.5362 110.871 18.5514 110.756C18.9812 110.372 19.371 109.269 19.7206 107.449C20.0441 105.65 20.286 104.159 20.4463 102.974C20.5676 101.984 20.6349 100.988 20.6479 99.9904V98.4986C20.2709 96.5033 20.0552 94.4808 20.0028 92.4508C19.9775 90.8323 19.8564 89.2167 19.64 87.6126C19.6915 87.3003 19.7588 86.9908 19.8416 86.6852C19.9201 86.3672 20.0568 86.0665 20.2447 85.7982C20.3791 85.5832 20.5135 85.3816 20.6479 85.1934C20.9354 84.983 21.2467 84.8071 21.5753 84.6693C21.9973 84.5105 22.4281 84.3759 22.8655 84.2661V84.3064C23.0903 84.3582 23.3201 84.3852 23.5509 84.3871C24.2243 84.5312 24.7828 84.9991 25.0427 85.6369C25.2347 86.0726 25.4229 86.5161 25.6071 86.9675C26.3785 89.1103 26.8533 91.3486 27.0183 93.6201C27.0214 93.6759 27.035 93.7306 27.0586 93.7813C27.2964 97.3295 27.2155 100.892 26.8167 104.425C26.9242 105.984 26.3329 108.471 25.0427 111.884C24.3438 113.739 23.3896 116.185 22.18 119.222C21.7312 120.648 21.381 122.103 21.1318 123.577C20.839 125.052 20.6637 126.549 20.6076 128.052C20.6077 129.665 20.8496 130.767 21.3333 131.358C22.8117 133.24 26.2119 134.181 31.534 134.181C35.9422 134.181 39.3155 133.401 41.654 131.842C42.4329 131.275 43.1493 130.626 43.7909 129.907C44.5961 129.064 45.5638 127.962 46.6938 126.601C46.8787 126.377 47.0669 126.149 47.2583 125.915C49.9196 122.261 51.85 118.126 52.9432 113.739C53.8722 110.717 54.4008 107.585 54.5156 104.425C54.5069 104.257 54.5069 104.083 54.5156 103.901C54.4957 103.042 54.4957 102.168 54.5156 101.281C54.5122 101.127 54.5122 100.966 54.5156 100.797C54.54 99.8089 54.8949 98.8578 55.5236 98.0954C55.5662 98.0575 55.6066 98.0171 55.6446 97.9745C55.6744 97.9679 55.7021 97.9541 55.7252 97.9342C55.8266 97.8576 55.9345 97.7902 56.0478 97.7326C56.1756 97.6415 56.3105 97.5606 56.451 97.4907Z" fill="black"/>
<path d="M50.4436 94.87C50.3529 94.8105 50.2587 94.7566 50.1614 94.7087C49.8301 94.4772 49.4793 94.2749 49.1131 94.1039C48.8488 93.9721 48.5929 93.824 48.347 93.6604C48.2823 93.6161 48.215 93.5757 48.1454 93.5395C48.0427 93.4875 47.9345 93.4469 47.8229 93.4185C47.7858 93.3968 47.7446 93.3831 47.7019 93.3782C47.6262 93.3543 47.5571 93.3128 47.5003 93.2572C47.3598 93.1723 47.2251 93.078 47.0971 92.975L46.9359 92.8137C46.3983 92.76 45.8741 92.7062 45.3634 92.6525C44.8679 92.5995 44.37 92.5726 43.8716 92.5718C43.1269 92.8095 42.4306 93.1782 41.8154 93.6604C40.0528 94.8822 38.9871 96.8785 38.9528 99.0228C38.9259 99.8292 38.9124 100.636 38.9124 101.442C38.9384 101.492 38.9522 101.547 38.9528 101.603C38.9745 101.64 38.9882 101.681 38.9931 101.724V101.885C39.02 102.047 39.0468 102.195 39.0737 102.329C39.1275 102.49 39.1813 102.652 39.235 102.813C39.2619 102.893 39.2888 102.987 39.3156 103.095L39.3963 103.418C39.4167 103.462 39.4439 103.503 39.4769 103.539V103.861C39.4775 103.917 39.4913 103.972 39.5172 104.022C39.5172 104.076 39.5172 104.116 39.5172 104.143C39.5172 104.197 39.5172 104.251 39.5172 104.305C39.5172 104.358 39.5172 104.412 39.5172 104.466C39.5432 104.516 39.557 104.571 39.5575 104.627C39.5792 104.664 39.593 104.705 39.5979 104.748C39.8968 106.723 39.8009 108.737 39.3156 110.675C38.9703 112.196 38.4139 113.662 37.6626 115.029C36.9368 116.32 36.2783 117.637 35.687 118.981C35.6869 119.034 35.6869 119.088 35.687 119.142C35.661 119.192 35.6472 119.247 35.6466 119.303C35.6418 119.346 35.628 119.387 35.6063 119.424V119.585C35.5804 119.635 35.5666 119.69 35.566 119.747C35.5654 119.803 35.5516 119.858 35.5257 119.908C35.5208 119.951 35.5071 119.992 35.4854 120.029C35.4853 120.083 35.4853 120.136 35.4854 120.19C35.4853 120.298 35.4853 120.392 35.4854 120.472C35.4587 120.578 35.4452 120.686 35.445 120.795C35.4182 120.902 35.3913 120.997 35.3644 121.077L35.2838 121.4C35.2837 121.453 35.2837 121.507 35.2838 121.561C35.2837 121.615 35.2837 121.668 35.2838 121.722C35.2837 121.749 35.2837 121.789 35.2838 121.843C35.2837 121.897 35.2837 121.951 35.2838 122.004L35.3644 122.327C35.3906 122.54 35.4591 122.746 35.566 122.932C35.6492 123.072 35.7168 123.221 35.7676 123.375C35.8213 123.51 35.8751 123.658 35.9289 123.819C35.9295 123.875 35.9433 123.93 35.9692 123.98C37.1503 125.066 38.5742 125.854 40.122 126.278C40.8209 126.466 41.5063 126.668 42.1783 126.883C43.8908 126.671 45.5878 126.348 47.2584 125.915C47.067 126.149 46.8789 126.378 46.694 126.601C45.5639 127.962 44.5962 129.064 43.791 129.907C43.1494 130.626 42.4331 131.275 41.6541 131.842C39.3156 133.401 35.9423 134.181 31.5341 134.181C26.2121 134.181 22.8118 133.24 21.3335 131.358C20.8497 130.767 20.6077 129.665 20.6077 128.052C20.6639 126.549 20.8391 125.053 21.1319 123.577C21.3811 122.103 21.7314 120.648 22.1802 119.222C23.3897 116.185 24.3439 113.739 25.0428 111.884C26.333 108.471 26.9243 105.985 26.8168 104.426C27.2156 100.892 27.2966 97.3295 27.0587 93.7814C27.0352 93.7307 27.0215 93.6759 27.0184 93.6201C26.8534 91.3486 26.3786 89.1104 25.6073 86.9675C26.6565 86.3435 27.7811 85.8557 28.9537 85.5161C31.1238 84.8719 33.3845 84.5859 35.6466 84.6694C39.7944 84.1294 44.0059 84.9349 47.6616 86.9675C49.5974 88.0516 51.4325 89.3065 53.145 90.7172C55.3065 92.4015 56.9429 94.6673 57.8622 97.2488C57.2183 97.1777 56.571 97.3503 56.0479 97.7326C55.9347 97.7902 55.8268 97.8577 55.7254 97.9342C55.7022 97.9541 55.6745 97.968 55.6447 97.9745C55.6067 98.0171 55.5664 98.0575 55.5238 98.0955C54.895 98.8578 54.5401 99.809 54.5158 100.797C54.5123 100.966 54.5123 101.128 54.5158 101.281C54.1706 100.585 53.861 99.8714 53.5885 99.1438C53.2817 98.3096 52.8162 97.5429 52.2176 96.8859C51.9488 96.5903 51.6934 96.2812 51.4516 95.9586C51.3172 95.8511 51.1828 95.7436 51.0484 95.6361L50.9677 95.4748C50.942 95.4222 50.8994 95.3796 50.8468 95.3538C50.7661 95.2463 50.6855 95.1388 50.6049 95.0313L50.4436 94.87Z" fill="#1E1F26"/>
<path d="M50.1613 94.7087C50.2586 94.7566 50.3529 94.8104 50.4436 94.8699L50.6048 95.0312C50.6855 95.1387 50.7661 95.2463 50.8467 95.3538C50.8994 95.3795 50.9419 95.4221 50.9677 95.4747L51.0483 95.636C51.1827 95.7435 51.3171 95.851 51.4515 95.9585C51.6934 96.2811 51.9488 96.5902 52.2176 96.8859C52.8161 97.5428 53.2817 98.3096 53.5884 99.1437C53.861 99.8713 54.1705 100.585 54.5157 101.281C54.4958 102.168 54.4958 103.042 54.5157 103.901C54.507 104.083 54.507 104.257 54.5157 104.425C54.4009 107.585 53.8723 110.717 52.9433 113.739C51.8501 118.126 49.9197 122.261 47.2584 125.915C45.5878 126.348 43.8908 126.671 42.1782 126.883C41.5062 126.668 40.8208 126.466 40.122 126.278C38.5742 125.854 37.1503 125.066 35.9691 123.98C35.9432 123.93 35.9294 123.875 35.9288 123.819C35.875 123.658 35.8213 123.51 35.7675 123.375C35.7167 123.221 35.6491 123.072 35.566 122.932C35.4591 122.746 35.3905 122.54 35.3644 122.327L35.2837 122.004C35.2837 121.951 35.2837 121.897 35.2837 121.843C35.2837 121.789 35.2837 121.749 35.2837 121.722C35.2837 121.668 35.2837 121.615 35.2837 121.561C35.2837 121.507 35.2837 121.453 35.2837 121.4L35.3644 121.077C35.3912 120.996 35.4181 120.902 35.445 120.795C35.4452 120.686 35.4587 120.578 35.4853 120.472C35.4853 120.392 35.4853 120.298 35.4853 120.19C35.4853 120.136 35.4853 120.083 35.4853 120.029C35.507 119.992 35.5208 119.951 35.5256 119.908C35.5515 119.858 35.5654 119.803 35.566 119.747C35.5665 119.69 35.5803 119.635 35.6063 119.585V119.424C35.628 119.387 35.6417 119.346 35.6466 119.303C35.6472 119.247 35.661 119.192 35.6869 119.142C35.6869 119.088 35.6869 119.034 35.6869 118.981C36.2782 117.637 36.9368 116.32 37.6625 115.029C38.4138 113.662 38.9702 112.196 39.3156 110.675C39.8009 108.737 39.8968 106.723 39.5978 104.748C39.5929 104.705 39.5792 104.664 39.5575 104.627C39.5569 104.571 39.5431 104.516 39.5172 104.466C39.5171 104.412 39.5171 104.358 39.5172 104.305C39.5171 104.251 39.5171 104.197 39.5172 104.143C39.5171 104.116 39.5171 104.076 39.5172 104.022C39.4913 103.972 39.4775 103.917 39.4769 103.861V103.538C39.4439 103.503 39.4167 103.462 39.3962 103.418L39.3156 103.095C39.2887 102.987 39.2618 102.893 39.235 102.813C39.1812 102.651 39.1274 102.49 39.0737 102.329C39.0468 102.195 39.0199 102.047 38.993 101.885V101.724C38.9881 101.681 38.9744 101.64 38.9527 101.603C38.9522 101.547 38.9383 101.492 38.9124 101.442C38.9124 100.636 38.9258 99.8291 38.9527 99.0228C38.9871 96.8784 40.0528 94.8821 41.8154 93.6604C42.4306 93.1781 43.1269 92.8095 43.8716 92.5718C44.3699 92.5725 44.8679 92.5995 45.3634 92.6524C45.8741 92.7062 46.3983 92.7599 46.9358 92.8137L47.0971 92.975C47.225 93.078 47.3597 93.1722 47.5003 93.2572C47.5571 93.3128 47.6261 93.3542 47.7019 93.3782C47.7446 93.3831 47.7858 93.3968 47.8228 93.4185C47.9345 93.4469 48.0426 93.4874 48.1454 93.5394C48.2149 93.5757 48.2823 93.6161 48.347 93.6604C48.5929 93.824 48.8487 93.9721 49.113 94.1039C49.4793 94.2748 49.83 94.4772 50.1613 94.7087Z" fill="#3F474E"/>
<path d="M30.7322 24.268C31.0739 19.6529 33.3954 15.5844 37.6966 12.0625C44.2537 6.70755 54.0592 4.7534 67.1133 6.20008C67.4129 6.22097 67.7105 6.26307 68.0041 6.32604C68.3592 6.39234 68.6944 6.45717 69.0098 6.52052C69.672 6.64778 70.321 6.83646 70.9482 7.0841C71.1882 7.14296 71.4232 7.22055 71.6511 7.31616C77.4775 9.66778 81.4797 13.4245 83.6578 18.5862C84.4258 20.3409 84.9351 22.1977 85.1698 24.0987C85.2921 24.8554 85.3358 25.6228 85.3002 26.3886C85.242 28.6107 84.5403 30.7683 83.2802 32.5996C81.4118 35.1415 78.4581 35.8628 74.4191 34.7637C70.9681 33.8281 66.1843 34.4139 60.0677 36.5212C53.3337 38.8628 48.5145 39.9261 45.6102 39.7111C41.4327 39.4017 37.7938 37.4921 34.6934 33.9822C31.8139 30.7287 30.4936 27.4906 30.7322 24.268ZM46.4516 14.571C45.3332 15.0883 44.2944 15.6114 43.3351 16.1404C42.1012 16.8193 40.9367 17.6174 39.8584 18.5232L39.7943 18.5785L39.4782 18.7951C39.1334 19.1296 38.8085 19.4656 38.5035 19.803L36.6558 23.6865C36.3447 26.515 37.5846 29.2912 39.8985 30.9473C41.5222 32.1738 43.4164 32.9931 45.4221 33.3365L46.5516 33.4801L46.9693 33.5111C47.9982 33.5773 49.0313 33.5127 50.0439 33.3187C51.1672 33.1387 52.2723 32.859 53.346 32.4831C54.744 31.9635 56.1108 31.3635 57.4395 30.686C57.5072 30.6607 57.5706 30.6249 57.6273 30.5799C58.5148 30.1388 59.4253 29.7455 60.3548 29.4018C63.3519 28.2611 66.5601 27.7823 69.7596 27.998C75.2103 28.4016 78.3909 28.3971 79.3015 27.9845C79.6714 27.8519 79.9513 27.3125 80.1414 26.3665C80.2136 25.9318 80.2703 25.436 80.3115 24.879L80.316 24.8193C80.3366 24.5398 80.3373 24.2591 80.3181 23.9794C80.3481 22.2463 79.9155 20.5365 79.0648 19.0262C78.1399 17.3508 76.8532 15.9026 75.2983 14.7869C72.3214 12.5264 68.7526 11.1782 65.0247 10.9059C63.4266 10.788 61.8219 10.7895 60.2239 10.9104C60.0826 10.903 59.9408 10.9126 59.8018 10.9391C59.6799 10.9305 59.5575 10.9417 59.4393 10.9723L59.3796 10.9679C54.9007 11.4457 50.532 12.6632 46.4516 14.571Z" fill="#091628"/>
<path d="M60.4029 10.9235C60.5824 10.8992 60.7637 10.8926 60.9445 10.9036C62.5388 10.9817 64.1501 11.101 65.7784 11.2616C66.2897 11.3794 66.8224 11.4789 67.3765 11.5599C69.163 11.9243 70.878 12.5783 72.4536 13.496C72.9105 13.7673 73.2944 14.1459 73.572 14.5989C73.5716 14.6453 73.5899 14.69 73.6228 14.7227L73.614 14.8421C73.6135 14.8885 73.6318 14.9331 73.6648 14.9658L73.6559 15.0852L73.647 15.2045C73.6435 15.2208 73.6477 15.2378 73.6586 15.2504C73.6695 15.263 73.6857 15.2698 73.7023 15.2686L73.6934 15.388L73.6845 15.5073C73.6471 15.5348 73.6224 15.5763 73.616 15.6222L73.6071 15.7416C73.4542 16.4967 72.8684 17.0894 72.1152 17.2513C71.7758 17.3062 71.4283 17.2805 71.1007 17.1761C69.8232 16.7939 68.5749 16.3205 67.3652 15.7594C66.6389 15.3875 65.8769 15.0899 65.0908 14.8709C64.6929 14.8415 64.2965 14.7921 63.9016 14.7229C63.8 14.7111 63.7008 14.6835 63.6077 14.6411L63.4883 14.6322C62.9218 14.634 62.3599 14.5313 61.8306 14.3295C60.9067 14.3811 59.9843 14.4128 59.0633 14.4246C58.6389 14.3951 58.2211 14.3035 57.8233 14.1528C57.5706 14.0676 57.3516 13.9043 57.1978 13.6864C57.1649 13.6537 57.1466 13.6091 57.147 13.5627C57.1141 13.5299 57.0957 13.4853 57.0961 13.4389C57.0965 13.3925 57.0782 13.3478 57.0453 13.3151C57.0457 13.2687 57.0274 13.2241 56.9945 13.1913L57.0034 13.072C56.9705 13.0392 56.9521 12.9946 56.9525 12.9482L56.9614 12.8289L56.9658 12.7692L56.9747 12.6498C56.9841 12.5281 57.0132 12.4086 57.0609 12.2962L57.0698 12.1769C57.1072 12.1493 57.1319 12.1079 57.1383 12.0619C57.1757 12.0344 57.2004 11.993 57.2069 11.947C57.2057 11.9304 57.2125 11.9142 57.2251 11.9033C57.2377 11.8924 57.2547 11.8882 57.271 11.8917C57.2774 11.8457 57.3021 11.8043 57.3395 11.7768C57.4797 11.6574 57.6282 11.5481 57.7838 11.4496C58.2572 11.2526 58.7509 11.1081 59.2558 11.0186C59.2918 10.9908 59.3345 10.9733 59.3796 10.9678L59.4393 10.9722C59.5575 10.9416 59.6799 10.9304 59.8017 10.9391C59.9408 10.9125 60.0826 10.9029 60.2239 10.9103L60.4029 10.9235Z" fill="white"/>
<path d="M43.3351 16.1404C42.7001 17.0402 42.2935 18.081 42.1505 19.1729L42.1416 19.2923C42.1042 19.3198 42.0795 19.3613 42.0731 19.4072C42.0667 19.4532 42.0419 19.4946 42.0046 19.5222L41.9648 20.0593C41.9088 20.2733 41.8924 20.4958 41.9162 20.7157C41.9474 20.8347 41.938 20.9607 41.8897 21.0738C41.9226 21.1065 41.9409 21.1511 41.9405 21.1975C41.9685 21.3596 41.995 21.5416 42.0201 21.7435L41.9936 22.1015L41.9803 22.2805C42.1442 22.82 42.3673 23.3397 42.6457 23.83C42.9718 24.4231 43.4542 24.9154 44.0404 25.2534C45.1598 25.9398 46.3758 26.4546 47.6477 26.7807C48.175 26.9009 48.7107 26.9807 49.2502 27.0194C49.2829 26.9864 49.3275 26.9681 49.374 26.9686C52.9281 26.5117 56.4329 25.9111 59.8883 25.1669C65.9554 23.9058 72.1634 23.4574 78.3487 23.8336C78.7786 23.4609 79.0699 22.9538 79.1753 22.3947L79.2063 21.9769L79.2902 20.843L79.3344 20.2463C79.282 19.8322 79.1918 19.4238 79.0647 19.0262C79.9155 20.5365 80.3481 22.2463 80.3181 23.9795C80.3373 24.2591 80.3366 24.5398 80.3159 24.8194L80.3115 24.8791C80.2703 25.436 80.2136 25.9319 80.1414 26.3666C79.9513 27.3126 79.6714 27.8519 79.3015 27.9846C78.3908 28.3972 75.2102 28.4017 69.7596 27.9981C66.5601 27.7823 63.3518 28.2611 60.3548 29.4018C59.4253 29.7455 58.5148 30.1388 57.6273 30.5799C57.5706 30.6248 57.5072 30.6606 57.4394 30.686C56.1107 31.3634 54.744 31.9635 53.346 32.4831C52.2722 32.859 51.1672 33.1386 50.0438 33.3186C49.0313 33.5126 47.9982 33.5773 46.9693 33.511L46.5516 33.4801L45.4221 33.3364C43.4164 32.9931 41.5222 32.1738 39.8985 30.9472C37.5845 29.2911 36.3447 26.515 36.6558 23.6865L38.5035 19.803C38.8085 19.4656 39.1334 19.1296 39.4782 18.7951L39.7943 18.5785L39.8584 18.5232C40.9368 17.6174 42.1012 16.8193 43.3351 16.1404Z" fill="#4E7A8D"/>
<path d="M42.1505 19.1729C42.2935 18.0809 42.7001 17.0402 43.3351 16.1404C44.2944 15.6113 45.3332 15.0882 46.4516 14.571C50.532 12.6632 54.9006 11.4456 59.3796 10.9678C59.3345 10.9733 59.2917 10.9909 59.2558 11.0186C58.7508 11.1081 58.2572 11.2526 57.7837 11.4497C57.6281 11.5481 57.4797 11.6574 57.3395 11.7768C57.3021 11.8043 57.2774 11.8458 57.2709 11.8918C57.2547 11.8882 57.2377 11.8925 57.2251 11.9034C57.2125 11.9142 57.2057 11.9304 57.2068 11.947C57.2004 11.993 57.1757 12.0344 57.1383 12.062C57.1318 12.1079 57.1071 12.1494 57.0697 12.1769L57.0609 12.2962C57.0132 12.4087 56.9841 12.5281 56.9747 12.6499L56.9658 12.7692L56.9614 12.8289L56.9525 12.9482C56.9521 12.9947 56.9704 13.0393 57.0033 13.072L56.9945 13.1914C57.0274 13.2241 57.0457 13.2687 57.0453 13.3151C57.0782 13.3479 57.0965 13.3925 57.0961 13.4389C57.0957 13.4853 57.114 13.53 57.147 13.5627C57.1465 13.6091 57.1648 13.6537 57.1978 13.6865C57.3515 13.9043 57.5706 14.0676 57.8233 14.1528C58.2211 14.3036 58.6389 14.3952 59.0633 14.4247C59.9842 14.4128 60.9067 14.3811 61.8306 14.3295C62.3599 14.5314 62.9218 14.634 63.4883 14.6323L63.6076 14.6411C63.7008 14.6835 63.8 14.7111 63.9016 14.7229C64.2965 14.7922 64.6929 14.8415 65.0908 14.871C65.8769 15.0899 66.6389 15.3876 67.3652 15.7595C68.5748 16.3205 69.8232 16.794 71.1006 17.1762C71.4282 17.2805 71.7758 17.3062 72.1152 17.2513C72.8685 17.0896 73.4544 16.4969 73.6074 15.7417L73.6163 15.6224C73.6227 15.5764 73.6474 15.535 73.6848 15.5074L73.6937 15.3881L73.7026 15.2688C73.6859 15.2699 73.6698 15.2631 73.6589 15.2505C73.648 15.2379 73.6437 15.2209 73.6473 15.2047L73.6562 15.0853L73.665 14.966C73.6321 14.9332 73.6138 14.8886 73.6142 14.8422L73.6231 14.7229C73.5902 14.6901 73.5719 14.6455 73.5723 14.5991C73.2947 14.146 72.9108 13.7674 72.4539 13.4962C70.8783 12.5784 69.1633 11.9244 67.3767 11.5601C66.8227 11.479 66.29 11.3796 65.7787 11.2617C64.1504 11.1011 62.5391 10.9818 60.9448 10.9038C60.764 10.8927 60.5827 10.8994 60.4032 10.9237L60.2242 10.9104C61.8221 10.7895 63.4268 10.788 65.025 10.9059C68.7528 11.1782 72.3215 12.5264 75.2983 14.7868C76.8531 15.9025 78.1398 17.3507 79.0647 19.0261C79.1918 19.4237 79.282 19.8321 79.3344 20.2461L79.2902 20.8429L79.2063 21.9768L79.1753 22.3946C79.0699 22.9537 78.7786 23.4608 78.3487 23.8335C72.1633 23.4573 65.9554 23.9057 59.8883 25.1668C56.4329 25.911 52.9281 26.5116 49.3739 26.9684C49.3275 26.968 49.2829 26.9863 49.2502 27.0192C48.7107 26.9806 48.175 26.9008 47.6477 26.7806C46.3757 26.4545 45.1598 25.9397 44.0404 25.2533C43.4542 24.9153 42.9718 24.423 42.6457 23.83C42.3673 23.3397 42.1442 22.8201 41.9803 22.2806L41.9936 22.1016L42.0201 21.7436C41.9951 21.5417 41.9685 21.3597 41.9405 21.1976C41.9409 21.1512 41.9226 21.1066 41.8897 21.0739C41.9381 20.9608 41.9474 20.8348 41.9162 20.7158C41.8924 20.4959 41.9089 20.2734 41.9648 20.0594L42.0046 19.5223C42.042 19.4947 42.0667 19.4533 42.0731 19.4073C42.0796 19.3614 42.1043 19.3199 42.1416 19.2924L42.1505 19.1729Z" fill="#90C3D0"/>
<path d="M67.579 104.224C67.6691 104.835 67.7363 105.453 67.7806 106.079C67.9126 107.877 67.926 109.682 67.8209 111.481C67.2834 116.185 67.0146 119.223 67.0146 120.593C67.0782 122.308 67.2397 124.018 67.4984 125.714C67.7163 127.134 68.448 128.426 69.5546 129.343C71.3556 130.955 73.9494 131.762 77.3362 131.762C81.3667 131.91 85.2538 130.255 87.94 127.246C88.7787 126.295 89.5089 125.254 90.1172 124.142C90.4033 123.629 90.672 123.091 90.9235 122.529C92.7244 118.605 93.6249 113.753 93.6249 107.974C93.6249 100.421 93.1276 94.5341 92.1331 90.3141C91.902 89.3504 91.687 88.3827 91.488 87.4112C91.3361 86.6694 91.1882 85.9302 91.0445 85.1936C90.8039 84.1693 90.562 83.1479 90.3187 82.1294C90.2917 82.012 90.2648 81.8911 90.2381 81.7665C90.1814 81.6398 90.1277 81.5054 90.0768 81.3633C89.7957 80.5439 89.6328 79.6886 89.593 78.8233C89.5452 77.9707 89.6827 77.1178 89.9962 76.3235C90.0681 76.0865 90.1626 75.857 90.2784 75.6381C90.4282 75.5363 90.5909 75.4549 90.7623 75.3962C90.9611 75.2853 91.1807 75.2166 91.4074 75.1946C91.5128 75.2212 91.6211 75.2348 91.7299 75.2349C92.133 75.3424 92.5362 75.4499 92.9395 75.5574C93.4277 75.7064 93.8804 75.9533 94.27 76.2832C94.9885 76.8935 95.473 77.7343 95.6408 78.662C96.4202 79.4674 96.9278 80.4966 97.0923 81.6053C97.5781 84.5017 98.0619 87.4046 98.5438 90.3141C98.8126 92.0075 99.1217 94.8432 99.4711 98.8213C99.8205 102.369 99.9952 104.439 99.9952 105.03C99.9952 127.286 92.4018 138.414 77.2152 138.414C70.791 138.414 66.235 136.492 63.5471 132.649C61.5312 129.746 60.5233 125.593 60.5232 120.19C60.5352 118.329 60.6699 116.47 60.9264 114.626C61.2221 112.61 61.3699 111.562 61.3699 111.481C61.366 110.447 61.3525 109.412 61.3296 108.377C61.3296 107.678 61.3431 106.979 61.3699 106.28L61.2893 105.958C60.945 104.735 60.486 103.547 59.9184 102.41C59.5174 101.641 59.3493 100.773 59.4346 99.91C59.5152 99.7218 59.5959 99.5202 59.6765 99.3052C59.7572 99.117 59.8513 98.9154 59.9588 98.7004C60.0102 98.596 60.0783 98.5007 60.1603 98.4182C60.2177 98.3048 60.2852 98.1969 60.3619 98.0956C60.8822 97.628 61.526 97.3201 62.2166 97.2086C62.3375 97.2125 62.4584 97.2125 62.5795 97.2086C63.085 97.181 63.5912 97.2494 64.0713 97.4102C64.2108 97.4665 64.3456 97.5339 64.4745 97.6118C64.6574 97.6896 64.8329 97.7841 64.9986 97.894C66.294 99.7992 67.1733 101.956 67.579 104.224Z" fill="black"/>
<path d="M81.9728 86.8062C81.9985 86.7536 82.0411 86.711 82.0937 86.6852C82.2818 86.4702 82.4834 86.2552 82.6985 86.0401C82.9471 85.8181 83.1764 85.5753 83.3839 85.3144L83.4646 85.1531C83.8614 84.834 84.3119 84.5883 84.7951 84.4274C85.9209 84.1051 87.0994 84.0092 88.2625 84.1452C89.2075 84.4458 90.1361 84.7957 91.0445 85.1934C91.1882 85.93 91.336 86.6692 91.488 87.411C91.6869 88.3825 91.902 89.3501 92.1331 90.3139C93.1276 94.5339 93.6249 100.42 93.6249 107.974C93.6249 113.753 92.7244 118.605 90.9235 122.529C90.4514 122.731 89.981 122.932 89.5124 123.133C88.2985 123.672 87.0449 124.117 85.7627 124.464H84.1097C83.1689 124.195 82.2282 123.913 81.2874 123.617C80.2771 123.275 79.3643 122.694 78.6263 121.924L78.2231 121.601C78.2236 121.548 78.1917 121.5 78.1425 121.48C78.0117 121.351 77.9028 121.201 77.8199 121.037C77.7662 120.876 77.7125 120.714 77.6587 120.553C77.578 120.338 77.4974 120.136 77.4167 119.948C77.4167 119.894 77.4167 119.841 77.4167 119.787C77.4167 119.626 77.4167 119.478 77.4167 119.343C77.4167 119.29 77.4167 119.236 77.4167 119.182C77.4167 119.021 77.4167 118.873 77.4167 118.739C77.4167 118.685 77.4167 118.631 77.4167 118.577C77.4427 118.528 77.4565 118.472 77.4571 118.416C77.5355 118.236 77.5897 118.046 77.6184 117.852C77.6979 117.59 77.7387 117.318 77.7393 117.045C77.7381 116.896 77.7517 116.748 77.7796 116.602C77.8043 116.51 77.8179 116.415 77.8199 116.319C77.8967 116.07 77.9506 115.813 77.9812 115.553C78.0048 115.088 78.086 114.628 78.2231 114.183C78.3844 113.645 78.5457 113.094 78.707 112.53C78.7616 112.223 78.7886 111.913 78.7876 111.602C78.8167 111.569 78.8313 111.525 78.8279 111.481L78.9085 110.997C78.9354 110.863 78.9623 110.715 78.9892 110.554C79.0169 110.354 79.0303 110.151 79.0295 109.949C79.0295 109.895 79.0295 109.842 79.0295 109.788C79.0587 109.755 79.0732 109.711 79.0698 109.667C79.1227 109.511 79.1499 109.348 79.1505 109.183C79.1774 109.102 79.2043 109.008 79.2311 108.901C79.258 108.7 79.258 108.497 79.2311 108.296C79.257 108.246 79.2708 108.191 79.2714 108.135L79.3521 107.974C79.4596 106.925 79.5268 105.877 79.5536 104.829C79.6622 102.755 79.5676 100.675 79.2714 98.6196C79.1097 97.6197 79.0288 96.6085 79.0295 95.5957C79.0554 95.5458 79.0692 95.4906 79.0698 95.4344C79.1234 95.2733 79.2053 95.1232 79.3117 94.9909C79.4157 94.8664 79.4727 94.7095 79.473 94.5474C79.4981 94.3392 79.5524 94.1356 79.6343 93.9426C79.6602 93.8928 79.674 93.8375 79.6746 93.7813C79.6752 93.7252 79.689 93.6699 79.7149 93.6201C79.7131 93.5244 79.7268 93.4291 79.7552 93.3378V93.1766C79.7558 93.1204 79.7696 93.0651 79.7956 93.0153C79.8224 92.9078 79.8493 92.8137 79.8762 92.733C79.8762 92.6793 79.8762 92.6255 79.8762 92.5718C79.8762 92.518 79.8762 92.4643 79.8762 92.4105C80.0106 91.9536 80.1316 91.4966 80.2391 91.0397C80.4184 90.4954 80.6478 89.969 80.9245 89.4672C81.375 88.6234 81.7267 87.7305 81.9728 86.8062Z" fill="#3F474E"/>
<path d="M70.3207 88.0965C70.7197 87.6425 71.2158 87.2842 71.7721 87.0482C72.2256 86.8905 72.5821 86.534 72.7398 86.0805C72.842 84.9148 73.1999 83.786 73.7881 82.7744C74.4579 81.5886 77.6834 79.0216 83.4646 75.0735C84.8009 74.1684 85.8357 73.4158 86.5691 72.8157C88.0628 73.5808 89.266 74.8124 89.9962 76.3234C89.6827 77.1177 89.5452 77.9706 89.593 78.8232C89.6328 79.6885 89.7957 80.5438 90.0768 81.3632C90.1277 81.5053 90.1814 81.6397 90.2381 81.7664C90.2647 81.8909 90.2916 82.0119 90.3188 82.1293C90.562 83.1477 90.804 84.1692 91.0445 85.1935C90.1361 84.7958 89.2075 84.4459 88.2625 84.1452C87.0994 84.0092 85.9209 84.1052 84.7951 84.4275C84.312 84.5883 83.8614 84.8341 83.4646 85.1532L83.3839 85.3145C83.1764 85.5753 82.9471 85.8181 82.6985 86.0402C82.4834 86.2552 82.2819 86.4703 82.0937 86.6853C82.0411 86.7111 81.9986 86.7536 81.9728 86.8063C81.7268 87.7306 81.375 88.6235 80.9245 89.4673C80.6479 89.9691 80.4184 90.4955 80.2391 91.0397C80.1316 91.4967 80.0106 91.9536 79.8762 92.4106C79.8763 92.4643 79.8763 92.5181 79.8762 92.5718C79.8763 92.6256 79.8763 92.6794 79.8762 92.7331C79.8493 92.8138 79.8225 92.9078 79.7956 93.0153C79.7697 93.0652 79.7559 93.1204 79.7553 93.1766V93.3379C79.7268 93.4292 79.7132 93.5245 79.7149 93.6201C79.689 93.67 79.6752 93.7252 79.6746 93.7814C79.674 93.8376 79.6602 93.8928 79.6343 93.9427C79.5524 94.1357 79.4981 94.3393 79.473 94.5475C79.4727 94.7096 79.4157 94.8665 79.3117 94.991C79.2054 95.1232 79.1234 95.2734 79.0698 95.4345C79.0693 95.4907 79.0554 95.5459 79.0295 95.5957C79.0288 96.6086 79.1097 97.6198 79.2714 98.6196C79.5677 100.675 79.6622 102.755 79.5537 104.829C79.5267 105.877 79.4595 106.925 79.3521 107.974L79.2714 108.135C79.2709 108.191 79.257 108.246 79.2311 108.296C79.258 108.497 79.258 108.7 79.2311 108.901C79.2042 109.008 79.1774 109.102 79.1505 109.183C79.1499 109.348 79.1227 109.511 79.0698 109.667C79.0732 109.711 79.0587 109.755 79.0295 109.788C79.0295 109.842 79.0295 109.895 79.0295 109.949C79.0303 110.151 79.0169 110.354 78.9892 110.554C78.9623 110.715 78.9354 110.863 78.9086 110.997L78.8279 111.481C78.8313 111.525 78.8167 111.569 78.7876 111.602C78.7886 111.913 78.7616 112.224 78.707 112.53C78.5457 113.094 78.3844 113.645 78.2231 114.183C78.0861 114.628 78.0048 115.088 77.9812 115.554C77.9507 115.813 77.8967 116.07 77.82 116.32C77.8179 116.415 77.8044 116.51 77.7796 116.602C77.7517 116.748 77.7382 116.896 77.7393 117.045C77.7387 117.319 77.6979 117.59 77.6184 117.852C77.5897 118.046 77.5355 118.236 77.4571 118.416C77.4565 118.472 77.4427 118.528 77.4168 118.577C77.4167 118.631 77.4167 118.685 77.4168 118.739C77.4167 118.873 77.4167 119.021 77.4168 119.182C77.4167 119.236 77.4167 119.29 77.4168 119.343C77.4167 119.478 77.4167 119.626 77.4168 119.787C77.4167 119.841 77.4167 119.894 77.4168 119.948C77.4974 120.136 77.5781 120.338 77.6587 120.553C77.7124 120.714 77.7661 120.876 77.82 121.037C77.9028 121.201 78.0117 121.351 78.1425 121.48C78.1917 121.5 78.2237 121.548 78.2231 121.601L78.6263 121.924C79.3643 122.694 80.2771 123.275 81.2874 123.617C82.2281 123.913 83.1689 124.195 84.1097 124.464H85.7627C87.0449 124.117 88.2985 123.673 89.5124 123.133C89.981 122.933 90.4514 122.731 90.9235 122.529C90.672 123.091 90.4032 123.628 90.1172 124.141C89.5089 125.254 88.7787 126.295 87.94 127.246C85.2538 130.255 81.3668 131.91 77.3362 131.762C73.9494 131.762 71.3556 130.955 69.5547 129.343C68.448 128.426 67.7163 127.134 67.4984 125.714C67.2398 124.018 67.0782 122.308 67.0146 120.593C67.0146 119.223 67.2834 116.185 67.821 111.481C67.9261 109.681 67.9126 107.877 67.7806 106.079C67.7363 105.453 67.6691 104.835 67.579 104.224C67.1733 101.956 66.2941 99.7991 64.9986 97.8939C64.8329 97.784 64.6575 97.6895 64.4745 97.6117C64.3457 97.5338 64.2109 97.4664 64.0713 97.4101C63.5912 97.2493 63.0851 97.1809 62.5795 97.2085C62.4584 97.2124 62.3375 97.2124 62.2167 97.2085C62.1064 96.4587 62.12 95.696 62.257 94.9506C62.4652 93.7523 63.112 92.6744 64.0713 91.9267C64.4416 91.2623 64.9183 90.663 65.4825 90.1527C66.8044 88.9216 68.5168 88.1938 70.3207 88.0965Z" fill="#1E1F26"/>
<path d="M74.5541 88.5802C74.6543 88.5213 74.7619 88.4541 74.8767 88.3786C75.8957 87.8542 76.9305 87.3301 77.9812 86.8062C78.0882 86.8685 78.1957 86.9357 78.3038 87.0077L78.4247 87.1287C78.2325 87.3186 78.0694 87.536 77.9409 87.7738C77.8502 87.8333 77.756 87.8872 77.6587 87.9351C77.4721 88.2019 77.2702 88.4577 77.0539 88.7011C76.7327 89.0756 76.4491 89.4807 76.2072 89.9107C72.7518 93.5772 68.7868 96.7275 64.4342 99.2646C62.2657 99.796 60.0517 100.12 57.8219 100.232L57.3381 99.9097L56.9349 99.5872C56.8208 99.5008 56.713 99.4065 56.6123 99.305C56.5322 99.1979 56.4371 99.1029 56.3301 99.0227C56.3017 98.9111 56.2611 98.8029 56.2091 98.7002L56.0479 98.3776C55.9916 98.2912 55.9507 98.1957 55.9269 98.0954C55.9031 97.995 55.8622 97.8996 55.8059 97.8132V96.6036C55.8579 96.5008 55.8985 96.3927 55.9269 96.281C55.9507 96.1807 55.9916 96.0852 56.0479 95.9988L56.1688 95.7569C59.2331 95.2367 62.2155 94.3149 65.0389 93.0152C65.6683 92.8769 66.2778 92.6602 66.8533 92.3701C67.2057 92.1519 67.5425 91.9094 67.8612 91.6444C69.046 91.2844 70.1936 90.8119 71.2883 90.2332C71.8719 89.9285 72.4632 89.6194 73.0624 89.3059C73.5793 89.1067 74.0783 88.8639 74.5541 88.5802Z" fill="black"/>
</g>
<g clip-path="url(#clip1_118_688)">
<path d="M152.413 268.897C152.981 269.88 153.763 270.721 154.702 271.359C155.64 271.996 156.711 272.414 157.833 272.58C161.073 273.174 164.404 273.035 167.583 272.175C170.718 270.672 174.265 270.259 177.661 271.002C177.632 272.31 177.779 273.617 178.097 274.886C178.375 276.067 178.829 277.199 179.443 278.245C180.688 278.045 181.828 277.869 182.863 277.719C185.206 277.363 187.073 277.121 188.466 276.99C189.889 276.904 191.296 276.631 192.649 276.181C193.13 275.947 193.646 275.797 194.177 275.736C194.505 274.874 194.737 273.978 194.868 273.065C195.013 272.424 195.122 271.776 195.196 271.123L195.05 268.816C194.045 264.817 192.681 260.917 190.976 257.162C190.562 257.565 190.124 257.943 189.666 258.295C186.15 257.914 180.911 257.954 173.95 258.417C166.991 258.883 162.165 259.558 159.47 260.44C156.801 261.326 154.957 262.662 153.941 264.446C153.945 264.459 153.945 264.474 153.941 264.487C153.933 264.504 153.92 264.518 153.904 264.527C153.82 264.692 153.735 264.854 153.649 265.013C153.064 266.246 152.647 267.552 152.413 268.897V268.897Z" fill="#0A4D2E"/>
<path d="M158.684 271.882C157.516 271.658 156.417 271.163 155.476 270.438C154.535 269.712 153.776 268.776 153.263 267.704C153.157 268.514 153.072 269.356 153.008 270.229C152.841 273.263 153.423 275.681 154.754 277.483C155.57 278.625 156.653 279.548 157.909 280.173C159.165 280.797 160.556 281.103 161.958 281.064C164.723 281.064 168.931 280.513 174.582 279.411C176.676 278.995 178.58 278.628 180.293 278.309C179.673 277.106 179.221 275.824 178.947 274.499C178.628 273.052 178.482 271.572 178.511 270.091C175.104 269.25 171.505 269.726 168.433 271.423C165.275 272.398 161.92 272.556 158.684 271.882V271.882Z" fill="#11802D"/>
<path d="M151.806 259.967C148.606 263.19 147.005 267.628 147.004 273.282C147.004 276.41 148.386 279.175 151.151 281.577C154.377 284.39 158.743 285.797 164.248 285.797C164.966 285.802 165.684 285.754 166.395 285.651C170.081 285.093 173.343 284.608 176.181 284.196C181.614 283.42 186.877 282.923 191.97 282.704C194.468 282.583 196.105 282.195 196.881 281.54C197.328 281.184 197.71 280.753 198.009 280.267C198.167 279.887 198.242 279.477 198.228 279.066C198.175 278.452 197.962 277.862 197.609 277.356C197.026 276.405 196.143 275.676 195.099 275.283C194.572 275.337 194.057 275.472 193.571 275.683C192.21 276.089 190.805 276.333 189.387 276.411C187.995 276.527 186.128 276.746 183.785 277.065C182.749 277.201 181.609 277.358 180.365 277.538C178.652 277.791 176.748 278.082 174.653 278.411C170.481 279.14 166.262 279.578 162.029 279.721C160.696 279.783 159.365 279.562 158.124 279.073C156.882 278.584 155.758 277.838 154.826 276.883C153.494 275.455 152.912 273.539 153.079 271.135C153.143 270.443 153.228 269.776 153.334 269.134C153.573 267.916 153.989 266.739 154.571 265.642C154.657 265.499 154.742 265.354 154.826 265.205C154.841 265.197 154.854 265.185 154.862 265.169C154.865 265.163 154.866 265.157 154.866 265.151C154.866 265.145 154.865 265.138 154.862 265.133C155.879 263.528 157.722 262.328 160.392 261.531C163.086 260.738 167.913 260.131 174.871 259.712C181.832 259.296 187.071 259.26 190.588 259.603C191.043 259.288 191.48 258.948 191.897 258.584C193.4 256.404 192.66 255.057 189.678 254.546C186.7 254.03 180.442 254.005 170.906 254.473C161.37 254.941 155.003 256.772 151.806 259.967Z" fill="#052519"/>
<path d="M246.84 240.209C246.412 236.192 245.67 232.214 244.621 228.313C242.996 221.691 240.85 216.695 238.182 213.324C235.321 209.08 232.338 205.939 229.232 203.901C226.152 201.888 223.654 201.052 221.738 201.391C216.208 202.337 212.522 203.574 210.678 205.102C210.179 205.453 209.798 205.948 209.587 206.521C209.516 206.719 209.504 206.934 209.551 207.139C209.703 208.488 209.995 209.817 210.424 211.105C211.394 214.427 212.279 217.835 213.079 221.328C213.371 222.589 214.498 226.857 216.463 234.133C218.282 241.41 219.191 246.648 219.191 249.85C219.132 253.221 218.877 256.586 218.427 259.927C218.355 262.959 219.361 264.802 221.447 265.457C223.356 265.909 225.307 266.165 227.268 266.221C229.281 266.367 231.076 266.439 232.652 266.439C235.829 266.442 238.691 264.599 241.238 260.909C243.809 257.214 245.313 254.376 245.749 252.396C246.209 250.419 246.561 248.563 246.804 246.83C247.053 244.631 247.065 242.411 246.841 240.209M230.069 212.342C231.588 214.211 232.962 216.193 234.18 218.272C235.895 221.108 237.24 224.152 238.182 227.33C238.327 227.864 238.8 229.319 239.601 231.696C240.364 235.233 240.718 238.847 240.656 242.465C240.624 245.765 240.084 249.042 239.055 252.178C238.544 253.957 237.745 255.641 236.69 257.162L235.09 258.872C234.034 259.707 232.725 260.156 231.379 260.145C229.143 259.905 226.897 259.784 224.648 259.782C225.037 252.215 225.146 247.716 224.976 246.285C224.405 244.079 223.956 241.845 223.63 239.591C223.242 236.874 223.023 235.358 222.975 235.043C222.951 234.946 222.72 234.158 222.284 232.678C218.282 219.63 216.281 211.747 216.281 209.031C216.281 208.907 216.451 208.75 216.79 208.558C217.542 208.185 218.32 207.869 219.119 207.612C219.409 207.511 219.688 207.414 219.955 207.321C221.61 206.818 223.381 206.856 225.012 207.43C225.74 207.721 227.425 209.358 230.069 212.342H230.069Z" fill="#052519"/>
<path d="M235.926 230.896C235.854 230.653 235.781 230.386 235.708 230.095C234.936 226.953 233.826 223.903 232.397 221C231.137 218.381 229.425 216.004 227.341 213.979C227.34 213.928 227.328 213.878 227.304 213.833C227.3 213.795 227.287 213.757 227.268 213.724C226.976 213.286 226.634 212.883 226.249 212.523C224.503 210.947 222.684 209.431 220.792 207.976C220.521 207.761 220.242 207.543 219.955 207.321C219.688 207.414 219.409 207.511 219.119 207.612C218.32 207.869 217.542 208.185 216.79 208.558C216.451 208.75 216.281 208.907 216.281 209.031C216.281 211.747 218.282 219.63 222.284 232.678C222.72 234.158 222.951 234.946 222.975 235.043C223.023 235.358 223.242 236.874 223.63 239.59C223.956 241.845 224.405 244.079 224.976 246.284C225.146 247.715 225.037 252.214 224.648 259.782C226.897 259.784 229.143 259.905 231.379 260.145C232.725 260.156 234.034 259.707 235.09 258.872L236.69 257.162C235.725 256.587 234.729 256.065 233.707 255.598C233.78 255.452 233.853 255.319 233.925 255.198C233.972 255.105 234.009 255.007 234.035 254.907C234.06 254.824 234.073 254.738 234.071 254.652C234.403 254.375 234.622 253.987 234.689 253.561C234.763 253.001 234.935 252.459 235.199 251.96C235.485 251.398 235.623 250.771 235.599 250.141C235.673 249.967 235.722 249.783 235.744 249.595C235.769 249.45 235.793 249.316 235.817 249.195C235.843 249.094 235.879 248.997 235.926 248.904C235.926 248.88 235.926 248.843 235.926 248.795C235.926 248.746 235.926 248.698 235.926 248.649C235.975 248.455 236.023 248.273 236.072 248.104C236.12 247.885 236.181 247.655 236.254 247.412C236.327 247.243 236.399 247.061 236.472 246.867C236.496 246.552 236.496 246.236 236.472 245.921C236.446 245.505 236.483 245.088 236.581 244.684C236.677 244.328 236.714 243.96 236.69 243.592C236.863 243.015 236.936 242.412 236.909 241.81C236.884 241.034 236.884 240.27 236.909 239.518C236.935 238.687 236.861 237.857 236.69 237.044C236.69 236.777 236.69 236.51 236.69 236.243C236.691 235.963 236.667 235.683 236.618 235.407C236.595 235.222 236.559 235.04 236.508 234.861C236.509 234.813 236.509 234.764 236.508 234.716C236.509 234.546 236.509 234.364 236.508 234.17C236.51 234.036 236.497 233.901 236.472 233.77C236.472 233.673 236.472 233.588 236.472 233.515C236.4 233.325 236.34 233.13 236.29 232.933C236.239 232.708 236.166 232.488 236.072 232.278C236.027 232.147 235.991 232.013 235.963 231.878C235.963 231.781 235.963 231.684 235.963 231.587C235.964 231.501 235.952 231.415 235.926 231.332C235.926 231.235 235.926 231.138 235.926 231.041C235.926 230.993 235.926 230.944 235.926 230.896Z" fill="#0A4D2E"/>
<path d="M234.18 218.272C232.962 216.194 231.588 214.211 230.069 212.342C227.425 209.359 225.74 207.721 225.012 207.43C223.381 206.856 221.61 206.818 219.955 207.321C220.242 207.543 220.521 207.761 220.792 207.976C222.684 209.431 224.503 210.947 226.249 212.524C226.634 212.883 226.976 213.286 227.268 213.724C227.287 213.758 227.3 213.795 227.304 213.833C227.328 213.878 227.34 213.928 227.341 213.979C229.425 216.005 231.137 218.381 232.397 221C233.826 223.904 234.936 226.953 235.708 230.095C235.781 230.386 235.854 230.653 235.926 230.896C235.926 230.944 235.926 230.993 235.926 231.041C235.926 231.138 235.926 231.235 235.926 231.332C235.952 231.415 235.964 231.501 235.963 231.587C235.963 231.684 235.963 231.781 235.963 231.878C235.991 232.014 236.027 232.147 236.072 232.278C236.166 232.489 236.239 232.708 236.29 232.933C236.34 233.13 236.4 233.325 236.472 233.515C236.472 233.588 236.472 233.673 236.472 233.77C236.497 233.902 236.51 234.036 236.508 234.17C236.509 234.364 236.509 234.546 236.508 234.716C236.509 234.764 236.509 234.813 236.508 234.861C236.559 235.04 236.595 235.222 236.618 235.407C236.667 235.683 236.691 235.963 236.69 236.244C236.69 236.51 236.69 236.777 236.69 237.044C236.861 237.857 236.935 238.688 236.909 239.518C236.884 240.27 236.884 241.034 236.909 241.81C236.936 242.412 236.863 243.015 236.69 243.593C236.714 243.96 236.677 244.329 236.581 244.684C236.483 245.088 236.446 245.505 236.472 245.921C236.496 246.236 236.496 246.552 236.472 246.867C236.399 247.061 236.327 247.243 236.254 247.412C236.181 247.655 236.12 247.885 236.072 248.104C236.023 248.273 235.975 248.455 235.926 248.649C235.926 248.698 235.926 248.746 235.926 248.795C235.926 248.843 235.926 248.88 235.926 248.904C235.88 248.997 235.843 249.094 235.817 249.195C235.793 249.316 235.769 249.45 235.744 249.595C235.722 249.783 235.673 249.967 235.599 250.141C235.623 250.772 235.485 251.398 235.199 251.96C234.935 252.459 234.763 253.001 234.689 253.561C234.622 253.987 234.403 254.375 234.071 254.652C234.073 254.738 234.06 254.824 234.035 254.907C234.009 255.008 233.972 255.105 233.925 255.198C233.853 255.319 233.78 255.453 233.707 255.598C234.729 256.065 235.725 256.587 236.69 257.162C237.745 255.641 238.544 253.957 239.055 252.178C240.084 249.042 240.624 245.766 240.656 242.465C240.718 238.847 240.364 235.233 239.601 231.696C238.8 229.319 238.327 227.864 238.182 227.33C237.24 224.152 235.895 221.108 234.18 218.272V218.272Z" fill="#11802D"/>
<path d="M232.87 256.835C233.283 254.458 233.489 250.395 233.489 244.647C233.47 238.422 232.438 232.241 230.433 226.348C228.008 218.861 223.901 212.029 218.427 206.375C217.342 205.179 216.162 204.072 214.899 203.065C214.266 202.654 213.405 202.072 212.315 201.318C210.501 200.248 208.573 199.381 206.567 198.735C203.424 197.668 200.136 197.091 196.817 197.025C192.584 196.931 188.359 197.433 184.266 198.517C179.663 199.659 176.061 201.442 173.461 203.865C170.698 206.542 168.388 209.651 166.622 213.069C164.656 216.806 163.674 220.226 163.675 223.328C163.675 226.554 164.96 231.793 167.531 239.045C170.078 246.297 171.351 250.965 171.351 253.051C171.351 258.338 171.763 262.328 172.588 265.02C173.776 268.949 176.554 274.006 180.919 280.191C180.287 280.16 179.656 280.259 179.064 280.482L188.559 288.559C199.376 287.904 207.368 286.339 212.534 283.865C218.888 280.834 224.079 275.498 228.105 267.858C230.503 264.589 232.132 260.821 232.87 256.835M176.735 208.012C177.097 207.601 177.528 207.257 178.009 206.994C178.024 206.981 178.041 206.971 178.06 206.964C178.078 206.958 178.098 206.956 178.118 206.957C179.597 206.133 181.101 205.369 182.629 204.665C183.743 204.14 184.915 203.75 186.122 203.501H186.522C188.069 203.195 189.639 203.013 191.215 202.955H192.306C195.5 202.9 198.694 203.022 201.874 203.319C203.6 203.526 205.283 204.005 206.858 204.738C208.516 205.592 210.056 206.656 211.442 207.903C213.113 209.336 214.023 210.112 214.171 210.231C216.063 211.784 218.658 215.967 221.956 222.783C225.303 229.671 226.977 234.388 226.977 236.935C227.001 237.851 227.098 238.763 227.268 239.663C227.464 240.804 227.73 243.314 228.068 247.194C228.377 251.334 227.959 255.495 226.831 259.491C226.3 261.416 225.491 263.255 224.43 264.948V264.948C224.229 265.303 224.011 265.654 223.775 266.003L217.118 274.188C217.074 274.242 217.026 274.29 216.972 274.334C216.917 274.399 216.856 274.46 216.79 274.516C216.593 274.494 215.271 275.1 212.825 276.335C212.245 276.627 211.602 276.954 210.897 277.317C205.342 280.153 200.442 281.62 196.199 281.719C192.876 280.482 191.021 279.779 190.633 279.609C189.258 279.059 187.951 278.351 186.74 277.499C185.409 276.574 184.21 275.472 183.175 274.225C182.919 273.931 182.689 273.665 182.484 273.424C182.256 273.141 182.062 272.887 181.901 272.66C181.77 272.498 181.649 272.328 181.538 272.151C181.491 272.072 180.97 271.09 179.973 269.204C178.858 266.938 178.027 264.543 177.499 262.074C176.861 259.303 176.508 256.475 176.444 253.633C176.423 250.956 176.229 248.282 175.862 245.63C175.062 240.051 173.764 235.54 171.97 232.096C170.522 229.259 169.785 226.113 169.823 222.928C169.806 219.282 170.87 215.712 172.879 212.669C173.493 211.735 174.174 210.848 174.916 210.013C174.968 209.955 175.017 209.895 175.062 209.831C175.221 209.67 175.379 209.513 175.535 209.358C175.608 209.283 175.68 209.211 175.753 209.14C175.849 208.996 175.959 208.862 176.081 208.74C176.121 208.721 176.157 208.697 176.19 208.667C176.36 208.449 176.541 208.231 176.735 208.012M195.762 281.719C195.19 281.613 194.645 281.39 194.162 281.064L196.163 281.719H195.762Z" fill="#052519"/>
<path d="M194.162 281.064C194.645 281.39 195.19 281.613 195.762 281.719H196.163L194.162 281.064ZM181.865 206.666C181.453 207.03 181.053 207.394 180.665 207.758C180.325 208.073 179.985 208.4 179.646 208.74C179.635 208.749 179.627 208.76 179.62 208.773C179.614 208.785 179.61 208.799 179.609 208.813L179.537 208.958C179.51 209.034 179.459 209.098 179.391 209.14L179.318 209.213C179.317 209.291 179.291 209.367 179.246 209.431C178.982 209.812 178.774 210.229 178.627 210.668C178.578 210.744 178.553 210.832 178.554 210.923C178.524 211.018 178.5 211.115 178.482 211.214C178.457 211.311 178.433 211.42 178.409 211.541V211.614C178.36 211.881 178.324 212.147 178.3 212.414C178.3 212.462 178.3 212.511 178.3 212.56C178.312 212.609 178.324 212.657 178.336 212.705C178.483 213.218 178.592 213.741 178.664 214.27C178.926 214.881 179.132 215.514 179.282 216.161C179.361 216.492 179.446 216.819 179.537 217.144C179.591 217.268 179.651 217.39 179.719 217.508C180.23 218.798 181.011 219.964 182.011 220.927C182.876 221.688 183.497 222.688 183.793 223.801C183.959 223.966 184.105 224.149 184.23 224.347C184.284 224.429 184.332 224.514 184.375 224.602L184.521 224.893C186.838 227.85 188.702 231.136 190.051 234.643C191.546 238.566 192.714 242.606 193.543 246.721C193.667 246.971 193.741 247.243 193.761 247.521C193.786 247.812 193.822 248.091 193.871 248.358C193.896 248.539 193.908 248.721 193.907 248.904C193.956 249.074 194.016 249.256 194.089 249.45C194.137 249.619 194.198 249.801 194.271 249.995C194.344 250.262 194.428 250.529 194.525 250.796C194.621 251.434 194.67 252.078 194.671 252.724C194.719 253.645 194.732 254.555 194.707 255.452V255.707C194.754 255.8 194.791 255.897 194.817 255.998C194.841 256.095 194.865 256.18 194.889 256.253C194.864 256.534 194.889 256.817 194.962 257.089C195.011 257.356 195.059 257.623 195.108 257.89C195.156 258.084 195.205 258.266 195.253 258.436C195.301 259.185 195.423 259.929 195.617 260.655C195.888 261.708 196.317 262.714 196.89 263.638C199.889 267.486 202.994 269.79 206.204 270.55C209.626 271.308 213.179 271.245 216.572 270.368C219.411 269.97 222.03 268.163 224.43 264.948C225.491 263.255 226.3 261.416 226.831 259.491C227.959 255.495 228.377 251.334 228.068 247.194C227.73 243.314 227.463 240.803 227.268 239.663C227.098 238.763 227.001 237.85 226.977 236.935C226.977 234.388 225.303 229.671 221.956 222.783C218.658 215.967 216.063 211.784 214.171 210.231C214.023 210.112 213.113 209.336 211.442 207.903C210.056 206.656 208.516 205.592 206.858 204.738C205.283 204.005 203.6 203.526 201.874 203.319C198.694 203.022 195.5 202.9 192.306 202.955H191.215V202.992C191.175 203.01 191.138 203.035 191.106 203.064L191.033 203.137C190.993 203.156 190.956 203.18 190.924 203.21C189.47 203.23 188.025 203.451 186.631 203.865C185.734 204.156 184.859 204.508 184.012 204.92C183.26 205.478 182.544 206.06 181.865 206.666H181.865Z" fill="#11802D"/>
<path d="M178.009 206.994C177.528 207.257 177.097 207.601 176.735 208.012C176.541 208.23 176.359 208.449 176.19 208.667C176.157 208.697 176.121 208.721 176.081 208.74C175.958 208.862 175.849 208.996 175.753 209.14C175.68 209.21 175.608 209.283 175.535 209.358C175.378 209.513 175.221 209.67 175.062 209.831C175.017 209.895 174.968 209.955 174.916 210.013C174.174 210.848 173.493 211.735 172.879 212.669C170.87 215.712 169.806 219.282 169.823 222.928C169.785 226.113 170.522 229.259 171.97 232.096C173.764 235.54 175.062 240.051 175.862 245.63C176.229 248.282 176.423 250.956 176.444 253.633C176.508 256.475 176.861 259.303 177.499 262.074C178.027 264.543 178.858 266.938 179.973 269.204C180.969 271.09 181.491 272.072 181.538 272.151C181.649 272.328 181.77 272.498 181.901 272.66C182.062 272.887 182.256 273.141 182.484 273.424C182.689 273.664 182.919 273.931 183.175 274.225C184.21 275.472 185.409 276.574 186.74 277.499C187.951 278.351 189.258 279.059 190.633 279.609C191.021 279.779 192.876 280.482 196.199 281.719C200.442 281.62 205.342 280.153 210.897 277.317C211.602 276.954 212.245 276.627 212.825 276.335C215.271 275.1 216.593 274.494 216.79 274.516C216.856 274.46 216.917 274.399 216.972 274.334C217.026 274.29 217.074 274.242 217.118 274.188L223.775 266.003C224.011 265.654 224.229 265.303 224.43 264.948C222.03 268.163 219.411 269.97 216.572 270.368C213.178 271.245 209.626 271.308 206.204 270.55C202.994 269.79 199.889 267.486 196.89 263.638C196.317 262.714 195.888 261.708 195.617 260.655C195.423 259.929 195.301 259.185 195.253 258.435C195.205 258.266 195.156 258.084 195.108 257.89C195.059 257.623 195.011 257.356 194.962 257.089C194.889 256.817 194.864 256.534 194.889 256.253C194.865 256.18 194.841 256.095 194.816 255.998C194.791 255.897 194.754 255.8 194.707 255.707V255.452C194.732 254.555 194.719 253.645 194.671 252.724C194.67 252.078 194.621 251.434 194.525 250.796C194.428 250.529 194.344 250.262 194.271 249.995C194.198 249.801 194.137 249.619 194.089 249.45C194.016 249.255 193.955 249.074 193.907 248.904C193.908 248.721 193.896 248.539 193.871 248.358C193.822 248.091 193.786 247.812 193.761 247.521C193.741 247.243 193.667 246.971 193.543 246.721C192.714 242.606 191.546 238.566 190.051 234.643C188.702 231.136 186.838 227.85 184.521 224.893L184.375 224.602C184.332 224.514 184.283 224.429 184.23 224.347C184.105 224.149 183.959 223.966 183.793 223.801C183.497 222.688 182.876 221.688 182.011 220.927C181.011 219.964 180.23 218.798 179.719 217.507C179.651 217.39 179.591 217.268 179.537 217.144C179.446 216.819 179.361 216.491 179.282 216.161C179.132 215.514 178.925 214.881 178.664 214.27C178.592 213.741 178.483 213.218 178.336 212.705C178.324 212.657 178.312 212.609 178.3 212.56C178.3 212.511 178.3 212.462 178.3 212.414C178.324 212.147 178.36 211.881 178.409 211.614V211.541C178.433 211.42 178.457 211.311 178.482 211.214C178.5 211.115 178.524 211.018 178.554 210.923C178.553 210.832 178.578 210.744 178.627 210.668C178.774 210.229 178.982 209.812 179.246 209.431C179.291 209.367 179.317 209.291 179.318 209.213L179.391 209.14C179.459 209.098 179.51 209.034 179.537 208.958L179.609 208.813C179.61 208.799 179.614 208.785 179.62 208.773C179.627 208.76 179.635 208.749 179.646 208.74C179.985 208.4 180.325 208.073 180.664 207.758C181.053 207.394 181.453 207.03 181.865 206.666C182.544 206.06 183.26 205.478 184.012 204.92C184.859 204.508 185.734 204.156 186.631 203.865C188.025 203.451 189.47 203.23 190.924 203.21C190.956 203.18 190.993 203.156 191.033 203.137L191.106 203.064C191.138 203.035 191.175 203.01 191.215 202.992V202.955C189.638 203.013 188.069 203.195 186.522 203.501H186.122C184.915 203.749 183.743 204.14 182.629 204.665C181.101 205.369 179.597 206.133 178.118 206.957C178.098 206.956 178.078 206.958 178.06 206.964C178.041 206.971 178.024 206.981 178.009 206.994V206.994Z" fill="#0A4D2E"/>
<path d="M161.565 223.838C160.326 225.629 159.7 227.773 159.782 229.95C159.782 236.571 161.395 241.798 164.621 245.63C167.871 249.51 172.382 251.451 178.154 251.451C188.923 251.451 197.436 249.547 203.693 245.739C209.466 242.222 212.352 237.772 212.352 232.387C212.352 229.428 210.885 226.093 207.95 222.383C205.591 219.383 203.02 217.419 200.237 216.489C200.053 216.479 199.859 216.467 199.655 216.453C197.809 216.329 195.956 216.402 194.125 216.671C191.079 217.649 187.392 218.704 183.066 219.836C177.585 221.308 172.916 221.951 169.059 221.764C165.203 221.573 162.705 222.264 161.565 223.838M166.367 227.803C166.992 227.304 168.326 227.122 170.369 227.258C170.679 227.276 171.006 227.289 171.351 227.294C171.447 227.294 171.532 227.294 171.606 227.294L175.389 227.076C176.961 226.951 178.78 226.745 180.846 226.457C182.226 226.232 183.584 225.965 184.921 225.657C185.527 225.511 188.535 224.408 193.943 222.346C194.458 222.139 194.996 221.993 195.544 221.91C196.63 221.774 197.725 221.725 198.818 221.764C200.349 221.81 202.18 223.592 204.312 227.112C205.359 228.782 206.156 230.596 206.677 232.496C206.795 233.207 206.795 233.932 206.677 234.643C206.627 235.136 206.529 235.623 206.386 236.098C206.048 237.38 204.544 238.956 201.874 240.827C201.738 240.948 201.592 241.058 201.438 241.155C198.566 243.142 193.654 244.439 186.704 245.048C186.655 245.055 186.606 245.055 186.558 245.048C186.499 245.067 186.438 245.079 186.376 245.084L184.666 245.193C184.608 245.214 184.547 245.226 184.485 245.229C178.498 245.705 174.896 245.789 173.68 245.484C172.561 245.275 171.533 244.729 170.733 243.92C170.081 243.216 169.512 242.598 169.023 242.064C168.313 241.203 167.726 240.248 167.277 239.227C166.786 237.89 166.409 236.515 166.149 235.116C165.688 233.127 165.458 232.048 165.458 231.878C165.459 229.668 165.762 228.31 166.367 227.803L166.367 227.803Z" fill="#091628"/>
<path d="M206.677 234.643C206.795 233.932 206.795 233.207 206.677 232.496C206.156 230.596 205.359 228.782 204.312 227.112C202.18 223.592 200.349 221.81 198.818 221.764C197.725 221.725 196.63 221.774 195.544 221.91C194.995 221.993 194.458 222.139 193.943 222.346C188.535 224.408 185.527 225.511 184.921 225.657C183.584 225.965 182.226 226.232 180.846 226.457C178.78 226.745 176.961 226.951 175.389 227.076C175.548 227.078 175.706 227.066 175.862 227.039C175.782 227.106 175.697 227.167 175.608 227.221C175.517 227.243 175.431 227.28 175.353 227.33C174.968 227.564 174.614 227.845 174.298 228.167C173.957 228.761 173.665 229.381 173.425 230.023C173.189 230.825 173.079 231.66 173.097 232.496C173.041 234.156 173.391 235.805 174.116 237.299C175.28 239.457 177.402 240.961 180.483 241.81C183.642 242.287 186.864 242.164 189.978 241.446C194.397 240.434 198.7 238.971 202.82 237.08C203.281 236.862 203.742 236.632 204.203 236.389C205.1 235.917 205.931 235.33 206.677 234.643ZM195.581 223.001C195.679 223.001 195.776 222.989 195.872 222.965C196.391 222.872 196.925 222.896 197.435 223.035C197.944 223.173 198.417 223.422 198.818 223.765C199.101 223.982 199.334 224.257 199.503 224.57C199.672 224.883 199.774 225.229 199.801 225.584V225.73C199.777 225.775 199.765 225.824 199.764 225.875C199.764 225.924 199.764 225.96 199.764 225.984C199.764 226.033 199.764 226.081 199.764 226.13L199.691 226.275C199.667 226.372 199.617 226.46 199.546 226.53C199.498 226.627 199.449 226.724 199.4 226.821C199.328 226.918 199.267 227.003 199.219 227.076C199.175 227.118 199.138 227.167 199.109 227.221C198.736 227.602 198.252 227.856 197.727 227.949C196.611 228.167 195.496 228.398 194.38 228.64C191.138 229.986 187.589 230.414 184.121 229.877C183.921 229.864 183.731 229.786 183.579 229.655C183.428 229.523 183.324 229.346 183.284 229.149V228.858C183.261 228.813 183.248 228.764 183.248 228.713V228.313C183.248 228.262 183.261 228.212 183.284 228.167V228.058C183.307 228.013 183.32 227.963 183.32 227.912L183.393 227.767C183.394 227.716 183.406 227.666 183.429 227.621C183.477 227.598 183.515 227.56 183.539 227.512C183.582 227.47 183.619 227.421 183.648 227.367L183.793 227.221C185.843 226.829 187.835 226.181 189.723 225.293C190.78 224.802 191.861 224.365 192.961 223.983L193.325 223.765C193.756 223.524 194.223 223.353 194.707 223.256C194.998 223.183 195.289 223.098 195.581 223.001Z" fill="#90C3D0"/>
<path d="M195.872 222.965C195.776 222.989 195.679 223.001 195.581 223.001C195.289 223.098 194.998 223.183 194.707 223.256C194.223 223.353 193.756 223.525 193.325 223.765L192.961 223.983C191.861 224.365 190.78 224.803 189.723 225.293C187.835 226.181 185.843 226.829 183.793 227.221L183.648 227.367C183.619 227.421 183.583 227.47 183.539 227.512C183.515 227.56 183.477 227.598 183.429 227.621C183.406 227.666 183.394 227.716 183.393 227.767L183.32 227.913C183.32 227.963 183.307 228.013 183.284 228.058V228.167C183.261 228.212 183.248 228.262 183.248 228.313V228.713C183.248 228.764 183.261 228.813 183.284 228.858V229.149C183.324 229.346 183.428 229.523 183.579 229.655C183.731 229.786 183.921 229.864 184.121 229.877C187.589 230.414 191.138 229.986 194.38 228.64C195.496 228.398 196.611 228.167 197.727 227.949C198.252 227.856 198.736 227.602 199.109 227.221C199.138 227.167 199.175 227.118 199.219 227.076C199.267 227.003 199.328 226.918 199.4 226.821C199.449 226.724 199.497 226.627 199.546 226.53C199.617 226.46 199.667 226.372 199.692 226.275L199.764 226.13C199.764 226.081 199.764 226.033 199.764 225.984C199.764 225.96 199.764 225.924 199.764 225.875C199.765 225.825 199.777 225.775 199.801 225.73V225.584C199.774 225.229 199.672 224.884 199.503 224.57C199.334 224.257 199.101 223.983 198.818 223.765C198.417 223.423 197.944 223.173 197.435 223.035C196.925 222.896 196.391 222.872 195.872 222.965V222.965Z" fill="white"/>
<path d="M170.369 227.258C168.326 227.122 166.992 227.304 166.367 227.803C165.762 228.31 165.459 229.668 165.458 231.878C165.458 232.048 165.688 233.127 166.149 235.116C166.409 236.515 166.786 237.89 167.277 239.227C167.726 240.248 168.313 241.203 169.023 242.064C169.511 242.598 170.081 243.216 170.733 243.92C171.533 244.729 172.561 245.275 173.679 245.484C174.896 245.79 178.498 245.705 184.484 245.23C184.547 245.226 184.608 245.214 184.666 245.193L186.376 245.084C186.438 245.079 186.499 245.067 186.558 245.048C186.606 245.055 186.655 245.055 186.704 245.048C193.654 244.439 198.566 243.142 201.438 241.155C201.592 241.058 201.738 240.948 201.874 240.827C204.544 238.956 206.048 237.38 206.386 236.098C206.529 235.624 206.627 235.136 206.677 234.643C205.931 235.33 205.1 235.917 204.203 236.389C203.742 236.632 203.281 236.862 202.82 237.08C198.7 238.971 194.397 240.434 189.978 241.446C186.864 242.164 183.642 242.287 180.483 241.81C177.402 240.961 175.28 239.457 174.116 237.299C173.391 235.805 173.041 234.156 173.097 232.496C173.079 231.66 173.189 230.825 173.425 230.023C173.665 229.381 173.957 228.761 174.298 228.167C174.614 227.845 174.968 227.564 175.353 227.33C175.431 227.28 175.517 227.243 175.608 227.221C175.697 227.167 175.782 227.106 175.862 227.039C175.706 227.066 175.548 227.078 175.389 227.076L171.606 227.294C171.532 227.294 171.447 227.294 171.351 227.294C171.006 227.289 170.679 227.277 170.369 227.258Z" fill="#4E7A8D"/>
<path d="M173.117 292.214C173.047 293.234 173.101 294.258 173.278 295.265C173.515 296.185 173.97 297.034 174.602 297.742C175.325 298.651 177.01 299.919 179.659 301.546C180.981 302.352 182.414 302.956 183.913 303.341C184.804 303.579 185.721 303.712 186.643 303.736C189.746 303.736 192.261 303.018 194.188 301.582C194.857 301.056 195.463 300.453 195.994 299.788C196.723 298.82 197.317 297.757 197.76 296.629C197.679 296.749 197.586 296.88 197.479 297.024C197.353 297.113 197.233 297.209 197.117 297.311C196.678 297.685 196.175 297.977 195.632 298.172C195.231 298.34 194.843 298.519 194.469 298.711C194.014 298.711 193.572 298.711 193.144 298.711C192.375 298.468 191.581 298.311 190.776 298.244C190.416 298.216 190.07 298.092 189.773 297.885L189.693 297.742C189.53 297.524 189.325 297.341 189.091 297.203C188.777 297.02 188.493 296.79 188.248 296.521C188.197 296.5 188.155 296.462 188.127 296.414C188.102 296.37 188.088 296.321 188.087 296.27C188.067 296.23 188.039 296.194 188.007 296.162L187.927 296.019C187.901 295.975 187.887 295.926 187.887 295.875V294.942C187.992 294.779 188.06 294.596 188.087 294.404V293.183L188.168 292.896C188.194 292.753 188.221 292.621 188.248 292.501C188.272 292.42 188.286 292.335 188.288 292.25V292.107C188.395 291.843 188.489 291.58 188.569 291.317C188.964 290.11 189.475 288.944 190.094 287.835C190.416 287.26 190.778 286.708 191.178 286.184C191.499 285.993 191.806 285.789 192.101 285.574C192.495 285.317 192.858 285.016 193.184 284.677C193.265 284.605 193.333 284.52 193.385 284.426C193.746 284.197 194.082 283.933 194.388 283.636C194.763 283.253 195.164 282.882 195.592 282.523C195.806 282.332 195.995 282.115 196.154 281.877C196.407 281.677 196.636 281.448 196.836 281.195C197.451 280.43 198.108 279.699 198.803 279.006C199.178 278.647 199.552 278.3 199.927 277.965C201.214 277.006 202.554 276.119 203.94 275.309C205.412 274.471 206.91 273.694 208.435 272.976C210.884 271.814 213.521 271.097 216.221 270.858C216.349 270.95 216.483 271.034 216.622 271.109L216.703 271.253C216.717 271.267 216.728 271.284 216.735 271.302C216.742 271.321 216.744 271.341 216.743 271.361C216.636 271.887 216.529 272.426 216.422 272.976C216.368 273.332 216.342 273.692 216.342 274.053C216.342 274.268 216.342 274.471 216.342 274.663C216.716 274.328 217.144 273.969 217.626 273.586C218.169 273.141 220.031 272.33 219.765 271.407C219.526 271.488 219.295 271.594 219.077 271.722C218.858 271.851 218.611 271.924 218.357 271.936C218.23 271.94 218.105 271.907 217.996 271.842C217.887 271.777 217.799 271.682 217.743 271.568C217.451 270.851 218.679 270.296 219.112 269.992C219.316 269.849 221.202 268.421 221.318 268.525L221.278 268.489C220.898 268.344 220.509 268.224 220.114 268.13C219.851 267.988 219.566 267.891 219.271 267.843C216.997 267.508 214.75 267.185 212.529 266.874C210.917 266.634 209.277 266.658 207.673 266.946C207.403 266.946 207.135 266.922 206.87 266.874C206.793 266.862 206.722 266.824 206.669 266.766C205.546 265.02 203.753 264.266 201.291 264.505C199.824 264.673 198.337 264.551 196.917 264.146C196.87 263.972 196.803 263.803 196.716 263.644C196.658 263.542 196.591 263.446 196.515 263.357L196.395 263.213C196.376 263.184 196.349 263.148 196.315 263.105C195.46 263.473 194.641 263.918 193.867 264.433C192.34 265.442 190.916 266.596 189.612 267.879C189.366 268.119 189.112 268.347 188.85 268.561L188.689 268.705C188.652 268.733 188.612 268.757 188.569 268.776L188.168 269.1C184.493 272.176 181.325 275.809 178.776 279.867C175.699 284.557 174 287.464 173.679 288.589C173.323 289.765 173.134 290.986 173.117 292.214V292.214Z" fill="#0A4D2E"/>
<path d="M193.747 283.4C193.382 283.715 192.988 283.993 192.568 284.23C192.505 284.331 192.426 284.42 192.333 284.494C191.945 284.854 191.518 285.171 191.06 285.437C190.715 285.664 190.353 285.877 189.976 286.079C189.51 286.625 189.085 287.205 188.704 287.814C187.982 288.969 187.382 290.196 186.913 291.474C186.818 291.751 186.708 292.027 186.583 292.304V292.455C186.58 292.545 186.564 292.634 186.535 292.719C186.504 292.845 186.473 292.983 186.441 293.134L186.347 293.436V294.719C186.314 294.923 186.233 295.117 186.111 295.285V296.266C186.112 296.319 186.129 296.372 186.158 296.417C186.19 296.467 186.221 296.517 186.253 296.567C186.29 296.6 186.322 296.638 186.347 296.681C186.348 296.734 186.364 296.787 186.394 296.832C186.428 296.884 186.477 296.923 186.535 296.945C186.828 297.231 187.162 297.473 187.525 297.662C187.795 297.802 188.036 297.995 188.232 298.227L188.326 298.378C188.683 298.598 189.087 298.728 189.505 298.756C190.446 298.825 191.378 298.99 192.286 299.246C192.788 299.246 193.307 299.246 193.841 299.246C194.281 299.045 194.737 298.856 195.208 298.68C195.836 298.479 196.426 298.173 196.952 297.775C197.088 297.667 197.229 297.566 197.376 297.473C197.502 297.322 197.612 297.184 197.706 297.058C198.68 294.819 199.346 292.458 199.685 290.04C199.829 288.756 200.336 287.538 201.147 286.531C202.529 285.299 203.896 284.066 205.247 282.834C213.668 277.979 218.287 275.15 219.104 274.345C219.239 274.211 219.38 274.085 219.528 273.968C219.528 273.766 219.528 273.553 219.528 273.326C219.529 272.947 219.56 272.568 219.623 272.194C219.748 271.616 219.874 271.05 220 270.496C220.001 270.475 219.998 270.454 219.99 270.434C219.981 270.415 219.969 270.397 219.953 270.383L219.858 270.232C219.696 270.154 219.539 270.066 219.387 269.968C216.239 270.214 213.152 270.965 210.243 272.194C208.452 272.949 206.693 273.766 204.964 274.647C203.345 275.493 201.772 276.425 200.251 277.439C199.811 277.791 199.371 278.156 198.931 278.533C198.12 279.257 197.349 280.025 196.622 280.834C196.383 281.103 196.114 281.343 195.821 281.551C195.63 281.805 195.409 282.033 195.161 282.23C194.658 282.607 194.187 282.997 193.747 283.4Z" fill="#11802D"/>
<path d="M174.02 294.848C173.853 293.868 173.802 292.872 173.868 291.88C173.884 290.686 174.062 289.499 174.398 288.353C174.701 287.259 176.304 284.431 179.206 279.868C181.596 275.936 184.585 272.402 188.065 269.393L188.444 269.078C188.484 269.06 188.522 269.036 188.557 269.008L188.709 268.869C188.956 268.66 189.196 268.439 189.428 268.205C190.653 266.96 191.997 265.837 193.441 264.853C194.169 264.352 194.943 263.92 195.75 263.561L195.561 263.282C195.283 263.119 194.993 262.956 194.69 262.793C194.294 262.585 193.85 262.489 193.403 262.514C192.429 262.644 191.466 262.855 190.526 263.142C185.3 264.585 180.663 267.64 177.275 271.872C173.767 276.807 171.319 280.892 169.931 284.128C169.277 285.586 168.819 287.124 168.568 288.702C168.18 290.638 167.927 292.598 167.811 294.569C167.811 297.874 169.716 300.982 173.527 303.892C177.711 307.073 182.848 308.746 188.103 308.641C191.469 308.719 194.763 307.661 197.454 305.638C200.558 303.263 202.414 299.806 203.019 295.267C203.111 294.712 203.237 294.164 203.398 293.626C203.6 292.834 203.713 292.357 203.739 292.194C203.934 291.21 204.265 290.258 204.723 289.366C205.026 288.737 206.048 287.911 207.789 286.887C210.49 285.304 212.345 284.151 213.355 283.43C217.014 280.799 219.488 278.914 220.775 277.773C223.476 275.375 224.839 273.408 224.864 271.872C224.889 271.639 224.914 271.395 224.939 271.138C224.864 270.882 224.801 270.626 224.75 270.37C224.68 270.079 224.551 269.806 224.372 269.567C224.245 269.404 224.119 269.23 223.993 269.043C223.699 268.885 223.396 268.745 223.084 268.624C223.049 268.605 223.011 268.594 222.971 268.589C222.466 268.892 221.961 269.206 221.456 269.532C220.585 270.17 219.674 270.753 218.731 271.278C218.675 271.305 218.624 271.34 218.579 271.383C218.377 271.546 218.188 271.709 218.011 271.872L217.898 271.976C217.817 272.058 217.741 272.14 217.671 272.221L215.853 273.757C215.399 274.13 214.995 274.479 214.642 274.805C214.522 274.915 214.408 275.031 214.301 275.154C213.645 275.899 209.935 278.518 203.171 283.011C202.085 284.151 200.988 285.292 199.877 286.433C199.214 287.396 198.809 288.515 198.703 289.68C198.435 291.901 197.901 294.081 197.113 296.175C196.698 297.269 196.137 298.302 195.448 299.248C194.949 299.893 194.377 300.479 193.744 300.993C191.673 302.469 189.167 303.207 186.626 303.089C185.756 303.065 184.892 302.936 184.052 302.704C182.634 302.329 181.281 301.74 180.039 300.959C177.54 299.376 175.95 298.142 175.269 297.257C174.669 296.563 174.241 295.738 174.02 294.848Z" fill="#052519"/>
</g>
<path d="M148.201 68.9289C150.544 66.5858 150.544 62.7868 148.201 60.4436C145.858 58.1005 142.059 58.1005 139.716 60.4436C137.373 62.7868 137.373 66.5858 139.716 68.9289C142.059 71.2721 145.858 71.2721 148.201 68.9289Z" fill="#FFFDE9"/>
<path d="M182.142 67.5147C183.704 65.9526 183.704 63.4199 182.142 61.8579C180.58 60.2958 178.047 60.2958 176.485 61.8579C174.923 63.4199 174.923 65.9526 176.485 67.5147C178.047 69.0768 180.58 69.0768 182.142 67.5147Z" fill="#D6D5D9"/>
<path d="M171.889 104.638C172.865 103.661 172.865 102.078 171.889 101.102C170.913 100.126 169.33 100.126 168.354 101.102C167.377 102.078 167.377 103.661 168.354 104.638C169.33 105.614 170.913 105.614 171.889 104.638Z" fill="#FFFDE9"/>
<path d="M197.698 90.1422C198.089 89.7516 198.089 89.1185 197.698 88.728C197.308 88.3374 196.675 88.3374 196.284 88.728C195.894 89.1185 195.894 89.7516 196.284 90.1422C196.675 90.5327 197.308 90.5327 197.698 90.1422Z" fill="#FFFDE9"/>
<path d="M13.201 367.429C15.5442 365.086 15.5442 361.287 13.201 358.944C10.8579 356.6 7.05887 356.6 4.71572 358.944C2.37258 361.287 2.37258 365.086 4.71572 367.429C7.05887 369.772 10.8579 369.772 13.201 367.429Z" fill="#FFFDE9"/>
<path d="M47.1421 366.015C48.7042 364.453 48.7042 361.92 47.1421 360.358C45.58 358.796 43.0474 358.796 41.4853 360.358C39.9232 361.92 39.9232 364.453 41.4853 366.015C43.0474 367.577 45.58 367.577 47.1421 366.015Z" fill="#D6D5D9"/>
<path d="M36.8891 403.138C37.8654 402.161 37.8654 400.578 36.8891 399.602C35.9127 398.626 34.3298 398.626 33.3535 399.602C32.3772 400.578 32.3772 402.161 33.3535 403.138C34.3298 404.114 35.9127 404.114 36.8891 403.138Z" fill="#FFFDE9"/>
<path d="M62.6985 388.642C63.089 388.252 63.089 387.618 62.6985 387.228C62.3079 386.837 61.6748 386.837 61.2843 387.228C60.8937 387.618 60.8937 388.252 61.2843 388.642C61.6748 389.033 62.3079 389.033 62.6985 388.642Z" fill="#FFFDE9"/>
<defs>
<clipPath id="clip0_118_688">
<rect width="99.9904" height="141.922" fill="white" transform="translate(0.00482178)"/>
</clipPath>
<clipPath id="clip1_118_688">
<rect width="99.9922" height="111.641" fill="white" transform="translate(147.004 197)"/>
</clipPath>
</defs>
</svg>
