<svg width="207" height="280" viewBox="0 0 207 280" fill="none" xmlns="http://www.w3.org/2000/svg">
<g clip-path="url(#clip0_118_580)">
<path d="M10.4333 22.8759C10.8303 22.8608 11.2256 22.8156 11.6157 22.7407C13.0114 22.4774 14.4215 22.2969 15.8386 22.2002C15.9955 22.4224 16.1768 22.6264 16.3791 22.8083C16.4713 23.063 16.5502 23.3224 16.6156 23.5853C16.6616 23.7502 16.6843 23.9208 16.6831 24.092C16.7064 24.2599 16.7177 24.4293 16.7169 24.5988C17.0547 25.2744 17.3813 25.9501 17.6966 26.6257C18.5211 28.3371 19.2101 30.1105 19.7574 31.9297C20.246 33.6019 20.9025 35.2204 21.7168 36.7606C21.8069 37.7741 21.942 38.7876 22.1222 39.8011C22.46 41.738 22.7978 43.6748 23.1357 45.6117C23.451 47.2333 23.8226 48.8436 24.2505 50.4427C24.2054 50.6997 24.2054 50.9626 24.2505 51.2197C24.3181 51.5575 24.3744 51.8954 24.4194 52.2331C24.4672 52.4897 24.5467 52.7393 24.6559 52.9764C24.746 53.8998 24.8023 54.8232 24.8248 55.7466C24.8928 57.9546 24.8477 60.1646 24.6897 62.368C24.5571 64.063 24.2974 65.7456 23.9127 67.4016C23.9148 68.5136 23.7439 69.6192 23.4059 70.6786C23.0605 71.8404 22.4472 72.905 21.6154 73.7866C17.6516 78.1108 12.7531 79.1581 6.9199 76.9284C5.36857 76.3634 4.11291 75.193 3.44026 73.6853C2.20958 70.9427 1.70916 67.9285 1.9876 64.9355C2.48257 58.8781 2.55031 52.7934 2.1903 46.7265C2.03265 46.1409 1.88625 45.5441 1.75112 44.936C1.59347 44.2379 1.40203 43.551 1.17681 42.8753C0.861508 41.9744 0.546201 41.0623 0.230894 40.1389C0.230935 40.0488 0.230935 39.9587 0.230894 39.8686C0.163301 39.1254 0.129511 38.3709 0.129511 37.6052C0.152103 36.9295 0.152103 36.2539 0.129511 35.5782C0.126937 34.6262 0.275167 33.6798 0.568723 32.7742C0.568763 32.6841 0.568763 32.6053 0.568723 32.5377C0.568763 32.4477 0.568763 32.3576 0.568723 32.2675C0.919214 30.1639 1.98046 28.2441 3.57539 26.8284C5.57905 25.0726 7.90955 23.7294 10.4333 22.8759ZM12.4941 28.3149C12.3246 28.3157 12.1554 28.3269 11.9873 28.3487C9.98535 28.7161 8.15178 29.7097 6.75098 31.1864L6.48072 31.6594C6.3906 31.8395 6.28926 32.0197 6.17667 32.1999C6.15271 32.545 6.08459 32.8856 5.97398 33.2134C5.8819 33.5433 5.83642 33.8844 5.83885 34.2269C5.79169 34.2993 5.7574 34.3793 5.7375 34.4634L5.66993 34.7336C5.62278 34.806 5.58849 34.886 5.56858 34.9701V39.0241C5.95149 40.3304 6.35688 41.6029 6.78476 42.8415C7.25615 44.319 7.5288 45.8527 7.59555 47.4022C7.6238 47.4833 7.65767 47.5623 7.6969 47.6387L7.76447 47.9089C7.77486 48.0047 7.78612 48.0948 7.79825 48.1792C7.95722 49.764 8.04731 51.3631 8.06851 52.9764C8.11631 54.9245 7.95777 56.8722 7.59555 58.787C7.59555 60.6564 7.57303 62.5144 7.52799 64.3612C7.43537 66.6527 7.54843 68.9478 7.86582 71.2191C7.90337 71.3003 7.96162 71.3702 8.03473 71.4218C8.74449 71.9579 9.58387 72.296 10.4671 72.4015C12.0211 72.3789 13.5751 72.3452 15.1291 72.3002C15.2051 72.2503 15.2841 72.2052 15.3656 72.165C16.0889 71.8173 16.7691 71.3865 17.3926 70.8813C17.5728 70.611 17.7304 70.352 17.8655 70.1043C18.028 69.7573 18.2085 69.419 18.4061 69.0908C18.4736 67.7169 18.5975 66.3656 18.7777 65.0368C19.0029 63.4378 19.1605 61.8387 19.2506 60.2397C19.2744 60.1462 19.3084 60.0555 19.352 59.9694C19.3745 59.9018 19.397 59.823 19.4195 59.7329C19.4421 58.6068 19.4533 57.5033 19.4533 56.4222C19.4546 55.1561 19.3642 53.8916 19.1831 52.6385C19.1395 52.5524 19.1055 52.4618 19.0817 52.3683C19.0592 52.2782 19.0367 52.1994 19.0142 52.1318V51.6251C18.9706 51.5389 18.9366 51.4483 18.9128 51.3548C18.8903 51.2647 18.8678 51.1859 18.8452 51.1183C18.8017 51.0322 18.7677 50.9416 18.7439 50.848V50.3413C18.5638 49.7557 18.4061 49.1702 18.2709 48.5846C18.1358 47.9765 17.9894 47.3797 17.8318 46.7941C17.539 44.6996 17.1561 42.605 16.6831 40.5105C16.272 38.5876 15.7417 36.6921 15.0953 34.835C14.7886 34.0154 14.4621 33.1933 14.1156 32.3688V31.8621C13.9402 31.3117 13.7373 30.7705 13.5075 30.2405C13.2194 29.5737 12.8806 28.9299 12.494 28.3149H12.4941Z" fill="#432800"/>
<path d="M14.1157 32.1323V32.3688C14.4621 33.1933 14.7886 34.0153 15.0954 34.835C15.7417 36.6921 16.272 38.5876 16.6832 40.5105C17.1561 42.605 17.539 44.6995 17.8318 46.7941C17.9894 47.3796 18.1358 47.9765 18.2709 48.5846C18.4061 49.1701 18.5637 49.7557 18.7439 50.3413V50.848C18.7677 50.9415 18.8017 51.0322 18.8453 51.1183C18.8678 51.1859 18.8903 51.2647 18.9128 51.3548C18.9366 51.4483 18.9706 51.5389 19.0142 51.625V52.1318C19.0367 52.1994 19.0592 52.2782 19.0817 52.3682C19.1055 52.4618 19.1395 52.5524 19.1831 52.6385C19.3642 53.8916 19.4546 55.1561 19.4534 56.4222C19.4534 57.5032 19.442 58.6068 19.4196 59.7329C19.397 59.823 19.3745 59.9018 19.352 59.9694C19.3084 60.0555 19.2744 60.1461 19.2506 60.2396C19.1606 61.8387 19.0029 63.4378 18.7777 65.0368C18.5975 66.3656 18.4736 67.7169 18.4061 69.0908C18.2085 69.419 18.0281 69.7573 17.8656 70.1042C17.7304 70.352 17.5728 70.611 17.3926 70.8812C16.7691 71.3865 16.0889 71.8173 15.3656 72.165C15.2841 72.2051 15.2051 72.2503 15.1291 72.3001C13.5751 72.3452 12.0211 72.379 10.4671 72.4015C9.58389 72.296 8.74451 71.9579 8.03474 71.4218C7.96164 71.3702 7.90338 71.3003 7.86583 71.2191C7.54844 68.9478 7.43538 66.6526 7.528 64.3612C7.57305 62.5144 7.59557 60.6563 7.59557 58.787C7.95779 56.8722 8.11632 54.9245 8.06853 52.9763C8.04729 51.363 7.9572 49.764 7.79826 48.1792C7.78613 48.0948 7.77487 48.0047 7.76448 47.9089L7.69692 47.6386C7.65768 47.5623 7.62381 47.4833 7.59557 47.4022C7.52882 45.8527 7.25616 44.319 6.78478 42.8415C6.35686 41.6028 5.95147 40.3303 5.5686 39.024V38.4159C5.82641 37.694 6.20322 37.0203 6.68343 36.4227C6.71024 36.2771 6.76783 36.1389 6.85234 36.0174C6.92833 35.8941 7.01909 35.7807 7.12261 35.6795C7.25774 35.5444 7.38161 35.4093 7.49422 35.2741C8.14824 34.1642 9.21849 33.3616 10.4671 33.0445C11.6723 32.7157 12.8885 32.4117 14.1157 32.1323Z" fill="#C38822"/>
<path d="M11.9873 28.3486C12.1553 28.3269 12.3246 28.3156 12.494 28.3148C12.8806 28.9298 13.2194 29.5736 13.5075 30.2404C13.7372 30.7704 13.9402 31.3117 14.1156 31.862V32.1323C12.8885 32.4117 11.6723 32.7157 10.4671 33.0444C9.21843 33.3615 8.14819 34.1642 7.49416 35.2741C7.38158 35.4092 7.25771 35.5443 7.12255 35.6795C7.01903 35.7807 6.92827 35.8941 6.85229 36.0173C6.76777 36.1389 6.71019 36.2771 6.68338 36.4227C6.20317 37.0203 5.82635 37.694 5.56854 38.4159V34.97C5.58845 34.886 5.62274 34.806 5.66989 34.7336L5.73746 34.4633C5.75736 34.3792 5.79165 34.2992 5.8388 34.2268C5.83638 33.8843 5.88186 33.5432 5.97394 33.2133C6.08455 32.8856 6.15267 32.545 6.17663 32.1998C6.28924 32.0197 6.39059 31.8395 6.48068 31.6593L6.75094 31.1864C8.15174 29.7097 9.98531 28.716 11.9873 28.3486Z" fill="#FFEB5A"/>
<path d="M40.5781 62.5046C42.592 62.4415 44.5909 62.8699 46.4021 63.7528C47.6409 64.4632 48.6267 65.5433 49.2213 66.8418C49.6493 67.8151 49.9388 68.8436 50.0814 69.8973C50.1986 70.5229 50.2668 71.1567 50.2856 71.7929C50.1066 73.4478 49.7733 75.0823 49.29 76.6751C48.4849 79.7308 47.4397 82.7181 46.1643 85.6093C42.7647 93.4351 39.5986 98.1338 36.666 99.7055C36.2568 99.9238 35.8702 100.142 35.506 100.361C34.4207 100.784 33.3628 101.273 32.3388 101.828C31.5655 102.265 30.9403 102.604 30.4632 102.843C29.5349 103.12 28.2219 103.503 26.5242 103.992C22.5 105.14 18.3441 105.762 14.1602 105.843C9.67594 105.946 6.43062 104.066 4.42424 100.203C2.99814 97.6262 2.24565 94.7312 2.23653 91.7862C2.19119 90.3513 2.50587 88.928 3.15186 87.6459C3.73252 86.6197 4.9784 85.5485 6.8895 84.4323C9.35583 83.0672 11.9166 81.8801 14.5523 80.8802C17.5072 79.7738 20.1476 77.9632 22.2445 75.6055C23.4324 74.3296 24.3741 72.845 25.0222 71.2267C25.3757 70.1805 25.9318 69.2141 26.6588 68.3827C28.1917 66.9897 30.783 65.6149 34.4327 64.2581C37.5614 63.0726 39.6099 62.4881 40.5782 62.5046M43.5545 68.2655C43.553 68.3556 42.0569 68.2512 39.0661 67.9524L31.1011 71.398C30.3376 72.5788 29.2828 74.329 27.9368 76.6486C26.9276 78.5703 25.5295 80.2609 23.8314 81.6129C23.7172 81.7011 23.5804 81.8001 23.4209 81.91L20.762 83.2837C20.6805 83.3106 20.6009 83.3431 20.5239 83.381C19.1595 83.987 17.4587 84.6562 15.4215 85.3888C11.8859 86.6574 9.67018 87.8022 8.7743 88.823C8.60451 88.9799 8.4739 89.1744 8.39296 89.3909C8.07056 90.0767 7.83138 90.7986 7.68052 91.5412L7.67879 91.6425L7.67764 91.7101L7.67476 91.879C7.67131 92.0816 7.67891 92.2958 7.69758 92.5213C7.91279 94.1045 8.41326 95.6356 9.17469 97.0403C10.026 98.6315 12.649 99.3633 17.0435 99.2356C17.4279 99.152 18.3544 98.9764 19.8231 98.7086L23.6532 97.9968C25.4038 97.6671 27.1201 97.176 28.7802 96.5301C29.9579 95.9984 31.0973 95.3857 32.1902 94.6962C33.5949 93.7755 34.9433 92.7718 36.2284 91.6904C37.5893 90.7037 38.6245 89.333 39.2013 87.7542C39.7454 86.2318 41.0495 83.0667 43.1137 78.2591C44.0169 76.2445 44.5133 74.0713 44.5743 71.8644C44.5098 71.4412 44.3158 71.0485 44.0191 70.74C43.7485 70.4576 43.5666 70.1021 43.496 69.7174C43.6239 68.8186 43.6435 68.3346 43.5545 68.2655L43.5545 68.2655Z" fill="#432800"/>
<path d="M25.2655 86.6717L25.3983 86.8091C25.3955 86.8892 25.4055 86.9692 25.428 87.0461L25.4257 87.1813C25.4258 87.2614 25.413 87.341 25.3879 87.4171L25.3856 87.5522C25.3155 87.7086 25.2089 87.8458 25.0747 87.9524C24.8693 88.1065 24.6413 88.2716 24.3905 88.4475C23.81 89.1399 23.0543 89.6638 22.2022 89.9644C21.8602 90.1173 21.5478 90.3293 21.2793 90.5906C20.5106 90.7577 19.7423 90.9022 18.9744 91.0243C18.6851 91.0628 18.4071 91.1617 18.1585 91.3145C17.1678 91.3425 16.1818 91.4614 15.2129 91.6697C13.2662 91.9714 11.2755 91.5786 9.58934 90.5601C9.45634 90.3055 9.33674 90.044 9.23105 89.7769C9.10633 89.4465 8.95352 89.1273 8.77431 88.823C9.6702 87.8021 11.8859 86.6574 15.4215 85.3887C17.4587 84.6562 19.1595 83.987 20.5239 83.381C21.594 84.0299 22.6756 84.6678 23.7686 85.2947C24.0587 85.4573 24.3375 85.6197 24.605 85.782C24.7164 85.8974 24.8161 86.0236 24.9026 86.1587C25.0106 86.3386 25.1319 86.51 25.2655 86.6717Z" fill="#FFEB5A"/>
<path d="M39.0661 67.9524C42.0569 68.2512 43.553 68.3555 43.5545 68.2655C43.6434 68.3345 43.6239 68.8185 43.4959 69.7174C43.5666 70.102 43.7484 70.4576 44.0191 70.7399C44.3158 71.0484 44.5098 71.4412 44.5743 71.8643C44.5132 74.0713 44.0169 76.2444 43.1137 78.259C41.0495 83.0667 39.7453 86.2317 39.2013 87.7542C38.6244 89.333 37.5892 90.7037 36.2284 91.6904C34.9433 92.7717 33.5948 93.7754 32.1901 94.6962C31.0973 95.3857 29.9579 95.9984 28.7801 96.5301C27.12 97.176 25.4037 97.667 23.6532 97.9968L19.823 98.7086C18.3543 98.9763 17.4278 99.152 17.0435 99.2355C12.6489 99.3633 10.026 98.6316 9.17463 97.0402C8.4132 95.6356 7.91273 94.1045 7.69752 92.5213C7.67881 92.2957 7.6712 92.0816 7.6747 91.879L7.67758 91.7101L7.67873 91.6425L7.68046 91.5412C7.83132 90.7986 8.0705 90.0767 8.3929 89.3909C8.47384 89.1744 8.60446 88.9799 8.77424 88.823C8.95345 89.1273 9.10626 89.4465 9.23098 89.7769C9.33668 90.044 9.45627 90.3055 9.58927 90.5601C11.2754 91.5786 13.2662 91.9714 15.2128 91.6697C16.1818 91.4614 17.1678 91.3425 18.1584 91.3145C18.4071 91.1617 18.685 91.0628 18.9743 91.0243C19.7423 90.9022 20.5106 90.7577 21.2792 90.5906C21.5477 90.3293 21.8601 90.1174 22.2022 89.9644C23.0542 89.6638 23.8099 89.1399 24.3904 88.4476C24.6412 88.2716 24.8692 88.1066 25.0746 87.9524C25.2088 87.8459 25.3154 87.7086 25.3855 87.5523L25.3878 87.4171C25.413 87.341 25.4257 87.2614 25.4257 87.1813L25.428 87.0462C25.4055 86.9693 25.3954 86.8892 25.3983 86.8092L25.2654 86.6717C25.1318 86.5101 25.0105 86.3386 24.9025 86.1587C24.816 86.0236 24.7163 85.8974 24.6049 85.782C24.3374 85.6197 24.0586 85.4573 23.7685 85.2947C22.6754 84.6679 21.5939 84.03 20.5238 83.381C20.6008 83.3431 20.6804 83.3106 20.7619 83.2837L23.4208 81.91C23.5804 81.8001 23.7172 81.7011 23.8313 81.6129C25.5294 80.2609 26.9275 78.5703 27.9367 76.6486C29.2828 74.329 30.3375 72.5788 31.101 71.398L39.0661 67.9524Z" fill="#C38822"/>
<path d="M14.5886 16.4909C16.12 12.5946 18.0569 9.80188 20.3992 8.11274C23.5108 5.75246 26.8762 3.74686 30.4327 2.13317C32.7091 1.07497 35.137 0.379633 37.6285 0.0724194C39.5767 -0.0569629 41.5327 -0.0117387 43.4729 0.207551C46.2663 0.694506 48.9893 1.52276 51.5808 2.6737C55.0286 4.09532 58.3731 6.60651 61.6143 10.2073C63.1133 11.8535 64.5229 13.5789 65.8371 15.376C70.0475 25.1583 72.9661 35.4473 74.5193 45.9833C75.2489 50.4407 75.6441 54.9464 75.7017 59.4627C75.7017 66.3544 72.132 73.8091 64.9926 81.8269C61.8962 84.1354 59.599 85.5543 58.1009 86.0836C55.3931 86.9672 52.6418 87.7114 49.8578 88.3132C46.6978 89.1281 43.4577 89.5926 40.196 89.6983C34.0475 89.6983 28.6084 87.1196 23.8788 81.9621C18.6988 76.3316 16.1088 69.226 16.1088 60.6451C16.2664 58.5055 16.379 56.7038 16.4466 55.2399C16.6029 52.8197 16.4439 50.3895 15.9737 48.0103C15.7983 47.0162 15.6855 46.012 15.6358 45.0037L15.4669 42.6051C15.3543 41.7042 14.8251 38.7989 13.8791 33.8891C12.9782 29.2046 12.5278 26.7384 12.5278 26.4907C12.5797 23.0575 13.2788 19.6649 14.5886 16.4909M20.5343 15.5788C20.4835 15.6732 20.4385 15.7633 20.3992 15.8491C18.8961 18.3757 18.0628 20.4815 17.8993 22.1665C17.7161 23.8762 17.626 24.8559 17.6289 25.1056C17.6289 27.5605 18.3948 31.8058 19.9262 37.8417C21.2527 42.8735 21.6872 48.0987 21.21 53.2805C20.2866 62.4694 21.987 70.0593 26.3112 76.0501C30.3651 81.6355 35.5227 84.4282 41.7837 84.4282C45.3867 84.4978 48.9812 84.0542 52.4591 83.1107C56.2085 82.0652 59.5979 80.0082 62.2562 77.1649C63.0674 76.2889 63.8106 75.4331 64.4858 74.5974L68.2357 68.8206C68.3809 68.4637 68.516 68.1147 68.6411 67.7733C68.7809 67.3948 68.9047 67.0232 69.0127 66.6585C69.6416 64.2712 70.0264 61.8263 70.1613 59.3614V59.3276C70.1797 58.8838 70.1909 58.4334 70.1951 57.9763V57.6722C70.1951 54.9729 69.9361 50.7951 69.4181 45.1388C69.3652 44.5469 69.3089 43.9388 69.2492 43.3145C68.5735 39.9137 67.5713 35.8823 66.2425 31.2203C65.1164 27.2339 64.0354 23.7993 62.9994 20.9165C62.6911 19.8942 62.272 18.9086 61.7494 17.9774C60.5557 15.8378 58.5175 13.7546 55.6347 11.7276C51.8038 9.02717 48.9323 7.33803 47.0201 6.66014C44.5373 5.89227 41.95 5.51614 39.3514 5.54531C35.8942 5.55316 32.4889 6.38711 29.4192 7.97767C29.305 8.03932 29.0348 8.17445 28.6085 8.38307C28.2826 8.54769 27.8772 8.75039 27.3923 8.99116C27.3678 8.99797 27.3448 9.00944 27.3247 9.02494C26.1733 9.57371 25.0761 10.2297 24.0478 10.9843C23.1247 11.6741 21.9536 13.2056 20.5343 15.5788L20.5343 15.5788Z" fill="#432800"/>
<path d="M62.9993 20.9165C64.0353 23.7993 65.1164 27.2339 66.2425 31.2202C67.5713 35.8823 68.5735 39.9137 69.2491 43.3145C69.3089 43.9388 69.3652 44.5469 69.4181 45.1388C69.4233 45.6568 69.4346 46.1749 69.4518 46.6928C69.4518 46.9405 69.4406 47.1995 69.4181 47.4698C68.8219 49.7367 67.9601 51.9252 66.8506 53.9899C65.8276 55.9537 64.5309 57.7622 62.9993 59.3613C60.2269 61.0538 57.0576 61.9859 53.8104 62.064H49.6551C46.2361 61.7632 42.9758 60.4849 40.2635 58.3816C40.0157 58.2015 39.768 58.0213 39.5202 57.8411C38.6193 56.6249 37.7072 55.4087 36.7838 54.1926C36.1044 53.3071 35.5791 52.3135 35.2298 51.2535C35.1401 51.1863 35.0605 51.1067 34.9933 51.017C34.9314 50.9335 34.8637 50.8545 34.7906 50.7805C34.7055 50.6961 34.6265 50.6058 34.5542 50.5102C34.4899 50.4254 34.4334 50.3349 34.3853 50.24C34.2051 49.7445 34.0024 49.2602 33.7772 48.7873C33.3943 47.9315 33.0002 47.0644 32.5948 46.186V45.6793C32.5709 45.6028 32.5595 45.5229 32.561 45.4428C32.5392 45.2748 32.528 45.1055 32.5272 44.9361C32.4146 44.5757 32.302 44.2379 32.1894 43.9226C32.0826 43.6697 31.9923 43.4102 31.9191 43.1456C31.9033 42.9034 31.8807 42.6557 31.8515 42.4024C31.6052 39.1879 30.8998 36.0253 29.757 33.0107C28.2593 29.0912 27.2275 25.0093 26.6828 20.8489L26.6152 20.5786C26.587 20.4976 26.5531 20.4185 26.5139 20.3422C26.5371 20.0041 26.5258 19.6645 26.4801 19.3287C26.4342 18.9869 26.3665 18.6483 26.2774 18.3152C26.1648 17.9774 26.0522 17.6395 25.9395 17.3017C25.9158 17.2082 25.8818 17.1175 25.8382 17.0314V15.7815C26.0416 15.1241 26.1553 14.4423 26.176 13.7545C26.1938 12.9665 26.3541 12.1882 26.649 11.4573C26.8742 10.8492 27.1219 10.2636 27.3922 9.70057C27.7534 9.22254 28.1608 8.78123 28.6084 8.38303C29.0347 8.17441 29.305 8.03927 29.4192 7.97764C32.4888 6.38708 35.8941 5.55313 39.3513 5.54528C41.95 5.51611 44.5373 5.89224 47.02 6.66011C48.9322 7.338 51.8038 9.02714 55.6347 11.7275C58.5175 13.7545 60.5557 15.8378 61.7494 17.9774C62.2719 18.9086 62.6911 19.8941 62.9993 20.9165Z" fill="#FFEB5A"/>
<path d="M20.3992 15.8489C20.4384 15.7632 20.4835 15.6731 20.5343 15.5787C21.9535 13.2056 23.1247 11.6741 24.0477 10.9842C25.0761 10.2296 26.1732 9.57358 27.3246 9.02481C27.3448 9.00931 27.3677 8.99783 27.3922 8.99103C27.8771 8.75023 28.2825 8.54753 28.6084 8.38293C28.1608 8.78113 27.7534 9.22244 27.3922 9.70047C27.1219 10.2635 26.8742 10.8491 26.649 11.4572C26.3541 12.1881 26.1938 12.9664 26.176 13.7544C26.1553 14.4422 26.0416 15.124 25.8382 15.7814V17.0313C25.8818 17.1174 25.9158 17.2081 25.9395 17.3016C26.0522 17.6394 26.1648 17.9773 26.2774 18.3151C26.3665 18.6482 26.4342 18.9868 26.4801 19.3286C26.5258 19.6644 26.5371 20.004 26.5139 20.3421C26.5531 20.4184 26.587 20.4975 26.6152 20.5785L26.6828 20.8488C27.2275 25.0092 28.2593 29.0911 29.757 33.0106C30.8998 36.0252 31.6052 39.1878 31.8515 42.4023C31.8807 42.6556 31.9033 42.9033 31.9191 43.1455C31.9923 43.4101 32.0826 43.6696 32.1894 43.9225C32.302 44.2378 32.4146 44.5756 32.5272 44.936C32.528 45.1054 32.5392 45.2747 32.561 45.4427C32.5595 45.5228 32.5709 45.6027 32.5948 45.6792V46.1859C33.0002 47.0643 33.3943 47.9314 33.7772 48.7872C34.0024 49.2602 34.2051 49.7444 34.3853 50.2399C34.4334 50.3348 34.4899 50.4253 34.5542 50.5101C34.6265 50.6057 34.7055 50.696 34.7906 50.7804C34.8637 50.8544 34.9314 50.9334 34.9933 51.0169C35.0605 51.1066 35.1401 51.1862 35.2298 51.2534C35.5791 52.3134 36.1044 53.307 36.7838 54.1925C37.7072 55.4087 38.6194 56.6249 39.5202 57.841C39.768 58.0212 40.0157 58.2013 40.2635 58.3815C42.9758 60.4848 46.2361 61.7631 49.6551 62.0639H53.8104C57.0576 61.9858 60.2269 61.0537 62.9993 59.3612C64.5309 57.7621 65.8276 55.9535 66.8506 53.9898C67.9601 51.9251 68.8219 49.7366 69.4181 47.4697C69.4406 47.1994 69.4518 46.9404 69.4518 46.6927C69.4346 46.1747 69.4233 45.6567 69.4181 45.1387C69.9361 50.795 70.1951 54.9728 70.1951 57.6721V57.9761C70.1909 58.4333 70.1796 58.8837 70.1613 59.3275V59.3612C70.0264 61.8262 69.6415 64.2711 69.0127 66.6583C68.9047 67.0231 68.7808 67.3947 68.6411 67.7732C68.5159 68.1145 68.3808 68.4636 68.2357 68.8204L64.4858 74.5973C63.8106 75.4329 63.0673 76.2888 62.2561 77.1648C59.5978 80.0081 56.2084 82.0651 52.4591 83.1106C48.9811 84.054 45.3866 84.4977 41.7837 84.4281C35.5226 84.4281 30.3651 81.6354 26.3112 76.05C21.987 70.0591 20.2866 62.4693 21.2099 53.2803C21.6872 48.0986 21.2527 42.8733 19.9262 37.8416C18.3948 31.8057 17.6289 27.5604 17.6289 25.1054C17.626 24.8557 17.716 23.876 17.8992 22.1663C18.0628 20.4813 18.8961 18.3755 20.3992 15.8489Z" fill="#C38822"/>
<path d="M58.7765 6.79519C59.5949 6.23506 60.5555 5.91876 61.5467 5.88306C65.6682 5.88306 69.3167 8.11272 72.4923 12.5721C75.4201 16.6936 76.884 20.9615 76.884 25.3758C76.884 29.6999 76.3097 32.808 75.1611 34.6998C74.1424 36.2881 72.6717 37.5353 70.9383 38.2808C68.7292 39.3019 66.4484 40.16 64.1141 40.8483C62.0555 41.5492 59.903 41.9364 57.7292 41.9969C55.7164 41.8772 53.7283 41.491 51.8172 40.8483C49.7108 40.2874 47.7283 39.3363 45.9727 38.0443C43.2666 35.7674 41.2243 32.8032 40.0607 29.4635C39.3956 27.8039 39.0076 26.0463 38.9122 24.2609C38.9122 20.9727 39.3514 18.4728 40.2297 16.7611C41.4008 14.4189 43.6643 12.4932 47.02 10.9843C47.1552 10.9393 48.6867 10.5789 51.6145 9.90321L56.8508 8.14651C57.5941 7.58346 58.2359 7.13302 58.7765 6.79519ZM56.8171 13.5518C55.3435 14.1291 54.0147 14.6246 52.8307 15.0382C49.5425 15.8264 47.3578 16.6823 46.2768 17.6057C44.9931 18.6868 44.3512 20.4772 44.3512 22.9772C44.3512 27.5041 45.8714 30.9274 48.9119 33.2472C51.5469 35.2741 55.004 36.2876 59.2832 36.2876C60.3104 36.2925 61.337 36.2361 62.3574 36.1187C64.0927 35.7922 65.7826 35.2591 67.3911 34.5309C69.758 33.5905 71.0868 32.5432 71.3775 31.3891C71.7214 29.802 71.8913 28.1821 71.8844 26.5582C71.847 25.7423 71.7794 24.7739 71.6815 23.6528C71.5013 21.3331 70.2288 18.5854 67.864 15.4098C65.8821 12.7522 63.9903 11.4234 62.1885 11.4234C62.0759 11.4234 60.2855 12.1329 56.8171 13.5518H56.8171Z" fill="#091628"/>
<path d="M51.6484 17.8422C51.4139 18.9523 51.3118 20.0863 51.3443 21.2205C51.2382 23.5634 52.1207 25.8432 53.7767 27.5041C55.5318 29.2154 57.2998 30.1726 59.0806 30.3756C60.6488 30.6049 62.242 30.6049 63.8102 30.3756C64.7653 30.2635 65.7054 30.0483 66.6142 29.7337C67.549 29.2899 68.452 28.7819 69.3168 28.2135C70.6906 27.3126 71.5465 26.7608 71.8845 26.5582C71.8914 28.1821 71.7215 29.802 71.3775 31.3891C71.0869 32.5433 69.7581 33.5906 67.3912 34.5309C65.7827 35.2591 64.0928 35.7922 62.3575 36.1187C61.3371 36.2361 60.3105 36.2925 59.2833 36.2876C55.0041 36.2876 51.547 35.2741 48.912 33.2472C45.8715 30.9274 44.3513 27.5041 44.3513 22.9772C44.3513 20.4772 44.9931 18.6868 46.2769 17.6057C47.3579 16.6823 49.5426 15.8265 52.8308 15.0382C52.3308 15.9246 51.9341 16.8654 51.6484 17.8422Z" fill="#4E7A8D"/>
<path d="M51.3442 21.2205C51.3118 20.0863 51.4138 18.9523 51.6483 17.8422C51.9341 16.8655 52.3308 15.9247 52.8307 15.0382C54.0147 14.6246 55.3435 14.1292 56.8171 13.5518C60.2854 12.1329 62.0759 11.4235 62.1885 11.4235C63.9903 11.4235 65.8821 12.7523 67.8641 15.4098C70.2289 18.5854 71.5013 21.3331 71.6815 23.6529C71.7794 24.774 71.847 25.7424 71.8842 26.5582C71.5464 26.7609 70.6906 27.3127 69.3167 28.2135C68.4519 28.7819 67.5489 29.2899 66.6141 29.7338C65.7054 30.0483 64.7652 30.2636 63.8101 30.3756C62.2419 30.6049 60.6487 30.6049 59.0805 30.3756C57.2997 30.1726 55.5317 29.2154 53.7766 27.5041C52.1206 25.8433 51.2381 23.5634 51.3442 21.2205ZM54.8577 16.2206L54.7901 16.3558V16.8625L54.8577 16.9976C54.8582 17.0447 54.8697 17.091 54.8914 17.1328L54.959 17.2679C54.9867 17.298 55.0095 17.3322 55.0266 17.3692C55.0529 17.4194 55.0871 17.4651 55.1279 17.5044L55.263 17.6395C55.3173 17.6766 55.3737 17.7104 55.4319 17.7409C55.4713 17.7816 55.5169 17.8159 55.5671 17.8422C55.5841 17.8621 55.6085 17.8743 55.6346 17.876C56.992 17.9657 58.3552 17.8748 59.6886 17.6057C61.0975 17.3391 62.4548 16.8486 63.7087 16.1531C63.7988 16.1756 63.8889 16.1981 63.979 16.2206C64.0198 16.26 64.054 16.3056 64.0803 16.3558C64.2155 16.4909 64.3506 16.6148 64.4857 16.7274C64.6421 16.8389 64.789 16.9632 64.9249 17.099C65.0212 17.1946 65.1227 17.2848 65.229 17.3692C65.2553 17.4194 65.2895 17.465 65.3303 17.5044L65.3979 17.6395C65.4195 17.6836 65.4551 17.7193 65.4992 17.7409C65.6633 17.9122 65.8752 18.0299 66.1073 18.0787C66.5544 18.1983 67.0313 18.0694 67.3573 17.7409C67.5394 17.5801 67.6689 17.3682 67.7289 17.1328V16.8625C67.7506 16.8207 67.7622 16.7744 67.7627 16.7274C67.7193 16.3275 67.6048 15.9385 67.4248 15.5788C67.1036 15.0075 66.7183 14.4748 66.2762 13.991C65.7228 13.395 65.0855 12.8829 64.3844 12.4707C64.3267 12.4683 64.2697 12.4569 64.2155 12.4369C64.1133 12.4356 64.0114 12.4243 63.9114 12.4032C62.0406 12.5162 60.2127 13.0105 58.54 13.8558C57.4364 14.4189 56.3553 15.0157 55.2968 15.6463C55.1896 15.6873 55.0959 15.7575 55.0265 15.849L54.959 15.9841L54.8914 16.1193C54.8733 16.1503 54.8618 16.1849 54.8577 16.2206L54.8577 16.2206Z" fill="#90C3D0"/>
<path d="M54.7901 16.3558L54.8577 16.2207C54.8618 16.1849 54.8733 16.1504 54.8915 16.1193L54.9591 15.9842L55.0266 15.849C55.096 15.7576 55.1896 15.6874 55.2969 15.6464C56.3554 15.0157 57.4365 14.4189 58.54 13.8559C60.2128 13.0105 62.0407 12.5162 63.9115 12.4032C64.0115 12.4244 64.1133 12.4357 64.2156 12.437C64.2698 12.457 64.3268 12.4684 64.3845 12.4708C65.0856 12.8829 65.7229 13.395 66.2763 13.991C66.7183 14.4748 67.1037 15.0075 67.4249 15.5788C67.6049 15.9385 67.7193 16.3275 67.7628 16.7274C67.7623 16.7745 67.7507 16.8208 67.729 16.8625V17.1328C67.669 17.3682 67.5395 17.5801 67.3574 17.7409C67.0314 18.0694 66.5545 18.1983 66.1074 18.0787C65.8753 18.0299 65.6633 17.9122 65.4993 17.7409C65.4552 17.7193 65.4196 17.6836 65.398 17.6395L65.3304 17.5044C65.2896 17.4651 65.2554 17.4195 65.229 17.3693C65.1228 17.2849 65.0213 17.1947 64.925 17.099C64.7891 16.9632 64.6422 16.8389 64.4858 16.7274C64.3507 16.6148 64.2156 16.4909 64.0804 16.3558C64.0541 16.3056 64.0198 16.26 63.9791 16.2207C63.889 16.1981 63.7989 16.1756 63.7088 16.1531C62.4548 16.8487 61.0976 17.3391 59.6887 17.6058C58.3553 17.8748 56.992 17.9657 55.6347 17.876C55.6086 17.8743 55.5842 17.8622 55.5671 17.8422C55.517 17.8159 55.4714 17.7817 55.432 17.7409C55.3738 17.7105 55.3173 17.6766 55.2631 17.6395L55.128 17.5044C55.0872 17.4651 55.053 17.4195 55.0267 17.3693C55.0095 17.3322 54.9867 17.298 54.9591 17.2679L54.8915 17.1328C54.8698 17.091 54.8582 17.0447 54.8577 16.9977L54.7901 16.8625V16.3558Z" fill="white"/>
<path d="M79.0124 75.1378C81.1888 76.7254 83.76 77.6838 86.4446 77.908C87.8635 77.5251 89.2712 77.1309 90.6675 76.7256C90.9386 76.5672 91.1789 76.3612 91.3769 76.1175C91.5999 75.8286 91.7818 75.5103 91.9175 75.1716C92.5577 75.9236 93.1023 76.7519 93.539 77.6377C93.6862 77.9042 93.7997 78.1879 93.8769 78.4823C94.2723 80.0838 94.0043 81.777 93.1336 83.1781C91.8274 85.4978 89.2711 87.1645 85.4649 88.178C82.5822 88.9662 80.589 89.2365 79.4854 88.9888C78.5313 88.7621 77.6191 88.3858 76.7827 87.8739C76.3922 87.6203 76.0298 87.3259 75.7017 86.9956C75.6567 86.9055 73.8324 84.9348 70.2289 81.0836C70.2272 81.0574 70.215 81.0331 70.1951 81.016C68.8345 80.1062 67.1896 79.722 65.5668 79.935C64.0579 80.1602 62.5714 80.3967 61.1075 80.6444C59.2607 80.9371 57.4252 81.2862 55.6009 81.6917C55.6235 81.6691 55.6235 81.6353 55.6009 81.5903C55.5777 81.4224 55.5664 81.2531 55.5671 81.0836V80.5768C55.2744 78.1307 55.2744 75.6583 55.5671 73.2122C55.771 71.2045 56.4421 69.2723 57.5265 67.5704C57.8301 67.4057 58.1454 67.2368 58.4724 67.0637C58.5223 67.1384 58.5673 67.2059 58.6076 67.2664L58.6414 67.3002C58.5313 67.7112 58.4187 68.1279 58.3035 68.5501V68.6177C58.2994 68.6535 58.2879 68.688 58.2698 68.7191V68.8542C58.2692 68.9013 58.2577 68.9475 58.236 68.9893V69.0569C58.2559 69.0739 58.268 69.0983 58.2698 69.1244V69.1582C58.2703 69.2053 58.2818 69.2516 58.3035 69.2934C58.3052 69.3195 58.3174 69.3439 58.3373 69.3609C58.3148 69.7213 58.2922 70.0817 58.2698 70.442C58.2211 70.9166 58.3029 71.3955 58.5062 71.8271C59.272 72.1198 59.7787 71.8496 60.0265 71.0163C60.3565 69.9749 60.8102 68.9768 61.3778 68.0434L61.4453 67.9758C62.2946 67.5831 63.1504 67.234 64.0128 66.9286C65.5894 66.3205 67.1659 65.7799 68.7424 65.307C69.5983 65.0367 70.4428 64.8115 71.2761 64.6313C71.3488 64.5911 71.4297 64.568 71.5126 64.5638C72.602 64.27 73.7299 64.1447 74.8571 64.1922L74.5193 64.3948C73.9728 64.8344 73.3844 65.2192 72.7626 65.5435C72.3532 65.7109 71.9845 65.9644 71.6815 66.2867C71.0742 66.9388 70.552 67.6653 70.1275 68.4488C70.1234 68.4846 70.1119 68.5191 70.0937 68.5501C70.0736 68.6555 70.0396 68.7578 69.9924 68.8542C69.9698 68.9442 69.9473 69.0456 69.9248 69.1582C69.9243 69.2053 69.9128 69.2516 69.891 69.2934C69.9092 69.3244 69.9207 69.3589 69.9248 69.3947C69.9474 69.4848 69.9699 69.5636 69.9924 69.6312C70.0149 69.7213 70.0374 69.8001 70.06 69.8677L70.1275 70.1379C70.128 70.185 70.1396 70.2313 70.1613 70.2731C70.1784 70.3101 70.2012 70.3443 70.2289 70.3744C70.2456 70.4156 70.2858 70.4424 70.3302 70.442C70.3336 70.4943 70.358 70.543 70.3978 70.5771C70.3983 70.6242 70.4099 70.6705 70.4316 70.7122C70.4287 70.7492 70.4409 70.7857 70.4654 70.8136C70.6286 71.0413 70.8093 71.2559 71.0059 71.4555C71.2067 71.7487 71.4727 71.9915 71.7829 72.1649C72.0105 72.3023 72.2063 72.4866 72.3572 72.7054C72.5116 72.7469 72.6704 72.7696 72.8302 72.773C75.0609 73.0125 77.1912 73.8274 79.0124 75.1378Z" fill="#C38822"/>
<path d="M86.4447 77.9081C83.7601 77.6839 81.1889 76.7255 79.0124 75.1379C77.1913 73.8275 75.061 73.0127 72.8302 72.7731C72.6704 72.7697 72.5116 72.747 72.3572 72.7055C72.2063 72.4867 72.0105 72.3024 71.7829 72.165C71.4727 71.9916 71.2067 71.7488 71.0059 71.4556C70.8093 71.256 70.6286 71.0414 70.4654 70.8137C70.4409 70.7858 70.4288 70.7493 70.4316 70.7123C70.4099 70.6706 70.3983 70.6243 70.3978 70.5772C70.358 70.5431 70.3336 70.4944 70.3302 70.4421C70.2858 70.4425 70.2456 70.4157 70.2289 70.3745C70.2012 70.3445 70.1784 70.3103 70.1613 70.2732C70.1396 70.2314 70.128 70.1851 70.1275 70.138L70.06 69.8678C70.0375 69.8002 70.0149 69.7214 69.9924 69.6313C69.9699 69.5637 69.9473 69.4849 69.9249 69.3948C69.9208 69.3591 69.9093 69.3245 69.8911 69.2935C69.9128 69.2517 69.9243 69.2054 69.9249 69.1583C69.9474 69.0458 69.9699 68.9444 69.9924 68.8543C70.0396 68.7579 70.0737 68.6557 70.0938 68.5502C70.1119 68.5192 70.1234 68.4847 70.1275 68.4489C70.5521 67.6654 71.0742 66.9389 71.6816 66.2868C71.9845 65.9645 72.3532 65.711 72.7626 65.5436C73.3845 65.2193 73.9729 64.8346 74.5193 64.395L74.8571 64.1923C78.0553 64.4175 81.6362 66.0165 85.6001 68.9894C87.6263 70.5467 89.4935 72.3007 91.1743 74.2258C91.4445 74.5411 91.6923 74.8564 91.9175 75.1717C91.7818 75.5104 91.5999 75.8287 91.377 76.1176C91.179 76.3613 90.9386 76.5673 90.6675 76.7257C89.2712 77.1311 87.8635 77.5252 86.4447 77.9081Z" fill="#FFEB5A"/>
<path d="M77.3908 59.4288C80.5427 60.2172 83.5678 61.4454 86.3771 63.0774C93.3813 67.0637 97.5254 71.433 98.8091 76.1851C99.7753 79.5983 99.3881 83.2526 97.7281 86.3875C95.7011 90.2162 92.1427 92.8063 87.0527 94.1576C83.742 95.0585 81.2533 95.385 79.5867 95.1373C78.5936 94.8335 77.6228 94.461 76.6814 94.0224C75.5542 93.4153 74.5097 92.6659 73.5734 91.7928C72.7042 91.0672 71.8806 90.2887 71.1072 89.4618L67.4925 85.5092C64.7448 85.6668 61.7268 86.0046 58.4387 86.5227C57.1999 86.7704 55.9612 87.0406 54.7225 87.3334C54.5846 87.3329 54.4477 87.3101 54.3171 87.2658C54.1973 87.2188 54.0727 87.1848 53.9455 87.1645C53.8329 87.0969 53.709 87.0294 53.5739 86.9618C53.4803 86.9137 53.3992 86.8443 53.3374 86.7591C53.2539 86.6972 53.1749 86.6295 53.1009 86.5564C52.8769 86.4004 52.7107 86.1747 52.628 85.9145C52.5686 85.7535 52.501 85.5956 52.4253 85.4416C52.3802 85.2614 52.3352 85.0925 52.2901 84.9348V84.6646C52.3153 84.494 52.3491 84.3249 52.3915 84.1578C52.3928 84.0556 52.4041 83.9538 52.4253 83.8538C52.4862 83.6663 52.5654 83.4852 52.6618 83.3132C52.9052 82.8894 53.2699 82.5482 53.7091 82.3335L54.655 81.9282C54.9928 81.8381 55.3081 81.7592 55.6009 81.6917C57.4252 81.2863 59.2607 80.9372 61.1075 80.6444C62.5714 80.3967 64.0579 80.1602 65.5668 79.935C67.1896 79.722 68.8345 80.1062 70.1951 81.016C70.215 81.0331 70.2272 81.0574 70.2289 81.0836C73.8324 84.9348 75.6566 86.9055 75.7017 86.9956C76.0298 87.3259 76.3922 87.6204 76.7827 87.8739C77.6191 88.3858 78.5313 88.7621 79.4854 88.9888C80.5889 89.2365 82.5821 88.9662 85.4649 88.178C89.2711 87.1645 91.8274 85.4978 93.1336 83.1781C94.0043 81.7771 94.2723 80.0838 93.8769 78.4823C93.7997 78.1879 93.6862 77.9042 93.539 77.6377C93.1023 76.7519 92.5576 75.9236 91.9174 75.1716C91.6922 74.8563 91.4445 74.541 91.1742 74.2257C89.4934 72.3006 87.6263 70.5466 85.6001 68.9893C81.6362 66.0164 78.0552 64.4174 74.8571 64.1922C73.7298 64.1447 72.602 64.2701 71.5126 64.5638C71.4297 64.568 71.3488 64.5911 71.2761 64.6313C70.4428 64.8115 69.5982 65.0367 68.7424 65.307C67.1659 65.78 65.5893 66.3205 64.0128 66.9286C63.1504 67.234 62.2946 67.5831 61.4453 67.9758L61.3778 68.0434C60.8102 68.9768 60.3565 69.9749 60.0264 71.0163C59.7787 71.8496 59.2719 72.1199 58.5062 71.8271C58.3029 71.3955 58.2211 70.9166 58.2697 70.442C58.2923 70.0816 58.3148 69.7213 58.3373 69.3609C58.3174 69.3439 58.3052 69.3195 58.3035 69.2934C58.2818 69.2516 58.2702 69.2053 58.2697 69.1582V69.1245C58.268 69.0983 58.2558 69.0739 58.236 69.0569V68.9893C58.2577 68.9476 58.2692 68.9013 58.2697 68.8542V68.7191C58.2879 68.688 58.2994 68.6535 58.3035 68.6177V68.5501C58.4187 68.1279 58.5313 67.7112 58.6413 67.3002L58.6076 67.2664C58.5673 67.2059 58.5223 67.1384 58.4724 67.0637C58.1455 67.2368 57.8301 67.4057 57.5265 67.5704C57.4967 67.5848 57.4741 67.5961 57.4589 67.6042C57.2431 67.7305 57.0584 67.9037 56.9184 68.111C56.5775 68.7003 55.9742 69.0899 55.2969 69.1582H55.2631C55.246 69.1384 55.2216 69.1262 55.1955 69.1245L55.1279 69.0569L55.0604 68.9893L54.9928 68.9218C54.959 68.8542 54.9252 68.7866 54.8915 68.7191V68.415C54.9138 68.3252 54.9606 68.2434 55.0266 68.1785C55.1617 67.9984 55.2968 67.8069 55.432 67.6042C55.5148 67.4562 55.6171 67.3198 55.736 67.1988C56.0292 66.7479 56.3689 66.3289 56.7495 65.9489C57.131 65.5896 57.5501 65.2725 57.9995 65.0029C58.0523 64.9568 58.1086 64.9117 58.1684 64.8678V64.7327C59.6784 63.0203 61.6482 61.7774 63.8439 61.1517C65.8484 60.5436 67.8641 59.9468 69.891 59.3612C71.8279 58.6856 74.3278 58.7081 77.3908 59.4288Z" fill="#432800"/>
</g>
<g clip-path="url(#clip1_118_580)">
<path d="M104 210C107.314 210 110 207.314 110 204C110 200.686 107.314 198 104 198C100.686 198 98 200.686 98 204C98 207.314 100.686 210 104 210Z" fill="#FFFDE9"/>
<path d="M129 233C131.209 233 133 231.209 133 229C133 226.791 131.209 225 129 225C126.791 225 125 226.791 125 229C125 231.209 126.791 233 129 233Z" fill="#D6D5D9"/>
<path d="M95.5 252C96.8807 252 98 250.881 98 249.5C98 248.119 96.8807 247 95.5 247C94.1193 247 93 248.119 93 249.5C93 250.881 94.1193 252 95.5 252Z" fill="#FFFDE9"/>
<path d="M124 260C124.552 260 125 259.552 125 259C125 258.448 124.552 258 124 258C123.448 258 123 258.448 123 259C123 259.552 123.448 260 124 260Z" fill="#FFFDE9"/>
</g>
<g clip-path="url(#clip2_118_580)">
<path d="M198.532 261.164C198.031 263.031 199.139 264.95 201.007 265.45C202.874 265.951 204.793 264.843 205.293 262.976C205.793 261.108 204.685 259.189 202.818 258.689C200.951 258.189 199.032 259.297 198.532 261.164Z" fill="#FFFDE9"/>
<path d="M181.126 272.029C180.769 273.363 181.561 274.734 182.894 275.091C184.228 275.448 185.599 274.657 185.956 273.323C186.313 271.99 185.522 270.619 184.188 270.261C182.855 269.904 181.484 270.696 181.126 272.029Z" fill="#D6D5D9"/>
<path d="M175.678 249.864C175.463 250.664 175.938 251.486 176.738 251.701C177.538 251.915 178.361 251.44 178.575 250.64C178.79 249.84 178.315 249.017 177.515 248.803C176.715 248.589 175.892 249.064 175.678 249.864Z" fill="#FFFDE9"/>
<path d="M165.965 264.861C165.822 265.394 166.139 265.943 166.672 266.086C167.206 266.229 167.754 265.912 167.897 265.379C168.04 264.845 167.723 264.297 167.19 264.154C166.656 264.011 166.108 264.327 165.965 264.861Z" fill="#FFFDE9"/>
</g>
<defs>
<clipPath id="clip0_118_580">
<rect width="99.9972" height="106.078" fill="white" transform="translate(0.00140381)"/>
</clipPath>
<clipPath id="clip1_118_580">
<rect width="40" height="62" fill="white" transform="translate(93 198)"/>
</clipPath>
<clipPath id="clip2_118_580">
<rect width="42" height="33" fill="white" transform="translate(165 247)"/>
</clipPath>
</defs>
</svg>
