<svg width="277" height="384" viewBox="0 0 277 384" fill="none" xmlns="http://www.w3.org/2000/svg">
<path d="M5.82855 3.28903C6.04454 1.92531 5.11413 0.64471 3.75042 0.428719C2.3867 0.212728 1.1061 1.14314 0.89011 2.50685C0.674119 3.87057 1.60453 5.15117 2.96824 5.36716C4.33196 5.58315 5.61256 4.65274 5.82855 3.28903Z" fill="#D6D5D9"/>
<path d="M13.5644 24.7636C13.694 23.9454 13.1358 23.1771 12.3175 23.0475C11.4993 22.9179 10.7309 23.4761 10.6014 24.2943C10.4718 25.1126 11.03 25.8809 11.8482 26.0105C12.6665 26.1401 13.4348 25.5819 13.5644 24.7636Z" fill="#FFFDE9"/>
<path d="M21.6562 8.83324C21.7426 8.28775 21.3705 7.77551 20.825 7.68911C20.2795 7.60272 19.7672 7.97488 19.6808 8.52037C19.5945 9.06585 19.9666 9.57809 20.5121 9.66449C21.0576 9.75089 21.5698 9.37872 21.6562 8.83324Z" fill="#FFFDE9"/>
<g clip-path="url(#clip0_118_726)">
<path d="M233.827 281.053C234.505 280.673 235.249 280.425 236.019 280.323C236.224 280.291 236.429 280.252 236.635 280.207C237.908 279.9 239.21 279.72 240.519 279.669C244.034 279.666 248.302 281.102 253.325 283.976C258.317 286.882 262.637 291.535 266.285 297.936C269.301 303.012 271.875 308.339 273.976 313.857C275.461 318.09 276.204 321.372 276.207 323.702C276.207 327.291 274.63 331.252 271.476 335.585C268.477 339.687 265.323 342.507 262.016 344.045C257.973 345.505 254.102 344.595 250.402 341.315C249.833 340.806 249.386 340.175 249.095 339.469C247.282 334.968 246.004 330.27 245.287 325.471C243.903 322.651 242.608 319.779 241.403 316.857C240.336 314.233 239.036 311.711 237.519 309.319C237.089 308.992 236.724 308.588 236.442 308.127C236.289 307.845 236.122 307.55 235.943 307.242C235.833 307.074 235.742 306.893 235.673 306.704C233.983 303.451 232.055 300.328 229.905 297.359C229.597 296.974 229.315 296.603 229.059 296.244C226.239 292.475 226.175 288.847 228.867 285.361C228.892 285.284 228.918 285.194 228.943 285.091V284.514C229.193 283.506 229.847 282.643 230.751 282.13C231.695 281.571 232.741 281.205 233.827 281.053ZM236.635 287.053C236.099 287.122 235.56 287.161 235.02 287.168C234.983 287.208 234.945 287.247 234.904 287.283V287.591C234.879 287.694 234.853 287.783 234.827 287.86C234.8 287.967 234.761 288.07 234.712 288.168C234.686 288.27 234.661 288.36 234.635 288.437C234.481 288.642 234.327 288.847 234.174 289.052C234.02 289.232 233.879 289.411 233.75 289.591C233.585 289.808 233.391 290.002 233.174 290.168C233.319 290.562 233.513 290.936 233.75 291.283C234.285 291.993 234.701 292.785 234.981 293.629C235.161 294.116 235.366 294.603 235.596 295.09C237.088 296.712 238.32 298.554 239.25 300.551C239.903 301.937 240.635 303.285 241.442 304.589C243.642 307.298 245.43 310.318 246.749 313.549C247.877 316.241 248.992 318.933 250.095 321.625C250.187 321.715 250.265 321.819 250.325 321.933C251.424 324.508 252.149 327.228 252.479 330.009C252.684 331.957 253.044 333.886 253.556 335.777C253.735 335.957 253.902 336.136 254.056 336.316C254.433 336.745 254.845 337.144 255.286 337.508C255.796 337.865 256.352 338.15 256.94 338.354C258.247 338.354 259.555 338.354 260.862 338.354C261.03 338.308 261.187 338.23 261.324 338.123C261.435 338.059 261.539 337.981 261.632 337.892C261.756 337.642 263.025 336.065 265.439 333.162C266.856 331.55 268.106 329.797 269.169 327.932C269.326 327.624 269.454 327.302 269.554 326.971C269.949 325.374 270.117 323.73 270.053 322.087C270.051 321.878 270.038 321.66 270.015 321.433C269.617 318.721 268.8 316.087 267.592 313.626C265.979 309.988 264.581 307.039 263.401 304.781C262.303 302.731 261.097 300.741 259.786 298.82C258.557 297.075 256.493 294.537 253.594 291.206C251.71 288.976 249.186 287.378 246.364 286.63C245.129 286.344 243.864 286.202 242.595 286.206H242.403L238.596 286.745C238.001 286.842 237.347 286.945 236.635 287.053L236.635 287.053Z" fill="#1C003F"/>
<path d="M255.863 298.167C253.13 293.984 249.945 290.115 246.364 286.63C249.186 287.379 251.71 288.976 253.594 291.206C256.494 294.537 258.557 297.075 259.786 298.82C261.097 300.741 262.304 302.731 263.401 304.781C264.582 307.039 265.979 309.988 267.592 313.626C268.8 316.087 269.618 318.721 270.015 321.433C268.512 321.225 266.994 321.148 265.477 321.202C265.446 320.381 265.263 319.573 264.939 318.818C264.862 318.638 264.785 318.459 264.708 318.279C262.891 311.133 259.902 304.337 255.863 298.167Z" fill="#6B2FBB"/>
<path d="M235.019 287.168C235.56 287.161 236.099 287.122 236.635 287.053C237.347 286.945 238.001 286.842 238.596 286.745L242.403 286.206H242.595C243.864 286.202 245.128 286.343 246.364 286.63C249.945 290.115 253.13 293.984 255.863 298.167C259.902 304.336 262.89 311.133 264.708 318.279C264.785 318.459 264.862 318.638 264.939 318.818C265.263 319.573 265.446 320.381 265.477 321.202C266.994 321.148 268.512 321.225 270.015 321.433C270.038 321.66 270.051 321.878 270.053 322.087C270.117 323.73 269.949 325.374 269.554 326.971C269.454 327.302 269.326 327.624 269.169 327.932C268.106 329.797 266.856 331.55 265.439 333.162C263.025 336.065 261.756 337.642 261.631 337.892C261.539 337.981 261.435 338.059 261.324 338.123C261.187 338.23 261.03 338.308 260.862 338.354C259.555 338.354 258.247 338.354 256.94 338.354C256.352 338.15 255.795 337.865 255.286 337.508C254.845 337.144 254.433 336.745 254.055 336.316C253.902 336.136 253.735 335.957 253.556 335.777C253.044 333.886 252.684 331.957 252.479 330.009C252.149 327.228 251.424 324.508 250.325 321.933C250.265 321.819 250.187 321.715 250.095 321.625C248.992 318.933 247.877 316.241 246.749 313.549C245.43 310.318 243.642 307.298 241.442 304.589C240.635 303.285 239.903 301.937 239.25 300.551C238.32 298.554 237.088 296.712 235.596 295.09C235.366 294.603 235.16 294.116 234.981 293.629C234.701 292.785 234.285 291.993 233.75 291.283C233.513 290.936 233.319 290.562 233.174 290.168C233.391 290.002 233.585 289.808 233.75 289.591C233.879 289.411 234.02 289.232 234.173 289.052C234.327 288.847 234.481 288.642 234.635 288.437C234.66 288.36 234.686 288.27 234.712 288.168C234.761 288.07 234.8 287.967 234.827 287.86C234.853 287.783 234.878 287.694 234.904 287.591V287.283C234.945 287.247 234.983 287.208 235.019 287.168Z" fill="#3B177C"/>
<path d="M225.84 357.932C225.257 355.757 225.943 353.439 227.616 351.933C231.128 348.426 234.639 344.919 238.15 341.411C238.175 341.456 238.193 341.46 238.202 341.425C238.345 341.313 238.503 341.178 238.677 341.018C239.826 340.503 240.941 339.918 242.018 339.267C244.026 337.96 246.175 336.883 248.424 336.057C248.595 335.988 248.77 335.932 248.948 335.887C249.086 335.904 249.225 335.912 249.363 335.914C249.483 335.908 249.602 335.931 249.712 335.98C249.855 335.982 249.999 335.974 250.141 335.954C250.23 335.981 250.314 336.023 250.39 336.077C250.472 336.13 250.55 336.188 250.624 336.252C250.809 336.333 250.979 336.445 251.126 336.584L251.375 336.707C251.457 336.76 251.535 336.818 251.609 336.882C251.646 336.993 251.692 337.1 251.749 337.201C251.868 337.353 251.975 337.514 252.071 337.681L252.206 337.915L252.379 338.214C252.355 338.583 252.389 338.953 252.479 339.311C252.633 340.436 252.913 341.54 253.314 342.603C253.54 343.302 253.787 343.988 254.058 344.661C254.105 344.739 254.139 344.824 254.159 344.913L254.197 344.98C254.738 346.326 256.349 347.912 259.031 349.738C259.892 350.306 261.453 351.241 263.714 352.541C266.501 353.625 268.584 354.465 269.964 355.06C272.23 355.928 274.139 357.53 275.389 359.61C276.875 362.186 277.329 365.536 276.75 369.66C276.17 373.783 273.292 377.413 268.117 380.55C262.941 383.686 256.806 383.853 249.711 381.051C242.627 378.214 237.42 375.58 234.093 373.15C231.135 370.95 229.182 369.028 228.234 367.385L227.545 365.962C226.922 364.423 226.435 362.832 226.088 361.208C225.928 360.256 225.847 359.293 225.847 358.328C225.862 358.196 225.86 358.063 225.84 357.932M244.434 345.066C243.612 345.54 242.789 345.986 241.964 346.403C238.76 349.673 235.585 352.942 232.439 356.209C232.282 356.386 232.138 356.573 232.007 356.769C232.018 356.834 232.04 356.897 232.07 356.955C232.087 357.076 232.111 357.195 232.143 357.312C232.163 357.444 232.165 357.577 232.15 357.708C231.946 359.099 232.595 361.581 234.096 365.155C234.275 365.466 235.695 366.644 238.357 368.69C239.844 369.929 241.426 371.05 243.089 372.041C243.959 372.368 245.78 372.959 248.554 373.815C250.939 374.546 253.285 375.4 255.582 376.374C257.375 377.212 259.378 377.494 261.333 377.183C262.988 376.863 264.569 376.236 265.995 375.336C267.22 374.416 268.2 373.209 268.851 371.822C269.264 371.099 269.633 370.352 269.957 369.585C269.982 369.488 270.017 369.393 270.061 369.303L270.711 367.506C271.297 365.599 271.321 364.179 270.783 363.247C270.244 362.314 269.059 361.415 267.227 360.548C266.127 360.028 264.176 359.186 261.372 358.022C259.33 357.139 257.374 356.068 255.529 354.824C254.579 354.161 253.672 353.439 252.815 352.661C251.292 351.319 249.973 349.761 248.902 348.037L248.652 347.604C248.347 346.922 248.05 346.279 247.761 345.676C247.509 345.088 247.295 344.486 247.119 343.871C246.194 344.199 245.296 344.598 244.434 345.066Z" fill="#1C003F"/>
<path d="M251.906 360.778C251.921 360.658 251.926 360.537 251.919 360.416C252.31 359.657 252.683 358.894 253.039 358.126C253.455 357.205 253.895 356.3 254.358 355.411C254.737 355.192 255.128 354.996 255.529 354.824C257.374 356.068 259.33 357.139 261.372 358.022C264.176 359.186 266.127 360.028 267.226 360.548C269.059 361.415 270.244 362.314 270.783 363.247C271.321 364.179 271.297 365.599 270.711 367.506C270.767 367.296 270.819 367.104 270.866 366.929C269.51 367.945 267.989 368.719 266.368 369.214C266.098 369.303 265.818 369.36 265.534 369.385C264.022 369.596 262.481 369.396 261.072 368.809C261.009 368.793 260.949 368.767 260.895 368.733C260.702 368.551 260.49 368.39 260.263 368.254C260.076 368.13 259.879 368.021 259.675 367.928C259.511 367.846 259.34 367.782 259.164 367.734C258.382 367.149 257.573 366.595 256.738 366.071C255.751 365.501 254.827 364.829 253.982 364.065C253.423 363.559 252.886 363.04 252.372 362.508L252.295 362.375L252.218 362.241L252.084 362.008C252.081 361.955 252.066 361.903 252.04 361.856C251.983 361.661 251.943 361.462 251.918 361.26C251.886 361.102 251.882 360.938 251.906 360.778Z" fill="#6B2FBB"/>
<path d="M241.964 346.403C242.789 345.986 243.612 345.54 244.434 345.066C245.296 344.598 246.194 344.199 247.119 343.871C247.295 344.485 247.509 345.088 247.761 345.676C248.05 346.279 248.347 346.921 248.652 347.604L248.902 348.037C249.973 349.761 251.292 351.319 252.815 352.661C253.672 353.439 254.579 354.161 255.529 354.824C255.128 354.996 254.737 355.192 254.358 355.411C253.895 356.3 253.455 357.205 253.039 358.126C252.683 358.894 252.31 359.657 251.919 360.416C251.926 360.537 251.921 360.658 251.906 360.778C251.882 360.938 251.886 361.101 251.918 361.26C251.943 361.461 251.983 361.661 252.04 361.856C252.066 361.902 252.081 361.955 252.083 362.008L252.218 362.241L252.295 362.375L252.372 362.508C252.886 363.04 253.423 363.559 253.982 364.065C254.827 364.829 255.751 365.501 256.738 366.071C257.573 366.595 258.382 367.149 259.164 367.734C259.34 367.782 259.511 367.846 259.675 367.927C259.879 368.021 260.076 368.13 260.263 368.254C260.49 368.39 260.702 368.551 260.895 368.733C260.949 368.767 261.009 368.793 261.072 368.808C262.481 369.396 264.022 369.595 265.534 369.385C265.818 369.36 266.098 369.303 266.368 369.214C267.989 368.719 269.51 367.945 270.866 366.928C270.819 367.104 270.767 367.296 270.711 367.506L270.061 369.303C270.017 369.393 269.982 369.488 269.957 369.585C269.633 370.352 269.264 371.099 268.851 371.822C268.2 373.209 267.22 374.416 265.995 375.336C264.569 376.236 262.988 376.863 261.333 377.183C259.378 377.494 257.375 377.212 255.582 376.374C253.285 375.4 250.939 374.546 248.554 373.815C245.78 372.959 243.959 372.368 243.089 372.041C241.426 371.05 239.844 369.929 238.357 368.69C235.695 366.644 234.275 365.466 234.096 365.155C232.595 361.581 231.946 359.099 232.15 357.708C232.165 357.577 232.163 357.443 232.143 357.312C232.111 357.195 232.087 357.076 232.07 356.955C232.04 356.897 232.018 356.834 232.007 356.769C232.138 356.573 232.282 356.385 232.439 356.209C235.585 352.942 238.76 349.673 241.964 346.403Z" fill="#3B177C"/>
<path d="M206.792 270.747C214.165 270.075 219.985 270.498 224.252 272.016C227.636 273.158 230.916 274.586 234.058 276.285C236.33 277.631 239.406 280.144 243.288 283.822C247.178 287.527 251.28 294.487 255.594 304.704C259.877 314.957 262.018 324.084 262.016 332.085C262.016 342.443 258.914 350.301 252.71 355.659C250.128 357.823 247.27 359.634 244.211 361.043C242.262 361.992 239.493 363.235 235.904 364.773C229.717 365.936 225.756 366.474 224.021 366.389C222.13 366.273 220.278 365.803 218.56 365.004C216.684 364.186 212.595 362.058 206.292 358.62C204.69 357.612 203.346 356.243 202.37 354.621C201.678 353.595 200.806 352.108 199.755 350.16C197.627 345.673 195.614 341.443 193.717 337.469C190 329.65 187.359 324.509 185.795 322.048C184.282 319.689 182.859 316.139 181.526 311.396C180.501 307.088 179.988 304.909 179.988 304.858C179.988 295.037 182.616 287.064 187.872 280.938C193.109 274.814 199.416 271.417 206.792 270.747M216.022 276.362C215.944 276.357 215.867 276.345 215.791 276.323C212.84 276.195 209.884 276.285 206.946 276.592C202.895 276.954 198.421 279.479 193.525 284.168C192.02 285.622 190.726 287.279 189.679 289.091C187.344 293.13 186.178 298.053 186.18 303.858C186.18 304.858 187.269 308.229 189.448 313.972C191.961 320.587 194.256 325.253 196.332 327.97C196.871 328.688 198.076 331.226 199.947 335.585C202.434 341.328 203.959 344.776 204.524 345.93C207.036 351.134 209.984 354.762 213.369 356.813C216.573 358.736 220.996 359.697 226.636 359.697C227.734 359.655 228.827 359.527 229.905 359.313C230.096 359.277 230.301 359.239 230.52 359.197C231.586 358.966 232.665 358.799 233.751 358.697C235.007 358.696 238.289 357.196 243.595 354.198C243.811 354.09 244.029 353.974 244.249 353.852C249.159 351.023 252.082 348.524 253.017 346.353C253.196 345.917 253.375 345.455 253.556 344.968C254.348 342.917 255.029 340.825 255.594 338.7C256.127 336.729 256.424 334.703 256.478 332.662C256.488 332.069 256.476 331.479 256.44 330.893C256.267 328.776 255.906 326.678 255.363 324.625C254.645 322.087 254.197 320.343 254.017 319.395C253.472 316.64 252.687 313.937 251.671 311.319L250.095 307.396C247.967 303.192 246.121 299.756 244.557 297.09C242.583 293.859 241.48 292.078 241.25 291.744C239.122 288.693 237.481 286.694 236.327 285.745C234.55 284.195 232.689 282.744 230.751 281.399C230.046 280.989 229.34 280.591 228.636 280.207C226.817 279.402 224.955 278.696 223.06 278.092C221.807 277.68 220.653 277.334 219.599 277.054L216.022 276.362Z" fill="#1C003F"/>
<path d="M219.637 277.208C219.829 277.227 220.022 277.227 220.214 277.208C219.999 277.164 219.794 277.113 219.599 277.054C220.653 277.334 221.807 277.68 223.06 278.092C224.955 278.696 226.817 279.402 228.636 280.207C229.34 280.591 230.046 280.989 230.751 281.399C232.689 282.744 234.55 284.194 236.327 285.745C237.481 286.694 239.122 288.693 241.25 291.744C241.48 292.078 242.583 293.859 244.557 297.09C246.121 299.756 247.967 303.192 250.095 307.396L251.671 311.319C252.687 313.937 253.472 316.64 254.017 319.395C254.197 320.343 254.645 322.087 255.363 324.625C255.906 326.678 256.266 328.776 256.44 330.893C256.476 331.479 256.488 332.069 256.478 332.662C256.465 332.795 256.452 332.924 256.44 333.047C256.414 333.588 256.297 334.121 256.094 334.623C254.803 338.224 252.712 341.485 249.979 344.161C249.374 344.767 248.718 345.321 248.018 345.814C244.266 348.525 239.858 350.185 235.25 350.621C232.756 350.878 230.24 350.852 227.751 350.544C226.407 349.744 224.957 349.136 223.444 348.737C220.517 346.406 218.184 343.414 216.637 340.007C216.562 339.4 216.407 338.805 216.176 338.238C215.663 337.033 215.189 335.803 214.753 334.547C214.291 333.162 213.868 331.803 213.484 330.47C213.212 329.461 212.634 328.561 211.83 327.894C211.599 327.509 211.382 327.137 211.176 326.778C210.715 326.009 210.266 325.266 209.83 324.548C209.138 323.394 208.395 322.266 207.6 321.164C207.01 320.343 206.326 319.594 205.562 318.933C205.409 318.498 205.159 318.104 204.831 317.779C204.318 317.241 203.831 316.69 203.37 316.126C202.732 315.336 202.272 314.418 202.024 313.434C201.772 312.418 201.342 311.454 200.755 310.588C200.705 310.182 200.574 309.789 200.37 309.434C200.116 308.876 199.91 308.297 199.755 307.704C199.572 306.9 199.315 306.114 198.986 305.358C198.645 304.62 198.349 303.863 198.101 303.089C198.024 302.884 197.921 302.69 197.794 302.512C197.793 302.408 197.781 302.305 197.755 302.204C197.728 301.915 197.663 301.631 197.563 301.358L197.332 300.743C197.176 300.375 197.072 299.987 197.025 299.589C196.968 299.293 196.864 299.007 196.717 298.743C196.543 298.472 196.389 298.19 196.255 297.897V296.436C196.255 295.949 196.243 295.475 196.217 295.013C196.191 294.705 196.166 294.411 196.14 294.129C196.117 293.829 196.025 293.54 195.871 293.283V286.322C195.896 286.245 195.922 286.155 195.948 286.053C195.997 285.958 196.023 285.852 196.025 285.745C196.076 285.566 196.127 285.386 196.179 285.207C196.204 285.104 196.23 285.002 196.255 284.899C196.278 284.803 196.317 284.712 196.371 284.63C196.604 284.37 196.81 284.086 196.986 283.784C197.039 283.654 197.117 283.536 197.217 283.438C197.371 283.258 197.524 283.066 197.678 282.861C197.806 282.681 197.935 282.489 198.063 282.284C199.555 281.024 201.279 280.071 203.139 279.477C205.235 278.733 206.748 278.233 207.677 277.977C209.75 277.573 211.842 277.277 213.945 277.092C215.843 276.99 217.745 277.028 219.637 277.208Z" fill="#6B2FBB"/>
<path d="M215.791 276.323C215.866 276.345 215.944 276.357 216.022 276.362L219.598 277.054C219.794 277.113 219.999 277.164 220.214 277.208C220.022 277.227 219.829 277.227 219.637 277.208C217.745 277.028 215.843 276.99 213.945 277.092C211.842 277.277 209.749 277.573 207.677 277.977C206.747 278.233 205.235 278.733 203.139 279.477C201.279 280.071 199.554 281.024 198.063 282.284C197.934 282.489 197.806 282.681 197.678 282.861C197.524 283.066 197.371 283.258 197.217 283.438C197.117 283.536 197.038 283.654 196.986 283.784C196.81 284.086 196.604 284.37 196.371 284.63C196.317 284.712 196.278 284.803 196.255 284.899C196.23 285.002 196.204 285.104 196.178 285.207C196.127 285.386 196.076 285.566 196.025 285.745C196.023 285.852 195.997 285.958 195.948 286.053C195.922 286.155 195.896 286.245 195.871 286.322V293.283C196.025 293.54 196.117 293.829 196.14 294.129C196.166 294.411 196.191 294.705 196.217 295.013C196.242 295.475 196.255 295.949 196.255 296.436V297.897C196.389 298.19 196.543 298.472 196.717 298.743C196.864 299.007 196.968 299.293 197.024 299.589C197.072 299.987 197.176 300.375 197.332 300.743L197.563 301.358C197.663 301.631 197.728 301.915 197.755 302.204C197.78 302.305 197.793 302.408 197.793 302.512C197.921 302.69 198.024 302.884 198.101 303.089C198.349 303.863 198.645 304.62 198.986 305.358C199.315 306.114 199.572 306.9 199.755 307.704C199.91 308.297 200.116 308.876 200.37 309.434C200.574 309.789 200.705 310.182 200.755 310.588C201.342 311.454 201.772 312.418 202.024 313.434C202.272 314.418 202.731 315.336 203.37 316.126C203.831 316.69 204.318 317.241 204.831 317.779C205.159 318.104 205.408 318.498 205.562 318.933C206.326 319.594 207.01 320.343 207.6 321.164C208.395 322.266 209.138 323.394 209.83 324.548C210.266 325.266 210.715 326.009 211.176 326.778C211.381 327.137 211.599 327.509 211.83 327.893C212.634 328.561 213.212 329.461 213.484 330.47C213.868 331.803 214.291 333.162 214.753 334.546C215.189 335.803 215.663 337.033 216.176 338.238C216.407 338.805 216.562 339.4 216.637 340.007C218.184 343.414 220.517 346.406 223.444 348.737C224.957 349.136 226.407 349.744 227.751 350.544C230.24 350.852 232.756 350.878 235.25 350.621C239.858 350.185 244.266 348.525 248.018 345.814C248.718 345.32 249.374 344.767 249.979 344.161C252.712 341.485 254.803 338.224 256.094 334.623C256.297 334.121 256.414 333.588 256.44 333.047C256.452 332.924 256.465 332.795 256.478 332.662C256.424 334.703 256.127 336.729 255.594 338.7C255.029 340.825 254.348 342.917 253.556 344.968C253.375 345.455 253.196 345.917 253.017 346.353C252.082 348.523 249.159 351.023 244.249 353.852C244.029 353.974 243.811 354.09 243.595 354.198C238.289 357.196 235.007 358.695 233.75 358.697C232.665 358.799 231.586 358.966 230.52 359.197C230.301 359.238 230.096 359.277 229.905 359.313C228.827 359.527 227.734 359.655 226.636 359.697C220.996 359.697 216.573 358.736 213.368 356.813C209.984 354.762 207.036 351.134 204.523 345.93C203.959 344.776 202.434 341.328 199.947 335.585C198.075 331.226 196.87 328.688 196.332 327.97C194.255 325.253 191.961 320.587 189.448 313.972C187.269 308.229 186.18 304.858 186.18 303.858C186.178 298.053 187.344 293.13 189.679 289.091C190.725 287.279 192.02 285.622 193.525 284.168C198.421 279.479 202.894 276.954 206.946 276.592C209.884 276.285 212.84 276.195 215.791 276.323Z" fill="#3B177C"/>
<path d="M219.406 345.891C219.437 345.96 219.476 346.024 219.522 346.084C219.484 346.038 219.446 345.987 219.406 345.93C219.401 345.93 219.401 345.917 219.406 345.891ZM207.523 334.7C208.207 334.57 209.104 334.429 210.215 334.277C215.406 334.63 220.421 336.298 224.79 339.123L224.829 339.161C226.526 340.247 228.381 341.064 230.328 341.584C230.091 342.474 229.795 343.348 229.443 344.199C228.964 345.402 228.616 346.652 228.405 347.929C228.303 348.71 228.096 349.473 227.79 350.198C227.853 350.031 227.917 349.851 227.982 349.66C227.843 348.945 227.689 348.227 227.521 347.506C227.419 347.153 227.342 346.793 227.29 346.43L227.059 345.122C227.057 345.039 227.03 344.959 226.982 344.891C226.905 344.761 226.852 344.618 226.828 344.468C226.807 344.403 226.781 344.338 226.751 344.276V344.199C226.729 344.18 226.715 344.152 226.713 344.122C226.711 344.092 226.697 344.065 226.674 344.045C226.674 343.992 226.661 343.939 226.636 343.892L226.559 343.815C226.561 343.804 226.557 343.793 226.549 343.786C226.542 343.778 226.531 343.775 226.521 343.776C226.495 343.725 226.469 343.699 226.444 343.699C226.409 343.668 226.371 343.642 226.328 343.622L226.251 343.545C226.2 343.545 226.162 343.545 226.136 343.545C226.082 343.545 226.03 343.532 225.982 343.507C225.876 343.534 225.773 343.573 225.675 343.622C225.593 343.65 225.515 343.689 225.444 343.738C225.244 344.002 225.148 344.33 225.175 344.661C225.124 344.719 225.072 344.783 225.021 344.853C224.463 345.602 223.925 346.359 223.406 347.122C222.506 346.044 221.647 344.928 220.829 343.776C220.215 342.92 219.772 341.954 219.521 340.93V340.738C219.527 340.63 219.5 340.523 219.445 340.43L219.368 340.353L219.291 340.277C219.292 340.266 219.289 340.255 219.281 340.248C219.274 340.24 219.263 340.237 219.252 340.238L219.098 340.161L219.021 340.084C218.996 340.084 218.957 340.084 218.906 340.084C218.853 340.084 218.8 340.071 218.752 340.046C218.514 340.117 218.292 340.235 218.099 340.392C218.078 340.422 218.052 340.448 218.022 340.469C218.013 340.487 218.013 340.5 218.022 340.507C217.799 340.756 217.652 341.063 217.599 341.392C217.591 341.443 217.591 341.495 217.599 341.546C217.583 341.57 217.57 341.596 217.56 341.623C217.432 342.033 217.304 342.469 217.176 342.93C216.97 344.231 216.983 345.556 217.214 346.853C217.291 347.393 217.434 347.923 217.637 348.429C217.851 349.025 218.135 349.593 218.483 350.121C218.391 349.923 218.313 349.717 218.252 349.506C218.772 350.98 219.511 352.367 220.444 353.621C221.338 354.818 221.92 356.219 222.136 357.697C222.189 358.189 222.319 358.669 222.521 359.12V360.851C221.543 361.079 220.569 361.31 219.598 361.543H215.676C214.368 361.133 213.061 360.748 211.753 360.389C209.486 359.716 207.424 358.487 205.754 356.813C205.113 355.813 204.459 354.813 203.793 353.813C202.58 352.007 201.659 350.021 201.062 347.929C200.703 346.75 200.383 345.584 200.101 344.43V342.969C200.103 342.878 200.116 342.787 200.139 342.699C200.319 342.135 200.485 341.558 200.639 340.969C200.786 340.348 200.992 339.743 201.254 339.161C201.46 338.623 201.652 338.072 201.831 337.508C202.02 337.351 202.2 337.184 202.37 337.008C202.709 336.678 203.069 336.37 203.446 336.085C204.01 335.668 204.65 335.367 205.331 335.2C206.082 335.021 206.812 334.854 207.523 334.7V334.7Z" fill="#6B2FBB"/>
<path d="M218.022 340.469C218.052 340.448 218.078 340.422 218.099 340.392C218.292 340.235 218.514 340.117 218.752 340.046C218.8 340.071 218.853 340.084 218.906 340.084C218.958 340.084 218.996 340.084 219.022 340.084L219.099 340.161L219.252 340.238C219.263 340.237 219.274 340.24 219.281 340.248C219.289 340.255 219.292 340.266 219.291 340.277L219.368 340.353L219.445 340.43C219.5 340.523 219.527 340.63 219.522 340.738V340.93C219.772 341.954 220.216 342.92 220.829 343.776C221.647 344.928 222.506 346.044 223.406 347.122C223.925 346.359 224.463 345.602 225.021 344.853C225.073 344.783 225.124 344.719 225.175 344.661C225.148 344.33 225.244 344.002 225.444 343.738C225.515 343.689 225.593 343.65 225.675 343.622C225.773 343.573 225.876 343.534 225.982 343.507C226.03 343.532 226.083 343.545 226.136 343.545C226.162 343.545 226.2 343.545 226.252 343.545L226.328 343.622C226.371 343.642 226.41 343.668 226.444 343.699C226.469 343.699 226.495 343.725 226.521 343.776C226.531 343.775 226.542 343.778 226.55 343.786C226.557 343.793 226.561 343.804 226.559 343.815L226.636 343.891C226.661 343.939 226.674 343.992 226.675 344.045C226.697 344.065 226.711 344.092 226.713 344.122C226.715 344.152 226.729 344.18 226.752 344.199V344.276C226.782 344.338 226.807 344.403 226.828 344.468C226.852 344.618 226.905 344.761 226.982 344.891C227.03 344.959 227.057 345.039 227.059 345.122L227.29 346.43C227.342 346.793 227.419 347.153 227.521 347.506C227.689 348.227 227.843 348.945 227.982 349.66C227.917 349.851 227.853 350.031 227.79 350.198L226.905 351.583C226.892 351.595 226.879 351.608 226.867 351.621C226.816 351.365 226.777 351.121 226.752 350.891V350.468L226.675 350.314C226.674 350.26 226.661 350.207 226.636 350.16V347.122C226.638 346.977 226.612 346.834 226.559 346.699L226.444 346.583C226.407 346.52 226.354 346.467 226.29 346.43C226.183 346.344 226.08 346.254 225.982 346.16C225.955 346.153 225.928 346.14 225.906 346.122C225.777 346.096 225.636 346.071 225.483 346.045C225.368 346.068 225.252 346.094 225.136 346.122C225.128 346.139 225.115 346.152 225.098 346.16C225.002 346.183 224.911 346.222 224.829 346.276L224.675 346.43C224.597 346.508 224.532 346.599 224.483 346.699C224.413 346.832 224.361 346.975 224.329 347.122C224.176 347.318 224.035 347.511 223.906 347.699C223.595 348.129 223.312 348.578 223.06 349.045C223.002 349.117 222.951 349.195 222.906 349.275C222.883 349.295 222.869 349.323 222.867 349.352C222.38 348.968 221.919 348.57 221.483 348.16L219.522 346.084C219.476 346.024 219.437 345.96 219.406 345.891C219.401 345.917 219.401 345.93 219.406 345.93C219.292 345.796 219.176 345.655 219.06 345.507C219.018 345.51 218.977 345.496 218.945 345.468C218.879 345.447 218.815 345.421 218.753 345.391C218.653 345.44 218.562 345.505 218.483 345.584C218.432 345.66 218.368 345.75 218.291 345.853C218.236 345.961 218.172 346.064 218.099 346.16C218.042 346.26 217.991 346.363 217.945 346.468C217.903 346.555 217.865 346.644 217.83 346.737C217.75 346.924 217.686 347.117 217.637 347.314C217.642 347.343 217.655 347.37 217.676 347.391C217.674 347.457 217.687 347.523 217.714 347.583C217.71 347.637 217.724 347.691 217.753 347.737L218.253 349.506C218.314 349.717 218.391 349.923 218.483 350.121C218.136 349.593 217.852 349.025 217.637 348.429C217.434 347.923 217.292 347.393 217.214 346.853C216.984 345.556 216.971 344.231 217.176 342.93C217.304 342.469 217.432 342.033 217.56 341.623C217.571 341.596 217.584 341.57 217.599 341.546C217.592 341.495 217.592 341.443 217.599 341.392C217.653 341.063 217.8 340.756 218.022 340.507C218.013 340.5 218.013 340.487 218.022 340.469M210.215 334.277C209.104 334.429 208.207 334.57 207.523 334.7C206.813 334.854 206.082 335.021 205.331 335.2C204.651 335.367 204.01 335.668 203.447 336.085C203.069 336.37 202.71 336.678 202.37 337.008C202.2 337.184 202.02 337.351 201.832 337.508C201.652 338.072 201.46 338.623 201.255 339.161C200.993 339.743 200.786 340.348 200.64 340.969C200.486 341.558 200.319 342.135 200.14 342.699C200.116 342.787 200.103 342.878 200.101 342.969V344.43C200.383 345.584 200.704 346.75 201.063 347.929C201.659 350.021 202.581 352.007 203.793 353.813C204.46 354.813 205.113 355.813 205.754 356.813C207.424 358.487 209.487 359.716 211.754 360.389C213.061 360.748 214.369 361.133 215.676 361.543H219.599C220.57 361.31 221.544 361.079 222.521 360.851V361.159C222.418 361.446 222.34 361.742 222.291 362.043C222.223 362.386 222.12 362.721 221.983 363.043C221.612 363.899 221.148 364.711 220.599 365.466C219.163 366.696 216.497 367.312 212.6 367.312C210.376 367.356 208.19 366.726 206.331 365.504C204.505 364.329 202.582 362.201 200.563 359.12C200.478 358.944 200.388 358.765 200.294 358.582C199.73 356.787 199.23 355.108 198.794 353.544C197.922 350.519 197.576 348.557 197.755 347.66C197.778 346.355 197.92 345.055 198.178 343.776C198.777 340.527 200.284 337.514 202.524 335.085C202.678 335.034 202.844 334.982 203.024 334.931C203.229 334.854 203.447 334.777 203.678 334.7C203.857 334.649 204.049 334.585 204.254 334.508C204.317 334.478 204.381 334.452 204.447 334.431C206.362 334.221 208.291 334.17 210.215 334.277L210.215 334.277Z" fill="#3B177C"/>
<path d="M204.447 334.431C204.381 334.452 204.317 334.478 204.254 334.508C204.049 334.585 203.857 334.649 203.677 334.7C203.447 334.777 203.229 334.854 203.024 334.931C202.844 334.982 202.678 335.034 202.524 335.085C200.284 337.514 198.777 340.527 198.178 343.776C197.92 345.055 197.778 346.355 197.755 347.66C197.576 348.557 197.922 350.519 198.794 353.544C199.229 355.108 199.729 356.787 200.293 358.582C200.388 358.765 200.478 358.944 200.563 359.12C202.582 362.201 204.505 364.329 206.331 365.504C208.19 366.726 210.375 367.356 212.599 367.312C216.496 367.312 219.163 366.696 220.598 365.466C221.147 364.711 221.612 363.899 221.983 363.043C222.12 362.721 222.223 362.386 222.29 362.043C222.34 361.742 222.417 361.446 222.521 361.158V360.851V359.12C222.319 358.669 222.189 358.189 222.137 357.697C221.92 356.219 221.339 354.818 220.445 353.621C219.512 352.367 218.773 350.98 218.252 349.506L217.753 347.737C217.723 347.691 217.71 347.637 217.714 347.583C217.687 347.523 217.673 347.457 217.676 347.391C217.655 347.37 217.642 347.343 217.637 347.314C217.686 347.117 217.75 346.924 217.83 346.737C217.864 346.644 217.903 346.555 217.945 346.468C217.991 346.363 218.042 346.26 218.099 346.16C218.172 346.064 218.236 345.961 218.291 345.853C218.368 345.75 218.432 345.66 218.483 345.584C218.562 345.505 218.653 345.44 218.752 345.391C218.815 345.421 218.879 345.447 218.945 345.468C218.976 345.496 219.018 345.51 219.06 345.507C219.176 345.655 219.292 345.796 219.406 345.93C219.446 345.987 219.484 346.038 219.522 346.083L221.483 348.16C221.919 348.57 222.38 348.968 222.867 349.352C222.869 349.322 222.883 349.295 222.906 349.275C222.951 349.194 223.002 349.117 223.06 349.045C223.312 348.578 223.595 348.128 223.906 347.699C224.035 347.511 224.176 347.318 224.329 347.122C224.361 346.975 224.413 346.832 224.482 346.699C224.532 346.599 224.597 346.508 224.675 346.43L224.829 346.276C224.911 346.222 225.002 346.183 225.098 346.16C225.114 346.152 225.128 346.139 225.136 346.122C225.252 346.094 225.368 346.068 225.482 346.045C225.636 346.071 225.777 346.096 225.905 346.122C225.928 346.14 225.954 346.153 225.982 346.16C226.08 346.254 226.183 346.344 226.29 346.43C226.353 346.467 226.406 346.52 226.444 346.583L226.559 346.699C226.612 346.834 226.638 346.977 226.636 347.122V350.16C226.661 350.207 226.674 350.26 226.675 350.314L226.751 350.468V350.891C226.777 351.121 226.815 351.365 226.867 351.621C226.918 351.801 226.969 351.993 227.021 352.198C227.068 352.337 227.106 352.478 227.136 352.621C227.213 352.852 227.29 353.07 227.367 353.275C228.385 356.238 228.765 359.384 228.482 362.504C228.066 364.935 226.847 367.155 225.021 368.811C224.792 369.023 224.561 369.228 224.329 369.427C222.8 371.037 220.857 372.194 218.714 372.772C217.088 373.235 215.405 373.468 213.715 373.465C211.054 373.423 208.438 372.779 206.062 371.58C204.626 370.883 203.227 370.113 201.87 369.273C199.274 367.044 196.953 363.621 194.909 359.005C192.835 354.415 191.733 350.634 191.602 347.66C191.581 343.653 192.434 339.69 194.102 336.046C195.461 332.837 198.073 330.322 201.332 329.086C204.982 327.677 208.963 327.356 212.792 328.163C217.562 328.97 222.187 330.473 226.521 332.624C226.952 332.706 227.389 332.758 227.828 332.777C228.09 332.784 228.359 332.784 228.636 332.777C230.432 333.231 232.294 333.361 234.135 333.162V333.585C233.912 334.015 233.498 334.315 233.02 334.393C232.274 334.54 231.541 334.746 230.828 335.008C230.886 335.067 230.95 335.118 231.02 335.162C231.931 335.725 232.77 336.397 233.52 337.162C234.107 337.62 234.684 338.081 235.25 338.546C235.492 338.709 235.712 338.903 235.904 339.123C236.08 339.294 236.178 339.531 236.173 339.777C236.171 339.806 236.158 339.834 236.135 339.853V340.046C236.133 340.126 236.089 340.199 236.019 340.238C235.534 340.497 235.017 340.69 234.481 340.815C233.554 340.952 232.17 341.208 230.328 341.584C228.381 341.064 226.526 340.247 224.829 339.161L224.79 339.123C220.421 336.298 215.406 334.63 210.215 334.277C208.291 334.17 206.362 334.221 204.447 334.431Z" fill="#1C003F"/>
<path d="M217.291 283.361C220.496 284.207 223.688 286.681 226.867 290.783C230.02 294.808 231.482 298.602 231.251 302.166C231.02 305.704 229.559 307.999 226.867 309.05C224.484 309.975 222.027 310.695 219.522 311.203C217.342 311.614 215.599 311.934 214.291 312.165C212.651 312.447 207.228 313.831 198.024 316.318C196.791 316.681 195.614 317.212 194.525 317.895C194.371 317.946 193.512 318.408 191.948 319.279C190.603 320.026 189.128 320.509 187.603 320.702C184.398 320.933 181.873 319.407 180.027 316.126C178.404 313.048 177.497 309.643 177.373 306.166C177.271 304.55 177.232 303.333 177.258 302.512C177.259 301.151 177.575 299.809 178.181 298.59C178.613 297.367 179.222 296.213 179.988 295.167C181.456 293.261 183.253 291.633 185.295 290.36C186.733 289.383 188.222 288.484 189.756 287.668C192.381 286.506 195.095 285.555 197.87 284.822C201.152 283.823 204.509 283.09 207.908 282.63C211.053 282.251 214.242 282.499 217.291 283.361M224.598 297.128C223.805 295.609 222.765 294.231 221.521 293.052C218.617 290.096 214.532 288.612 210.407 289.014C204.731 289.36 199.16 290.701 193.948 292.975C193.89 293.006 193.839 293.032 193.794 293.052L193.486 293.167C193.387 293.224 193.284 293.276 193.179 293.321H193.217C192.975 293.426 192.745 293.528 192.525 293.629C190.649 294.45 188.88 295.496 187.257 296.744C187.124 296.869 186.996 296.985 186.872 297.09C186.516 297.445 186.196 297.766 185.911 298.051C184.812 299.103 183.993 300.411 183.526 301.858C183.104 302.989 182.908 304.191 182.949 305.396C183.012 306.99 183.419 308.551 184.141 309.973C185.116 311.921 186.526 312.831 188.372 312.703C189.998 312.668 191.594 312.246 193.025 311.473C194.421 310.589 195.919 309.879 197.486 309.357C198.565 309.024 199.962 308.652 201.678 308.242H201.716C201.958 308.2 202.214 308.149 202.485 308.088L203.254 307.896C203.868 307.781 204.522 307.652 205.216 307.512C208.369 306.871 211.253 306.358 213.868 305.973C216.954 305.506 219.966 304.64 222.829 303.397C224.726 302.474 225.649 301.628 225.598 300.859C225.496 299.564 225.157 298.3 224.598 297.128L224.598 297.128Z" fill="#091628"/>
<path d="M193.179 293.321C193.284 293.276 193.387 293.224 193.486 293.167L193.794 293.052C193.839 293.032 193.89 293.006 193.948 292.975C193.732 293.141 193.483 293.259 193.217 293.321H193.179ZM224.29 299.128C224.605 298.512 224.713 297.81 224.598 297.128C225.157 298.3 225.495 299.564 225.598 300.858C225.649 301.628 224.726 302.474 222.829 303.397C219.966 304.64 216.954 305.506 213.868 305.973C211.253 306.358 208.369 306.871 205.216 307.511C204.522 307.652 203.868 307.78 203.254 307.896L202.485 308.088C202.214 308.149 201.957 308.2 201.716 308.242H201.678C199.962 308.652 198.565 309.024 197.486 309.357C195.919 309.879 194.421 310.589 193.025 311.472C191.593 312.246 189.998 312.668 188.372 312.703C186.526 312.831 185.116 311.921 184.141 309.973C183.419 308.551 183.012 306.99 182.949 305.396C182.908 304.191 183.104 302.988 183.526 301.858C183.993 300.411 184.812 299.103 185.91 298.051C186.196 297.766 186.516 297.445 186.872 297.09C186.996 296.985 187.124 296.869 187.256 296.744C188.88 295.496 190.649 294.45 192.525 293.629C192.14 294.064 191.743 294.513 191.333 294.975C191.297 295.016 191.258 295.054 191.217 295.09C190.235 296.397 189.647 297.959 189.525 299.589C189.502 301.056 190.208 302.44 191.41 303.281C193.025 304.512 195.589 305.14 199.101 305.166C200.527 305.222 201.955 305.157 203.37 304.973C205.216 304.537 207.074 304.153 208.946 303.82C210.663 303.513 213.137 303.077 216.368 302.512C219.599 301.972 221.663 301.382 222.56 300.743C223.233 300.318 223.82 299.77 224.29 299.128V299.128Z" fill="#4E7A8D"/>
<path d="M224.598 297.128C224.713 297.811 224.605 298.512 224.29 299.128C223.82 299.771 223.233 300.319 222.56 300.743C221.663 301.383 219.599 301.972 216.368 302.512C213.138 303.078 210.663 303.513 208.946 303.82C207.075 304.153 205.216 304.538 203.37 304.974C201.955 305.158 200.527 305.222 199.101 305.166C195.589 305.14 193.025 304.512 191.41 303.281C190.208 302.44 189.502 301.057 189.525 299.59C189.648 297.959 190.235 296.397 191.218 295.09C191.259 295.054 191.297 295.016 191.333 294.975C191.743 294.513 192.141 294.065 192.525 293.629C192.745 293.528 192.975 293.426 193.217 293.321C193.483 293.259 193.732 293.141 193.948 292.975C199.16 290.701 204.731 289.36 210.407 289.014C214.532 288.612 218.617 290.096 221.521 293.052C222.765 294.231 223.805 295.609 224.598 297.128M208.331 294.129C208.545 294.126 208.756 294.074 208.946 293.975C211.792 294.206 214.612 294.5 217.407 294.859C217.724 294.881 218.03 294.735 218.214 294.475C218.284 294.389 218.348 294.299 218.406 294.206C218.411 294.216 218.424 294.216 218.445 294.206C218.764 294.019 218.998 293.716 219.099 293.36V293.052C219.123 293.004 219.136 292.952 219.137 292.898C219.132 292.857 219.119 292.818 219.099 292.783V292.629C219.074 292.581 219.061 292.529 219.06 292.475V292.321C217.415 290.935 215.327 290.185 213.176 290.206C212.221 290.208 211.268 290.118 210.331 289.937C210.227 289.937 210.123 289.924 210.023 289.899C209.043 289.767 208.047 289.845 207.1 290.129C206.88 290.198 206.672 290.301 206.485 290.437C206.377 290.478 206.274 290.529 206.177 290.591C205.768 290.846 205.467 291.243 205.331 291.706V292.014C205.334 292.056 205.321 292.097 205.293 292.129C205.318 292.283 205.344 292.437 205.37 292.59C205.399 292.908 205.535 293.206 205.754 293.437C205.973 293.658 206.219 293.852 206.485 294.013C207.092 294.139 207.713 294.178 208.331 294.129L208.331 294.129Z" fill="#90C3D0"/>
<path d="M208.946 293.975C208.756 294.074 208.545 294.126 208.331 294.129C207.713 294.178 207.092 294.139 206.485 294.013C206.219 293.852 205.973 293.658 205.754 293.436C205.535 293.205 205.399 292.907 205.37 292.59C205.344 292.436 205.318 292.283 205.293 292.129C205.32 292.097 205.334 292.055 205.331 292.013V291.706C205.467 291.243 205.768 290.846 206.177 290.591C206.274 290.529 206.377 290.478 206.485 290.437C206.672 290.301 206.88 290.197 207.1 290.129C208.047 289.845 209.043 289.766 210.023 289.898C210.123 289.924 210.227 289.937 210.33 289.937C211.268 290.118 212.221 290.208 213.176 290.206C215.327 290.184 217.415 290.935 219.06 292.321V292.475C219.061 292.528 219.074 292.581 219.099 292.629V292.783C219.119 292.818 219.132 292.857 219.137 292.898C219.136 292.952 219.123 293.004 219.099 293.052V293.359C218.998 293.715 218.764 294.019 218.445 294.205C218.424 294.216 218.411 294.216 218.406 294.205C218.348 294.299 218.284 294.389 218.214 294.475C218.03 294.735 217.724 294.88 217.406 294.859C214.612 294.5 211.792 294.205 208.946 293.975Z" fill="white"/>
</g>
<g clip-path="url(#clip1_118_726)">
<path d="M227 66C230.314 66 233 63.3137 233 60C233 56.6863 230.314 54 227 54C223.686 54 221 56.6863 221 60C221 63.3137 223.686 66 227 66Z" fill="#FFFDE9"/>
<path d="M252 89C254.209 89 256 87.2091 256 85C256 82.7909 254.209 81 252 81C249.791 81 248 82.7909 248 85C248 87.2091 249.791 89 252 89Z" fill="#D6D5D9"/>
<path d="M218.5 108C219.881 108 221 106.881 221 105.5C221 104.119 219.881 103 218.5 103C217.119 103 216 104.119 216 105.5C216 106.881 217.119 108 218.5 108Z" fill="#FFFDE9"/>
<path d="M247 116C247.552 116 248 115.552 248 115C248 114.448 247.552 114 247 114C246.448 114 246 114.448 246 115C246 115.552 246.448 116 247 116Z" fill="#FFFDE9"/>
</g>
<defs>
<clipPath id="clip0_118_726">
<rect width="99.9872" height="113.062" fill="white" transform="translate(177.006 270.438)"/>
</clipPath>
<clipPath id="clip1_118_726">
<rect width="40" height="62" fill="white" transform="translate(216 54)"/>
</clipPath>
</defs>
</svg>
