<svg width="207" height="272" viewBox="0 0 207 272" fill="none" xmlns="http://www.w3.org/2000/svg">
<g clip-path="url(#clip0_118_625)">
<path d="M140.398 262.161C140.34 262.073 140.275 261.99 140.201 261.915L140.3 262.112C140.318 262.113 140.337 262.118 140.354 262.126C140.371 262.135 140.386 262.146 140.398 262.161Z" fill="black"/>
<path d="M191.588 134.504C188.457 132.015 184.113 130.097 178.557 128.75C174.047 127.589 169.463 126.735 164.838 126.193C159.834 125.882 154.812 126.046 149.839 126.685C144.869 127.107 139.948 127.979 135.136 129.291C131.401 130.488 127.793 132.053 124.367 133.963C120.654 136.006 118.26 137.383 117.187 138.093C113.692 140.728 111.335 144.598 110.598 148.912C110.139 150.715 109.91 154.157 109.91 159.239C109.91 164.32 110.746 167.615 112.418 169.123C114.417 170.893 118.876 171.778 125.793 171.778L148.413 170.844C162.412 170.09 169.919 169.713 170.935 169.713C174.08 169.735 177.218 169.982 180.328 170.45C183.737 170.942 185.72 171.188 186.278 171.188C189.278 171.215 192.247 170.567 194.963 169.29C197.678 168.013 200.071 166.14 201.964 163.812C205.308 159.976 206.98 156.649 206.98 153.829C206.983 151.665 205.197 148.534 201.62 144.437C198.575 140.838 195.218 137.514 191.588 134.504M189.179 142.126C191.258 144.176 193.181 146.379 194.932 148.715C197.227 151.667 198.374 153.502 198.375 154.223C198.376 154.809 198.223 155.386 197.932 155.895C197.507 156.601 197.031 157.275 196.506 157.911C195.661 158.846 194.703 159.672 193.654 160.37C193.588 160.402 192.982 160.96 191.834 162.041C191.386 162.561 190.783 162.923 190.113 163.074C179.098 162.484 173.263 162.189 172.607 162.189C170.804 162.189 152.724 162.566 118.368 163.32C118.368 162.73 118.286 161.451 118.122 159.484C117.925 157.485 117.827 156.354 117.827 156.091C117.827 149.043 121.4 143.781 128.547 140.306C133.759 137.782 143.168 135.831 156.773 134.455C163.753 133.71 170.811 134.464 177.475 136.667C183.775 138.866 187.677 140.686 189.179 142.126L189.179 142.126Z" fill="#230110"/>
<path d="M194.933 148.715C193.181 146.379 191.258 144.176 189.179 142.126C187.677 140.686 183.776 138.866 177.476 136.668C170.811 134.464 163.753 133.71 156.773 134.455C143.168 135.832 133.759 137.782 128.547 140.306C121.4 143.781 117.827 149.043 117.827 156.091C117.827 156.354 117.925 157.485 118.122 159.484C118.286 161.451 118.368 162.73 118.368 163.32C152.724 162.566 170.804 162.189 172.607 162.189C173.263 162.189 179.098 162.484 190.113 163.074C190.783 162.924 191.386 162.562 191.835 162.042C192.982 160.96 193.588 160.402 193.654 160.37C194.703 159.672 195.661 158.846 196.506 157.911C197.031 157.275 197.508 156.601 197.932 155.895C198.223 155.386 198.376 154.809 198.375 154.223C198.374 153.503 197.227 151.667 194.933 148.715Z" fill="#A8044C"/>
<path d="M195.104 221.36C194.315 221.387 193.542 221.411 192.786 221.434C192.793 221.499 192.781 221.534 192.748 221.538C192.491 221.601 192.219 221.666 191.929 221.733C191.765 221.752 191.604 221.787 191.447 221.839C191.169 222.003 190.907 222.166 190.662 222.327C190.233 222.608 189.806 222.906 189.381 223.22C189.162 223.381 188.93 223.524 188.688 223.647C186.53 223.865 184.439 224.522 182.545 225.579C180.651 226.635 178.993 228.069 177.674 229.791C176.965 230.708 176.022 231.417 174.944 231.844C170.047 233.636 165.802 236.859 162.76 241.095C164.471 239.641 166.38 240.159 168.488 242.652L168.528 242.994C168.539 243.11 168.569 243.223 168.617 243.33L168.76 243.709C168.759 243.96 168.739 244.211 168.7 244.459L168.648 244.861C168.621 244.983 168.585 245.103 168.541 245.22L168.489 245.622C168.402 245.734 168.333 245.859 168.285 245.993C168.177 246.129 168.078 246.273 167.989 246.424C167.896 246.543 167.812 246.669 167.736 246.8C167.734 247.064 167.73 247.312 167.725 247.544C167.74 247.659 167.737 247.777 167.716 247.891C167.667 248.023 167.634 248.16 167.615 248.299C167.598 248.431 167.597 248.564 167.612 248.696C167.673 250.644 167.345 252.584 166.647 254.404C166.096 255.887 165.662 257.411 165.35 258.962L165.522 260.428C165.564 260.788 165.639 261.144 165.745 261.491C165.843 261.748 165.955 261.999 166.081 262.243C166.808 262.909 167.699 263.369 168.663 263.574C169.276 263.734 169.889 263.893 170.502 264.052C172.227 263.85 173.937 263.649 175.63 263.451C176.606 263.039 177.607 262.69 178.627 262.406C179.549 262.1 180.448 261.73 181.319 261.298C182.89 259.683 184.325 257.942 185.61 256.092C187.053 254.02 188.221 251.769 189.083 249.397C189.34 248.211 189.615 247.04 189.909 245.883C190.818 242.377 191.729 238.887 192.642 235.413C193.116 233.542 193.539 231.661 193.911 229.769C194.412 227.003 194.81 224.2 195.104 221.36Z" fill="#A8044C"/>
<path d="M200.147 210.322C199.853 210.357 199.558 210.375 199.262 210.376L199.251 210.279C198.406 210.416 197.627 210.822 197.031 211.436C196.434 212.049 196.051 212.839 195.937 213.687C195.688 214.938 195.471 216.185 195.286 217.428L195.332 217.818L195.372 218.16C195.299 219.225 195.21 220.292 195.104 221.36C194.81 224.201 194.412 227.003 193.911 229.769C193.539 231.661 193.116 233.542 192.642 235.413C191.729 238.887 190.818 242.377 189.909 245.883C189.615 247.04 189.34 248.211 189.083 249.397C188.221 251.769 187.053 254.02 185.61 256.092C184.325 257.942 182.89 259.683 181.319 261.298C180.448 261.73 179.549 262.1 178.627 262.406C177.607 262.69 176.606 263.039 175.63 263.451C173.937 263.649 172.227 263.85 170.502 264.052C169.889 263.893 169.276 263.734 168.663 263.575C167.699 263.369 166.808 262.91 166.081 262.243C165.955 261.999 165.843 261.748 165.745 261.491C165.639 261.144 165.564 260.788 165.522 260.428L165.35 258.962C165.662 257.411 166.096 255.887 166.647 254.404C167.345 252.584 167.673 250.644 167.612 248.696C167.597 248.564 167.598 248.431 167.615 248.299C167.634 248.16 167.667 248.023 167.716 247.892C167.737 247.777 167.74 247.66 167.725 247.544C167.73 247.312 167.734 247.064 167.736 246.8C167.812 246.669 167.896 246.543 167.989 246.424C168.078 246.273 168.177 246.129 168.285 245.993C168.333 245.859 168.402 245.734 168.489 245.622L168.541 245.22C168.585 245.103 168.621 244.983 168.648 244.861L168.7 244.459C168.739 244.211 168.759 243.96 168.76 243.709L168.617 243.33C168.569 243.223 168.539 243.11 168.528 242.994L168.488 242.652C166.38 240.159 164.471 239.641 162.76 241.095C161.984 241.823 161.347 242.687 160.88 243.643C159.993 245.361 159.603 247.293 159.752 249.221C159.469 249.829 159.261 250.468 159.133 251.126C158.876 252.311 158.585 253.484 158.259 254.645C158.189 254.878 158.134 255.116 158.095 255.357C157.573 257.036 157.397 258.803 157.576 260.552C157.756 262.301 158.288 263.995 159.139 265.533C159.93 267.049 161.023 268.388 162.35 269.467C163.677 270.546 165.21 271.342 166.856 271.807C179.578 273.055 188.801 268.244 194.524 257.374C195.177 256.126 195.638 254.787 195.89 253.401C197.906 246.662 199.64 239.775 201.092 232.739C202.161 227.499 202.928 222.201 203.391 216.873L203.345 216.483L203.305 216.141L203.357 215.739C203.384 215.617 203.419 215.497 203.463 215.38C203.498 215.111 203.534 214.86 203.573 214.624C203.606 214.375 203.626 214.125 203.633 213.874L203.49 213.495L203.45 213.153L203.404 212.762C203.263 212.388 203.055 212.043 202.789 211.745C202.113 210.963 201.172 210.456 200.147 210.322V210.322Z" fill="#230110"/>
<path d="M118.785 215.76C118.835 216.131 118.884 216.517 118.93 216.92L118.879 217.31L118.834 217.651C119.007 220.817 119.338 223.973 119.826 227.105C120.208 229.735 120.709 232.346 121.327 234.94C122.192 238.426 123.055 241.929 123.916 245.447C124.194 246.608 124.453 247.782 124.694 248.971C125.523 251.356 126.66 253.622 128.074 255.713C129.334 257.581 130.745 259.342 132.293 260.979C133.158 261.422 134.052 261.804 134.97 262.123C135.986 262.421 136.982 262.784 137.952 263.209C139.643 263.431 141.349 263.655 143.072 263.881C143.687 263.73 144.302 263.579 144.916 263.429C145.883 263.236 146.781 262.789 147.517 262.133C147.646 261.89 147.762 261.641 147.863 261.385C147.974 261.04 148.054 260.685 148.101 260.325L148.293 258.862C148.003 257.307 147.59 255.777 147.058 254.286C146.386 252.457 146.084 250.513 146.172 248.566C146.189 248.434 146.19 248.301 146.175 248.169C146.183 248.101 146.175 248.032 146.152 247.968L146.08 247.76C146.06 247.645 146.058 247.528 146.076 247.412C146.073 247.181 146.073 246.933 146.074 246.668C146.001 246.536 145.918 246.409 145.826 246.289C145.74 246.137 145.643 245.992 145.536 245.854C145.491 245.719 145.423 245.593 145.337 245.48L145.291 245.078C145.249 244.96 145.215 244.839 145.19 244.717L145.143 244.314C145.107 244.066 145.09 243.815 145.093 243.564L145.242 243.186C145.29 243.081 145.322 242.967 145.335 242.852L145.38 242.51C147.522 240.047 149.438 239.554 151.128 241.033C151.077 240.968 151.036 240.896 151.008 240.819C150.636 240.106 150.193 239.433 149.684 238.81C149.026 238.029 148.331 237.277 147.6 236.552C144.934 232.929 142.45 229.181 140.148 225.308C138.538 222.511 136.331 220.103 133.685 218.256C131.038 216.408 128.017 215.167 124.836 214.62C124.537 214.614 124.238 214.625 123.94 214.651C122.171 214.728 120.429 215.103 118.785 215.76V215.76Z" fill="#A8044C"/>
<path d="M115.065 209.717L115.052 209.815C114.756 209.809 114.461 209.787 114.168 209.748C113.14 209.869 112.193 210.362 111.506 211.135C111.236 211.43 111.023 211.772 110.878 212.144L110.827 212.534L110.782 212.875L110.633 213.252C110.637 213.503 110.654 213.754 110.683 214.003C110.719 214.239 110.752 214.491 110.782 214.76C110.825 214.877 110.858 214.998 110.884 215.12L110.93 215.523L110.885 215.864L110.834 216.254C111.224 221.588 111.918 226.896 112.915 232.15C114.27 239.205 115.91 246.116 117.832 252.882C118.065 254.271 118.507 255.616 119.144 256.873C124.717 267.821 133.872 272.758 146.61 271.685C148.262 271.243 149.807 270.468 151.148 269.407C152.49 268.346 153.601 267.023 154.413 265.518C155.286 263.992 155.84 262.305 156.044 260.559C156.247 258.812 156.095 257.043 155.597 255.357C155.561 255.116 155.509 254.877 155.443 254.643C155.133 253.478 154.857 252.301 154.617 251.112C154.498 250.453 154.299 249.81 154.025 249.199C154.2 247.273 153.836 245.336 152.973 243.606C152.539 242.632 151.912 241.756 151.128 241.033C149.438 239.554 147.521 240.047 145.38 242.51L145.335 242.852C145.322 242.967 145.29 243.08 145.241 243.186L145.093 243.564C145.09 243.815 145.107 244.066 145.143 244.314L145.189 244.717C145.215 244.839 145.249 244.96 145.291 245.078L145.337 245.48C145.423 245.593 145.49 245.719 145.536 245.854C145.643 245.992 145.74 246.137 145.826 246.289C145.918 246.409 146.001 246.536 146.074 246.668C146.072 246.932 146.073 247.181 146.076 247.412C146.058 247.528 146.06 247.645 146.08 247.76L146.152 247.968C146.175 248.032 146.183 248.101 146.175 248.169C146.19 248.301 146.189 248.434 146.172 248.566C146.084 250.513 146.386 252.457 147.058 254.286C147.59 255.777 148.003 257.307 148.293 258.862L148.101 260.325C148.054 260.685 147.974 261.04 147.863 261.385C147.762 261.641 147.646 261.89 147.517 262.133C146.781 262.789 145.883 263.236 144.916 263.429C144.301 263.579 143.686 263.73 143.072 263.881C141.349 263.655 139.642 263.431 137.952 263.209C136.982 262.784 135.986 262.421 134.97 262.123C134.052 261.804 133.158 261.422 132.293 260.979C130.745 259.342 129.334 257.581 128.074 255.713C126.66 253.622 125.523 251.356 124.693 248.971C124.453 247.782 124.194 246.608 123.916 245.447C123.055 241.928 122.192 238.426 121.327 234.94C120.708 232.346 120.208 229.735 119.826 227.105C119.337 223.973 119.007 220.817 118.834 217.651L118.879 217.31L118.93 216.92C118.884 216.517 118.835 216.13 118.785 215.76C118.636 214.881 118.484 214.018 118.331 213.171C118.229 212.321 117.856 211.527 117.268 210.905C116.68 210.283 115.907 209.866 115.065 209.717V209.717Z" fill="#230110"/>
<path d="M146.594 135.782C145.149 136.073 143.688 136.27 142.217 136.372C140.06 136.468 137.977 137.186 136.218 138.438C136.047 138.541 135.882 138.656 135.726 138.782C135.136 138.979 134.53 139.192 133.907 139.421C132.169 140.044 130.448 140.683 128.744 141.339C127.978 141.617 127.323 142.134 126.875 142.814C126.77 142.953 126.655 143.085 126.531 143.208C126.496 143.344 126.447 143.476 126.383 143.601C126.351 143.699 126.318 143.814 126.285 143.945C126.252 144.076 126.219 144.208 126.187 144.339C126.152 144.45 126.135 144.566 126.137 144.683L126.039 145.076C126.072 145.175 126.105 145.289 126.137 145.42V146.158C126.351 147.086 126.915 147.897 127.711 148.42C128.011 148.64 128.359 148.786 128.727 148.846C129.094 148.906 129.471 148.878 129.826 148.764C133.792 147.519 137.792 146.404 141.824 145.42C151.971 142.847 162.656 143.36 172.509 146.896C177.206 148.567 182.022 149.882 186.917 150.83C187.075 150.768 187.224 150.685 187.36 150.584C187.552 150.488 187.733 150.373 187.901 150.24C188.055 150.117 188.203 149.985 188.343 149.846C188.449 149.739 188.548 149.624 188.638 149.502C188.802 149.109 188.95 148.715 189.081 148.322C189.446 147.202 189.357 145.984 188.835 144.929C186.704 140.536 182.95 137.88 177.574 136.962C168.112 135.324 158.492 134.779 148.905 135.34C148.217 135.471 147.446 135.618 146.594 135.782Z" fill="#FF1010"/>
<path d="M154.216 156.337C144.676 156.206 137.48 157.763 132.629 161.009C127.744 164.221 124.416 167.549 122.646 170.991C121.892 172.63 121.187 174.286 120.532 175.958C119.642 178.103 118.951 180.325 118.466 182.596C118.466 182.662 118.466 182.728 118.466 182.793C118.466 182.859 118.466 182.924 118.466 182.99C118.368 183.35 118.27 183.727 118.171 184.121C118.007 184.711 117.86 185.317 117.729 185.94C117.7 186.063 117.65 186.179 117.581 186.284V186.678C117.514 186.85 117.481 187.034 117.483 187.219C117.45 187.414 117.45 187.614 117.483 187.809C117.465 187.829 117.452 187.852 117.443 187.878C117.435 187.903 117.432 187.93 117.434 187.956L117.335 188.153V188.547C117.329 188.599 117.313 188.649 117.286 188.694C117.285 188.763 117.269 188.83 117.237 188.891C117.205 188.952 117.189 189.019 117.188 189.087L117.089 189.284V189.628C116.541 192.944 116.278 196.3 116.303 199.66C116.303 203.069 116.467 206.692 116.794 210.528C116.795 211.253 116.861 211.977 116.991 212.691C117.021 212.804 117.038 212.919 117.04 213.035C117.368 214.642 117.729 216.248 118.122 217.855L118.171 217.904C118.827 219.445 119.433 221.018 119.991 222.624C120.52 224.209 121.161 225.753 121.909 227.247C122.207 227.58 122.471 227.942 122.695 228.329C122.992 228.856 123.223 229.418 123.384 230.001C123.515 230.132 123.63 230.246 123.728 230.345C123.796 230.414 123.846 230.498 123.876 230.591C123.948 230.701 124.014 230.816 124.072 230.935C125.469 232.83 126.963 234.652 128.547 236.393C129.496 237.461 130.533 238.448 131.645 239.344C132.399 239.934 132.809 240.196 132.874 240.131C135.553 241.928 138.465 243.351 141.529 244.36C138.962 242.254 136.531 239.988 134.251 237.573C135.15 238.229 136.105 238.805 137.103 239.295C139.202 240.278 140.792 241.016 141.873 241.507C141.892 241.509 141.911 241.514 141.928 241.522C141.944 241.531 141.959 241.542 141.972 241.557C142.682 241.651 143.368 241.885 143.988 242.245C144.545 242.54 145.103 242.802 145.66 243.032C146.053 243.163 146.414 243.278 146.742 243.376C147.201 243.507 147.66 243.655 148.119 243.819C148.219 243.819 148.319 243.836 148.414 243.868C151.005 244.425 153.635 244.787 156.282 244.95H156.921C161.422 244.756 165.89 244.08 170.247 242.934L172.46 242.245C175.181 240.803 177.443 239.59 179.246 238.606C178.787 239.196 178.312 239.786 177.82 240.376C177.023 241.377 176.187 242.344 175.312 243.278C177.808 241.925 180.108 240.238 182.147 238.262C182.485 237.925 182.847 237.613 183.229 237.328C185.961 234.213 188.306 230.778 190.212 227.099C192.998 220.28 194.67 215.625 195.228 213.134C195.392 212.511 195.982 208.413 196.998 200.84C197.096 198.48 197.162 196.119 197.195 193.759C197.228 191.477 197.129 189.195 196.9 186.924C196.146 183.154 195.719 181.039 195.621 180.58C195.293 179.662 194.539 177.499 193.359 174.089C193.304 174.018 193.27 173.933 193.261 173.843C192.468 172.394 191.581 170.997 190.605 169.664C190.343 169.368 189.163 168.106 187.065 165.877C186.016 164.926 184.868 163.976 183.623 163.025C181.45 161.194 179.013 159.702 176.394 158.599C174.642 157.977 172.851 157.467 171.034 157.075C169.329 156.714 163.723 156.468 154.216 156.337M148.414 176.597C148.184 176.532 147.938 176.466 147.676 176.4C145.381 176.4 143.086 176.466 140.792 176.597C138.386 176.763 136 177.141 133.661 177.728C133.202 178.122 132.776 178.515 132.383 178.908C130.889 180.495 129.601 182.263 128.547 184.17C128.175 184.986 127.527 185.644 126.718 186.031C125.909 186.417 124.99 186.507 124.121 186.284C123.413 186.194 122.748 185.892 122.213 185.419C121.678 184.945 121.298 184.321 121.122 183.629C121.122 183.531 121.122 183.416 121.122 183.285C121.122 183.152 121.105 183.02 121.073 182.891C121.066 182.771 121.033 182.653 120.974 182.547C121.037 182.426 121.071 182.291 121.073 182.154C121.105 182.055 121.138 181.941 121.171 181.81C121.171 181.677 121.188 181.545 121.22 181.416V181.072C122.524 178.952 123.935 176.9 125.449 174.925C128.924 170.434 133.678 168.254 139.71 168.385C142.922 168.451 146.152 168.533 149.397 168.631C149.65 168.629 149.902 168.679 150.135 168.778H162.182C162.267 168.751 162.349 168.718 162.428 168.68C162.887 168.582 163.346 168.483 163.805 168.385C164.166 168.319 164.526 168.237 164.887 168.139L165.379 168.041C165.675 168.041 165.97 168.024 166.264 167.992V167.893C171.707 167.012 177.29 167.836 182.246 170.254C185.609 171.81 188.273 174.562 189.72 177.974C189.72 178.105 189.72 178.236 189.72 178.367C189.718 178.484 189.735 178.6 189.769 178.712C189.802 178.84 189.818 178.972 189.819 179.105C189.849 179.217 189.865 179.333 189.868 179.449C189.868 179.582 189.851 179.714 189.819 179.843C189.821 179.959 189.804 180.075 189.769 180.187C189.737 180.315 189.72 180.448 189.72 180.58C189.72 180.711 189.72 180.826 189.72 180.924C189.687 181.056 189.655 181.187 189.622 181.318C189.593 181.44 189.543 181.557 189.474 181.662C189.409 181.793 189.343 181.924 189.278 182.055C189.221 182.167 189.171 182.282 189.13 182.4L188.737 182.793C188.639 182.924 188.523 183.04 188.392 183.137L187.901 183.531C187.762 183.601 187.631 183.683 187.507 183.777C187.428 183.815 187.346 183.848 187.261 183.875C187.102 183.939 186.938 183.988 186.77 184.022C184.593 184.752 182.221 184.629 180.131 183.678C179.707 183.499 179.331 183.224 179.032 182.874C178.734 182.524 178.52 182.109 178.41 181.662C178.41 181.564 178.41 181.449 178.41 181.318C178.41 181.187 178.41 181.056 178.41 180.924C178.377 180.826 178.344 180.711 178.312 180.58C178.345 180.449 178.377 180.318 178.41 180.187C178.478 179.945 178.527 179.699 178.558 179.449C178.599 179.331 178.648 179.216 178.705 179.105C178.833 178.848 178.981 178.601 179.148 178.367C179.211 178.242 179.261 178.11 179.295 177.974C177.233 176.757 174.946 175.968 172.572 175.655C170.197 175.343 167.784 175.512 165.477 176.155C159.884 177.501 154.069 177.652 148.414 176.597H148.414Z" fill="#FF1010"/>
<path d="M147.676 176.4C147.938 176.466 148.184 176.532 148.413 176.597C154.069 177.652 159.884 177.501 165.477 176.155C167.784 175.512 170.197 175.343 172.572 175.655C174.946 175.968 177.233 176.757 179.295 177.974C179.26 178.11 179.211 178.242 179.147 178.367C178.981 178.601 178.833 178.848 178.705 179.105C178.648 179.216 178.599 179.331 178.557 179.449C178.527 179.699 178.478 179.945 178.41 180.187C178.377 180.318 178.344 180.449 178.312 180.58C178.344 180.711 178.377 180.826 178.41 180.925C178.41 181.056 178.41 181.187 178.41 181.318C178.41 181.449 178.41 181.564 178.41 181.662C178.52 182.109 178.733 182.524 179.032 182.874C179.331 183.224 179.707 183.499 180.131 183.678C182.221 184.629 184.593 184.752 186.77 184.023C186.938 183.988 187.102 183.939 187.261 183.875C187.345 183.848 187.428 183.815 187.507 183.777C187.631 183.683 187.762 183.601 187.901 183.531L188.392 183.137C188.523 183.04 188.639 182.924 188.737 182.793L189.13 182.4C189.171 182.282 189.22 182.167 189.277 182.056C189.343 181.924 189.408 181.793 189.474 181.662C189.543 181.557 189.593 181.44 189.622 181.318C189.654 181.187 189.687 181.056 189.72 180.925C189.72 180.826 189.72 180.711 189.72 180.58C189.72 180.448 189.737 180.316 189.769 180.187C189.804 180.076 189.82 179.959 189.818 179.843C189.851 179.714 189.867 179.582 189.868 179.449C189.865 179.333 189.849 179.217 189.818 179.105C189.818 178.972 189.802 178.84 189.769 178.712C189.734 178.6 189.718 178.484 189.72 178.367C189.72 178.236 189.72 178.105 189.72 177.974C188.273 174.562 185.609 171.81 182.245 170.254C177.289 167.836 171.707 167.012 166.264 167.893V167.992C165.97 168.024 165.674 168.041 165.379 168.041L164.887 168.139C164.526 168.237 164.166 168.319 163.805 168.385C163.346 168.483 162.887 168.582 162.428 168.68C162.349 168.719 162.266 168.751 162.182 168.778H150.135C149.901 168.679 149.65 168.629 149.397 168.631C146.151 168.533 142.922 168.451 139.71 168.385C133.677 168.254 128.924 170.434 125.449 174.925C123.935 176.901 122.524 178.952 121.22 181.072V181.416C121.187 181.545 121.171 181.677 121.171 181.81C121.138 181.941 121.105 182.056 121.072 182.154C121.071 182.291 121.037 182.426 120.974 182.547C121.033 182.653 121.066 182.771 121.072 182.891C121.105 183.02 121.121 183.152 121.122 183.285C121.122 183.416 121.122 183.531 121.122 183.629C121.298 184.322 121.678 184.945 122.213 185.419C122.748 185.892 123.413 186.194 124.121 186.285C124.99 186.507 125.909 186.417 126.718 186.031C127.527 185.644 128.174 184.986 128.547 184.17C129.6 182.263 130.889 180.495 132.383 178.908C132.776 178.515 133.202 178.122 133.661 177.728C136 177.142 138.386 176.763 140.791 176.597C143.086 176.466 145.381 176.4 147.676 176.4M168.083 146.552C163.918 145.527 159.635 145.064 155.347 145.175C151.009 145.329 146.766 146.49 142.955 148.568C138.857 150.731 136.792 151.83 136.759 151.862C128.17 158.091 122.564 164.025 119.941 169.664C116.958 176.122 114.991 186.039 114.04 199.414L114.139 198.922V199.021C114.107 199.082 114.09 199.149 114.09 199.217C113.954 201.231 113.938 203.251 114.04 205.266C114.042 205.415 114.059 205.563 114.09 205.708V206.102C114.091 206.316 114.107 206.529 114.139 206.741V206.79C114.172 207.61 114.237 208.446 114.336 209.298C114.499 211.101 114.745 212.888 115.073 214.658C115.565 217.445 117.138 222.756 119.794 230.591C120.253 232 120.728 233.312 121.22 234.525C121.251 234.461 121.303 234.409 121.367 234.377L121.466 234.279L121.613 234.131L121.81 233.935C121.894 233.908 121.976 233.875 122.056 233.836H122.253V233.787C122.417 233.82 122.564 233.853 122.695 233.885C122.787 233.948 122.886 233.997 122.99 234.033C123.05 234.09 123.099 234.157 123.138 234.23C123.163 234.284 123.196 234.333 123.236 234.377C123.327 234.315 123.427 234.265 123.531 234.23H123.58C123.711 234.23 123.826 234.23 123.925 234.23V234.18C124.147 234.211 124.363 234.277 124.564 234.377C124.773 234.449 124.971 234.548 125.154 234.672C125.711 236.147 126.285 237.639 126.875 239.147C127.043 239.181 127.208 239.231 127.367 239.295C127.594 239.359 127.81 239.459 128.006 239.59L128.449 240.721C128.58 241.081 128.727 241.442 128.891 241.803C129.219 242.589 129.563 243.36 129.924 244.114C130.023 244.235 130.121 244.35 130.219 244.458C134.44 244.582 138.636 244.893 142.808 245.392C142.394 245.068 141.968 244.724 141.529 244.36C138.465 243.351 135.553 241.928 132.874 240.131C132.809 240.196 132.399 239.934 131.645 239.344C130.532 238.448 129.496 237.461 128.547 236.393C126.962 234.652 125.469 232.83 124.072 230.935C124.014 230.816 123.948 230.701 123.875 230.591C123.846 230.498 123.796 230.414 123.728 230.345C123.629 230.247 123.515 230.132 123.384 230.001C123.223 229.418 122.991 228.856 122.695 228.329C122.471 227.942 122.207 227.58 121.908 227.247C121.16 225.753 120.52 224.209 119.991 222.624C119.433 221.018 118.827 219.445 118.171 217.904L118.122 217.855C117.729 216.248 117.368 214.642 117.04 213.035C117.038 212.919 117.021 212.804 116.991 212.691C116.86 211.977 116.795 211.253 116.794 210.528C116.466 206.692 116.302 203.069 116.302 199.66C116.277 196.3 116.541 192.944 117.089 189.628V189.284L117.188 189.087C117.188 189.019 117.205 188.952 117.237 188.891C117.268 188.83 117.285 188.763 117.286 188.694C117.312 188.649 117.329 188.599 117.335 188.547V188.153L117.434 187.956C117.431 187.93 117.435 187.903 117.443 187.878C117.452 187.852 117.465 187.829 117.483 187.809C117.45 187.614 117.45 187.414 117.483 187.219C117.481 187.034 117.514 186.85 117.581 186.678V186.285C117.65 186.179 117.7 186.063 117.729 185.94C117.86 185.317 118.007 184.711 118.171 184.121C118.27 183.727 118.368 183.35 118.466 182.99C118.466 182.924 118.466 182.859 118.466 182.793C118.466 182.728 118.466 182.662 118.466 182.596C118.951 180.325 119.642 178.103 120.531 175.958C121.187 174.286 121.892 172.63 122.646 170.991C124.416 167.549 127.744 164.222 132.628 161.009C137.48 157.763 144.676 156.206 154.216 156.337C163.723 156.468 169.329 156.714 171.034 157.075C172.851 157.467 174.642 157.977 176.394 158.599C179.012 159.702 181.45 161.194 183.622 163.025C184.868 163.976 186.016 164.926 187.065 165.877C189.163 168.106 190.343 169.369 190.605 169.664C191.581 170.997 192.468 172.394 193.261 173.843C193.27 173.933 193.304 174.018 193.359 174.089C194.539 177.499 195.293 179.662 195.621 180.58C195.719 181.039 196.146 183.154 196.899 186.924C197.129 189.195 197.228 191.477 197.195 193.759C197.162 196.119 197.096 198.48 196.998 200.84C195.982 208.413 195.391 212.511 195.228 213.134C194.67 215.625 192.998 220.28 190.212 227.099C188.306 230.778 185.961 234.213 183.229 237.328C182.847 237.613 182.485 237.925 182.147 238.262C180.108 240.238 177.808 241.925 175.312 243.278C174.426 244.259 173.49 245.195 172.509 246.081C175.823 246.125 179.118 246.321 182.393 246.671C182.675 246.305 182.953 245.928 183.229 245.54C183.754 244.36 184.278 243.179 184.803 241.999C184.862 241.942 184.912 241.876 184.95 241.803C185.065 241.684 185.197 241.584 185.343 241.507C185.536 241.346 185.752 241.213 185.983 241.114C186.081 241.114 186.196 241.114 186.327 241.114C186.36 241.114 186.392 241.114 186.425 241.114V241.065C186.593 241.099 186.758 241.148 186.917 241.212C186.983 240.819 187.065 240.409 187.163 239.983C187.164 239.915 187.181 239.847 187.212 239.786C187.244 239.726 187.261 239.658 187.261 239.59C187.318 239.478 187.368 239.363 187.409 239.245C187.442 239.114 187.474 238.983 187.507 238.852C187.508 238.784 187.525 238.716 187.556 238.655C187.556 238.557 187.556 238.442 187.556 238.311C187.586 238.126 187.635 237.945 187.704 237.77C187.735 237.709 187.752 237.642 187.753 237.574C187.812 237.516 187.862 237.45 187.901 237.377C187.913 237.362 187.928 237.351 187.945 237.342C187.962 237.334 187.98 237.329 187.999 237.328C188.089 237.236 188.188 237.154 188.294 237.082C188.487 236.92 188.702 236.788 188.933 236.688C189.064 236.688 189.212 236.688 189.376 236.688V236.639C189.581 236.675 189.78 236.741 189.966 236.836C190.193 236.9 190.409 237 190.605 237.131C190.675 237.269 190.757 237.401 190.851 237.524C190.994 237.75 191.094 238 191.146 238.262C191.18 238.44 191.197 238.621 191.195 238.803C191.195 238.901 191.195 239.016 191.195 239.147C191.261 239.147 191.326 239.147 191.392 239.147C191.425 239.147 191.474 239.147 191.539 239.147C191.835 238.688 192.13 238.213 192.425 237.721C192.652 237.364 192.898 237.019 193.162 236.688C194.85 232.575 196.311 228.373 197.539 224.1C198.198 221.622 198.724 219.11 199.112 216.576C199.899 209.921 200.342 204.479 200.44 200.25C200.538 196.021 200.456 191.727 200.194 187.366C200.096 186.121 200.014 184.99 199.948 183.973C199.653 180.808 199.127 177.669 198.375 174.581C197.601 171.696 196.581 168.883 195.326 166.172C193.916 163.091 190.966 159.812 186.474 156.337C183.494 153.934 180.392 151.685 177.181 149.6C175.476 148.617 172.443 147.601 168.083 146.552V146.552Z" fill="#A8044C"/>
<path d="M168.575 137.651C168.787 137.681 169 137.698 169.214 137.7C160.756 136.717 154.462 136.487 150.331 137.012C148.528 137.241 146.758 137.536 145.02 137.897C143.48 138.356 141.824 138.88 140.054 139.47C137.24 140.492 134.552 141.828 132.038 143.454C128.582 145.517 125.366 147.957 122.449 150.731C116.221 156.862 111.942 165.828 109.615 177.63C108.566 182.746 107.811 187.918 107.353 193.12C107.045 196.619 106.946 200.133 107.058 203.643C107.156 206.331 107.304 208.61 107.5 210.478C107.506 210.53 107.523 210.581 107.549 210.626C107.549 211.478 107.582 212.331 107.648 213.183C107.746 214.494 107.877 215.789 108.041 217.068L108.828 220.018C109.026 220.745 109.174 221.484 109.271 222.231C109.5 223.018 109.746 223.805 110.008 224.591C110.172 225.083 110.336 225.575 110.5 226.067V226.46C110.635 226.897 110.799 227.324 110.992 227.739C111.516 228.984 111.992 230.247 112.418 231.525C113.158 233.697 114.045 235.817 115.073 237.869C116.387 240.411 117.848 242.873 119.45 245.245C120.279 246.487 121.253 247.626 122.351 248.638C122.253 248.244 122.171 247.867 122.105 247.507C121.908 246.261 121.744 245.032 121.613 243.819C121.581 243.657 121.564 243.492 121.564 243.327C121.538 243.282 121.521 243.231 121.515 243.179V242.884L121.466 242.835V242.737C121.465 242.668 121.448 242.601 121.417 242.54C121.418 242.391 121.402 242.243 121.367 242.098C121.335 241.936 121.318 241.771 121.318 241.606C121.189 241.157 121.107 240.695 121.072 240.229C121.038 239.662 120.939 239.101 120.777 238.557C120.745 238.065 120.695 237.574 120.63 237.082C120.563 236.507 120.597 235.924 120.728 235.361L120.827 235.262V235.213C120.828 235.194 120.833 235.176 120.841 235.159C120.85 235.142 120.861 235.127 120.876 235.115C120.876 235.082 120.876 235.049 120.876 235.016V234.967L120.974 234.771C120.975 234.752 120.98 234.733 120.989 234.716C120.997 234.7 121.009 234.685 121.023 234.672L121.122 234.574C121.134 234.56 121.149 234.548 121.166 234.539C121.183 234.531 121.201 234.526 121.22 234.525C120.728 233.312 120.253 232 119.794 230.591C117.138 222.756 115.565 217.445 115.073 214.658C114.745 212.888 114.499 211.101 114.336 209.298C114.237 208.446 114.172 207.61 114.139 206.79V206.741C114.107 206.529 114.091 206.316 114.09 206.102V205.708C114.059 205.563 114.042 205.415 114.04 205.266C113.938 203.251 113.954 201.231 114.09 199.217C114.09 199.149 114.107 199.082 114.139 199.021V198.922L114.04 199.414C114.991 186.039 116.958 176.122 119.941 169.664C122.564 164.025 128.17 158.091 136.759 151.862C136.792 151.83 138.857 150.731 142.955 148.568C146.766 146.49 151.009 145.329 155.347 145.175C159.635 145.064 163.918 145.527 168.083 146.552C172.443 147.601 175.476 148.617 177.181 149.6C180.392 151.685 183.494 153.934 186.474 156.337C190.966 159.812 193.916 163.091 195.326 166.172C196.581 168.883 197.601 171.696 198.375 174.581C199.127 177.669 199.653 180.808 199.948 183.973C200.014 184.99 200.096 186.121 200.194 187.366C200.456 191.727 200.538 196.021 200.44 200.25C200.342 204.479 199.899 209.921 199.112 216.576C198.724 219.11 198.198 221.622 197.539 224.1C196.311 228.373 194.85 232.575 193.162 236.688C192.898 237.019 192.652 237.364 192.425 237.721C192.13 238.213 191.835 238.688 191.539 239.147C191.592 239.153 191.642 239.17 191.687 239.196L191.982 239.393C192.346 240.297 192.497 241.273 192.425 242.245C192.392 243.13 192.326 244.015 192.228 244.901C192.228 244.933 192.228 244.966 192.228 244.999C192.228 245.064 192.228 245.13 192.228 245.196C192.224 245.28 192.208 245.363 192.179 245.441C192.179 245.474 192.179 245.507 192.179 245.54C192.177 245.559 192.172 245.577 192.164 245.594C192.156 245.611 192.144 245.626 192.13 245.638C192.129 245.707 192.112 245.774 192.08 245.835C192.053 245.919 192.02 246.001 191.982 246.081C191.982 246.114 191.982 246.146 191.982 246.179C191.982 246.212 191.982 246.245 191.982 246.277C191.982 246.31 191.982 246.343 191.982 246.376C191.968 246.388 191.956 246.403 191.948 246.42C191.939 246.437 191.934 246.455 191.933 246.474C191.933 246.54 191.933 246.605 191.933 246.671C191.932 246.69 191.927 246.708 191.918 246.725C191.91 246.742 191.898 246.757 191.884 246.769V246.818C191.852 246.879 191.835 246.947 191.835 247.015L191.736 247.212C191.736 247.376 191.736 247.523 191.736 247.654C191.706 247.94 191.639 248.221 191.539 248.49L191.441 248.687C191.441 248.72 191.441 248.753 191.441 248.785C191.441 248.818 191.441 248.851 191.441 248.884C191.44 248.903 191.435 248.921 191.426 248.938C191.418 248.955 191.406 248.97 191.392 248.982V249.228L191.294 249.621C191.228 249.818 191.162 250.031 191.097 250.261C192.986 248.66 194.627 246.787 195.965 244.704C198.252 240.944 200.178 236.976 201.719 232.853C203.374 228.485 204.625 223.975 205.456 219.379C206.294 214.606 206.705 209.768 206.685 204.922C207.04 200.521 207.09 196.101 206.833 191.694C206.603 187.858 205.521 181.023 203.587 171.188C201.77 161.533 196.223 152.982 188.146 147.388C179.855 141.428 173.331 138.182 168.575 137.651Z" fill="#230110"/>
<path d="M169.165 171.631C167.133 171.827 165.116 172.106 163.117 172.466C163.04 172.502 162.955 172.519 162.871 172.516C161.409 172.814 159.931 173.027 158.445 173.155C156.988 173.286 155.522 173.27 154.069 173.106C152.757 173.139 151.43 173.106 150.085 173.007C148.282 172.844 146.463 172.68 144.627 172.516C141.086 172.155 137.562 171.926 134.055 171.827C132.425 171.789 130.799 172.005 129.235 172.466C127.29 173.099 125.578 174.298 124.318 175.909C123.183 177.319 122.241 178.873 121.515 180.531C121.292 181.109 121.063 181.781 120.827 182.547C120.836 182.612 120.836 182.679 120.827 182.744C120.764 183.242 120.682 183.734 120.581 184.219C120.515 184.711 120.417 185.58 120.286 186.825C120.158 187.689 120.076 188.559 120.04 189.432C120.04 196.939 121.728 202.594 125.105 206.397C126.4 207.794 127.871 209.017 129.481 210.036C131.35 211.15 132.628 211.97 133.317 212.495C134.566 213 135.894 213.459 137.3 213.871C141.07 214.953 147.84 215.494 157.609 215.494C168.1 215.494 175.853 214.56 180.869 212.691C184.676 211.222 187.997 208.718 190.458 205.463C192.091 203.458 193.235 201.101 193.802 198.578C194.254 196.621 194.55 194.632 194.687 192.628C194.79 190.728 194.79 188.824 194.687 186.924C194.634 184.862 194.149 182.835 193.261 180.974C192.426 179.316 191.421 177.751 190.261 176.302C189.534 175.411 188.727 174.588 187.851 173.843C187.589 173.712 187.343 173.598 187.114 173.499C186.773 173.362 186.444 173.197 186.13 173.007C184.029 171.925 181.708 171.336 179.344 171.286C175.947 171.188 172.548 171.303 169.165 171.631M164.494 180.875C166.493 180.548 168.493 180.121 170.493 179.597C172.968 178.944 175.508 178.564 178.066 178.466C178.661 178.532 179.252 178.631 179.836 178.761C181.308 179.068 182.648 179.824 183.672 180.925C184.97 181.859 185.97 183.58 186.671 186.088L186.72 186.334C187.259 188.046 187.621 189.809 187.802 191.595C187.792 191.944 187.743 192.291 187.655 192.628C187.638 192.827 187.605 193.024 187.556 193.218C187.371 194.033 187.141 194.838 186.868 195.628C186.848 195.778 186.815 195.926 186.77 196.07C186.7 196.288 186.618 196.501 186.524 196.71C185.651 198.836 184.306 200.737 182.59 202.266C181.571 203.266 180.411 204.111 179.148 204.774C177.62 205.703 175.963 206.399 174.23 206.839C171.476 207.331 165.936 207.577 157.609 207.577C149.577 207.577 143.693 206.987 139.956 205.807C136.755 204.833 133.745 203.32 131.055 201.332C128.367 199.354 127.138 196.239 127.367 191.989C127.364 191.824 127.364 191.66 127.367 191.497C127.347 189.164 127.816 186.852 128.744 184.711C129.604 182.865 130.825 181.21 132.333 179.843C132.399 179.548 133.399 179.187 135.333 178.761C135.41 178.726 135.494 178.709 135.579 178.712H136.956C139.007 178.911 141.044 179.24 143.053 179.695C143.742 179.859 144.43 179.99 145.119 180.089C145.3 180.193 145.501 180.26 145.709 180.285C150.026 181.17 154.434 181.533 158.838 181.367C160.171 181.399 161.503 181.316 162.822 181.121C163.379 181.056 163.936 180.974 164.494 180.875V180.875Z" fill="#091628"/>
<path d="M176.984 186.432C175.945 186.378 174.903 186.46 173.886 186.678C170.307 187.63 166.679 188.385 163.018 188.94C156.872 189.961 150.582 189.726 144.529 188.251C143.468 188.018 142.431 187.689 141.431 187.268C136.972 186.416 133.267 186.825 130.317 188.497C129.168 189.124 128.202 190.039 127.514 191.153L127.416 191.349C127.399 191.395 127.382 191.445 127.367 191.497C127.364 191.66 127.364 191.824 127.367 191.989C127.138 196.239 128.367 199.354 131.055 201.332C133.745 203.32 136.755 204.833 139.955 205.807C143.693 206.987 149.577 207.577 157.609 207.577C165.936 207.577 171.476 207.331 174.23 206.839C175.962 206.399 177.62 205.703 179.147 204.774C180.411 204.111 181.571 203.266 182.59 202.266C184.306 200.737 185.651 198.836 186.523 196.71C186.618 196.501 186.7 196.288 186.769 196.07C186.815 195.926 186.848 195.778 186.868 195.628C187.141 194.838 187.371 194.033 187.556 193.218C187.605 193.024 187.638 192.827 187.655 192.628C186.744 190.703 185.174 189.168 183.229 188.301C182.965 188.152 182.686 188.005 182.393 187.858C181.413 187.35 180.372 186.97 179.295 186.727C178.539 186.636 177.768 186.537 176.984 186.432M183.229 194.103C183.292 194.231 183.375 194.347 183.475 194.447L183.671 194.841C183.802 195.07 183.934 195.316 184.065 195.579C184.166 195.817 184.249 196.064 184.311 196.316V197.054C184.277 197.419 184.211 197.781 184.114 198.136C183.981 198.533 183.799 198.913 183.573 199.267C182.615 200.191 181.578 201.03 180.475 201.774C179.512 202.451 178.492 203.044 177.426 203.545C172.112 205.091 166.453 204.988 161.199 203.25C160.885 203.144 160.605 202.956 160.388 202.705C160.172 202.454 160.027 202.15 159.969 201.824V201.479C159.971 201.363 159.955 201.247 159.92 201.135C159.92 201.003 159.903 200.87 159.871 200.742C159.903 200.613 159.92 200.481 159.92 200.348C159.953 200.25 159.986 200.135 160.018 200.004C160.02 199.867 160.054 199.732 160.117 199.611C160.182 199.381 160.264 199.135 160.363 198.873L160.707 198.529C160.805 198.398 160.887 198.283 160.953 198.185L161.346 197.791C161.536 197.664 161.733 197.55 161.936 197.447L162.428 197.152C168.279 197.677 174.144 196.297 179.147 193.218C179.309 193.186 179.474 193.169 179.639 193.169C179.934 193.136 180.229 193.103 180.524 193.071V192.972C181.043 193.102 181.552 193.266 182.049 193.464C182.462 193.639 182.857 193.853 183.229 194.103H183.229Z" fill="#90C3D0"/>
<path d="M183.475 194.448C183.375 194.347 183.292 194.231 183.229 194.103C182.857 193.853 182.462 193.639 182.049 193.464C181.552 193.266 181.043 193.102 180.524 192.972V193.071C180.229 193.103 179.934 193.136 179.639 193.169C179.474 193.169 179.309 193.186 179.147 193.218C174.144 196.297 168.28 197.677 162.428 197.152L161.936 197.447C161.733 197.55 161.536 197.665 161.346 197.791L160.953 198.185C160.887 198.283 160.805 198.398 160.707 198.529L160.363 198.873C160.264 199.135 160.182 199.381 160.117 199.611C160.054 199.732 160.02 199.867 160.019 200.004C159.986 200.135 159.953 200.25 159.92 200.348C159.92 200.481 159.904 200.613 159.871 200.742C159.904 200.87 159.92 201.003 159.92 201.135C159.955 201.247 159.972 201.363 159.969 201.479V201.824C160.027 202.15 160.172 202.454 160.388 202.705C160.605 202.956 160.885 203.144 161.199 203.25C166.454 204.988 172.112 205.091 177.426 203.545C178.492 203.044 179.512 202.451 180.475 201.775C181.578 201.03 182.615 200.191 183.573 199.267C183.799 198.913 183.981 198.533 184.114 198.136C184.211 197.781 184.277 197.419 184.311 197.054V196.316C184.249 196.064 184.166 195.817 184.065 195.579C183.934 195.316 183.803 195.07 183.672 194.841L183.475 194.448Z" fill="white"/>
<path d="M170.493 179.597C168.493 180.121 166.493 180.548 164.494 180.875C163.936 180.974 163.379 181.056 162.822 181.121C161.503 181.316 160.171 181.399 158.838 181.367C154.434 181.533 150.026 181.17 145.709 180.285C145.501 180.26 145.3 180.193 145.119 180.089C144.43 179.99 143.742 179.859 143.053 179.695C141.044 179.24 139.007 178.911 136.956 178.712H135.579C135.494 178.709 135.41 178.726 135.333 178.761C133.399 179.187 132.399 179.548 132.333 179.843C130.825 181.21 129.604 182.865 128.744 184.711C127.816 186.852 127.347 189.164 127.367 191.497C127.382 191.445 127.399 191.396 127.416 191.35L127.514 191.153C128.202 190.039 129.168 189.124 130.317 188.497C133.268 186.825 136.972 186.416 141.431 187.268C142.431 187.689 143.468 188.018 144.529 188.252C150.582 189.726 156.872 189.961 163.018 188.94C166.68 188.385 170.307 187.63 173.886 186.678C174.903 186.46 175.945 186.378 176.984 186.432C177.769 186.537 178.539 186.636 179.295 186.727C180.372 186.97 181.413 187.35 182.393 187.858C182.686 188.005 182.965 188.152 183.229 188.301C185.174 189.168 186.744 190.703 187.655 192.628C187.743 192.291 187.792 191.944 187.802 191.595C187.621 189.809 187.259 188.046 186.721 186.334L186.671 186.088C185.97 183.58 184.97 181.859 183.672 180.925C182.648 179.824 181.308 179.068 179.836 178.761C179.252 178.631 178.661 178.532 178.066 178.466C175.508 178.564 172.968 178.944 170.493 179.597V179.597Z" fill="#4E7A8D"/>
<path d="M157.904 251.982C161.114 251.871 164.293 251.308 167.346 250.31C170.247 248.26 172.918 245.902 175.312 243.278C176.187 242.344 177.023 241.377 177.82 240.376C178.312 239.786 178.787 239.196 179.246 238.606C177.443 239.59 175.181 240.803 172.46 242.245L170.247 242.934C165.89 244.081 161.422 244.756 156.921 244.95H156.281C153.635 244.787 151.005 244.425 148.413 243.868C148.318 243.836 148.219 243.819 148.118 243.819C147.659 243.655 147.201 243.507 146.742 243.376C146.414 243.278 146.053 243.163 145.66 243.032C145.102 242.802 144.545 242.54 143.988 242.245C143.367 241.885 142.682 241.651 141.972 241.557C141.959 241.542 141.944 241.531 141.927 241.522C141.911 241.514 141.892 241.509 141.873 241.507C140.791 241.016 139.201 240.278 137.103 239.295C136.105 238.805 135.15 238.229 134.251 237.573C136.531 239.988 138.961 242.254 141.529 244.36C142.754 245.37 144 246.337 145.266 247.261C147.102 248.605 148.987 249.851 150.921 250.998C153.202 251.598 155.546 251.929 157.904 251.982V251.982Z" fill="black"/>
</g>
<g clip-path="url(#clip1_118_625)">
<path d="M33.5316 14.1639C33.0313 16.031 34.1394 17.9502 36.0065 18.4505C37.8736 18.9508 39.7928 17.8427 40.2931 15.9756C40.7934 14.1085 39.6854 12.1893 37.8182 11.689C35.9511 11.1887 34.0319 12.2967 33.5316 14.1639Z" fill="#FFFDE9"/>
<path d="M16.1264 25.0292C15.769 26.3628 16.5605 27.7337 17.8941 28.091C19.2278 28.4484 20.5986 27.6569 20.956 26.3233C21.3133 24.9896 20.5219 23.6188 19.1882 23.2614C17.8545 22.904 16.4837 23.6955 16.1264 25.0292Z" fill="#D6D5D9"/>
<path d="M10.6774 2.86372C10.463 3.66391 10.9378 4.48642 11.738 4.70083C12.5382 4.91525 13.3607 4.44037 13.5752 3.64017C13.7896 2.83997 13.3147 2.01747 12.5145 1.80306C11.7143 1.58864 10.8918 2.06352 10.6774 2.86372Z" fill="#FFFDE9"/>
<path d="M0.965091 17.8609C0.822149 18.3944 1.13873 18.9427 1.6722 19.0856C2.20566 19.2286 2.754 18.912 2.89694 18.3785C3.03988 17.8451 2.7233 17.2967 2.18984 17.1538C1.65637 17.0108 1.10803 17.3274 0.965091 17.8609Z" fill="#FFFDE9"/>
</g>
<path d="M97.7741 109.626C98.7157 110.636 100.298 110.691 101.307 109.75C102.317 108.808 102.372 107.226 101.431 106.216C100.489 105.207 98.9072 105.151 97.8974 106.093C96.8877 107.035 96.8324 108.617 97.7741 109.626Z" fill="#D6D5D9"/>
<path d="M76.0892 102.501C76.6542 103.107 77.6033 103.14 78.2092 102.575C78.8151 102.01 78.8482 101.061 78.2833 100.455C77.7183 99.8493 76.7691 99.8162 76.1632 100.381C75.5574 100.946 75.5242 101.895 76.0892 102.501Z" fill="#FFFDE9"/>
<path d="M83.6607 118.685C84.0374 119.089 84.6701 119.111 85.074 118.735C85.478 118.358 85.5001 117.725 85.1234 117.321C84.7467 116.917 84.114 116.895 83.7101 117.272C83.3061 117.648 83.284 118.281 83.6607 118.685Z" fill="#FFFDE9"/>
<defs>
<clipPath id="clip0_118_625">
<rect width="99.9969" height="145.984" fill="white" transform="translate(107.001 126.016)"/>
</clipPath>
<clipPath id="clip1_118_625">
<rect width="42" height="33" fill="white"/>
</clipPath>
</defs>
</svg>
